%TF.GenerationSoftware,KiCad,Pcbnew,10.0.1*%
%TF.CreationDate,2026-06-18T14:47:45+01:00*%
%TF.ProjectId,harp timestamp generator Gen3 rear panel,68617270-2074-4696-9d65-7374616d7020,rev?*%
%TF.SameCoordinates,PX4e14cb4PY74f31c8*%
%TF.FileFunction,Copper,L2,Bot*%
%TF.FilePolarity,Positive*%
%FSLAX46Y46*%
G04 Gerber Fmt 4.6, Leading zero omitted, Abs format (unit mm)*
G04 Created by KiCad (PCBNEW 10.0.1) date 2026-06-18 14:47:45*
%MOMM*%
%LPD*%
G01*
G04 APERTURE LIST*
%TA.AperFunction,ViaPad*%
%ADD10C,4.316000*%
%TD*%
G04 APERTURE END LIST*
D10*
%TO.N,GND*%
X6048000Y5797000D03*
X6048000Y30787000D03*
X127048000Y30787000D03*
X127048000Y5797000D03*
%TD*%
%TA.AperFunction,Conductor*%
%TO.N,GND*%
G36*
X130128640Y35101415D02*
G01*
X130434643Y35085377D01*
X130441145Y35084695D01*
X130742218Y35037010D01*
X130748591Y35035654D01*
X131043011Y34956764D01*
X131049213Y34954750D01*
X131296623Y34859778D01*
X131333782Y34845514D01*
X131339758Y34842853D01*
X131397262Y34813553D01*
X131611338Y34704476D01*
X131616986Y34701215D01*
X131872622Y34535204D01*
X131877903Y34531368D01*
X131939508Y34481481D01*
X132114789Y34339541D01*
X132119650Y34335163D01*
X132335162Y34119651D01*
X132339540Y34114790D01*
X132531362Y33877910D01*
X132535207Y33872617D01*
X132701209Y33616996D01*
X132704480Y33611330D01*
X132842852Y33339759D01*
X132845513Y33333783D01*
X132954745Y33049224D01*
X132956766Y33043002D01*
X133035650Y32748605D01*
X133037011Y32742206D01*
X133084693Y32441148D01*
X133085376Y32434642D01*
X133101414Y32128641D01*
X133101500Y32125370D01*
X133101500Y29519388D01*
X133083194Y29475194D01*
X133039000Y29456888D01*
X133011049Y29463486D01*
X131151176Y30393422D01*
X131142104Y30397958D01*
X131137562Y30402500D01*
X131133019Y30402500D01*
X131128957Y30404531D01*
X131126368Y30404715D01*
X131118832Y30403492D01*
X131116438Y30402501D01*
X131113225Y30399288D01*
X131108916Y30397851D01*
X131106044Y30392107D01*
X131101500Y30387563D01*
X131101500Y30387562D01*
X131101500Y30383019D01*
X131099469Y30378957D01*
X131101500Y30372864D01*
X131101500Y20891278D01*
X131099285Y20877630D01*
X131099787Y20870572D01*
X131102490Y20864045D01*
X131106958Y20857847D01*
X131112301Y20853214D01*
X131116437Y20851500D01*
X131116438Y20851500D01*
X131122864Y20851500D01*
X131128957Y20849469D01*
X131133019Y20851500D01*
X131137562Y20851500D01*
X131137563Y20851500D01*
X131139953Y20852491D01*
X131151170Y20860576D01*
X133011050Y21790517D01*
X133058764Y21793907D01*
X133094902Y21762565D01*
X133101500Y21734614D01*
X133101500Y13769388D01*
X133083194Y13725194D01*
X133039000Y13706888D01*
X133011049Y13713486D01*
X131151176Y14643422D01*
X131142104Y14647958D01*
X131137562Y14652500D01*
X131133019Y14652500D01*
X131128957Y14654531D01*
X131126368Y14654715D01*
X131118832Y14653492D01*
X131116438Y14652501D01*
X131113225Y14649288D01*
X131108916Y14647851D01*
X131106044Y14642107D01*
X131101500Y14637563D01*
X131101500Y14637562D01*
X131101500Y14633019D01*
X131099469Y14628957D01*
X131101500Y14622864D01*
X131101500Y5141278D01*
X131099285Y5127630D01*
X131099787Y5120572D01*
X131102490Y5114045D01*
X131106958Y5107847D01*
X131112301Y5103214D01*
X131116437Y5101500D01*
X131116438Y5101500D01*
X131122864Y5101500D01*
X131128957Y5099469D01*
X131133019Y5101500D01*
X131137562Y5101500D01*
X131137563Y5101500D01*
X131139953Y5102491D01*
X131151170Y5110576D01*
X133011050Y6040517D01*
X133058764Y6043907D01*
X133094902Y6012565D01*
X133101500Y5984614D01*
X133101500Y3128631D01*
X133101414Y3125360D01*
X133085376Y2819359D01*
X133084693Y2812853D01*
X133037011Y2511795D01*
X133035650Y2505396D01*
X132956766Y2210999D01*
X132954745Y2204777D01*
X132845513Y1920218D01*
X132842852Y1914242D01*
X132704480Y1642671D01*
X132701209Y1637005D01*
X132535207Y1381384D01*
X132531362Y1376091D01*
X132339540Y1139211D01*
X132335162Y1134350D01*
X132119650Y918838D01*
X132114789Y914460D01*
X131877909Y722638D01*
X131872616Y718793D01*
X131616995Y552791D01*
X131611329Y549520D01*
X131339758Y411148D01*
X131333782Y408487D01*
X131049223Y299255D01*
X131043001Y297234D01*
X130748604Y218350D01*
X130742205Y216989D01*
X130441147Y169307D01*
X130434641Y168624D01*
X130128641Y152586D01*
X130125370Y152500D01*
X3128630Y152500D01*
X3125359Y152586D01*
X2819358Y168624D01*
X2812852Y169307D01*
X2511794Y216989D01*
X2505395Y218350D01*
X2210998Y297234D01*
X2204776Y299255D01*
X1920217Y408487D01*
X1914241Y411148D01*
X1642670Y549520D01*
X1637004Y552791D01*
X1381383Y718793D01*
X1376090Y722638D01*
X1139210Y914460D01*
X1134349Y918838D01*
X918837Y1134350D01*
X914459Y1139211D01*
X722632Y1376097D01*
X718792Y1381384D01*
X552785Y1637014D01*
X549524Y1642662D01*
X411147Y1914242D01*
X408486Y1920218D01*
X394222Y1957377D01*
X299250Y2204787D01*
X297236Y2210989D01*
X218346Y2505409D01*
X216990Y2511782D01*
X169305Y2812855D01*
X168623Y2819359D01*
X152586Y3125360D01*
X152500Y3128631D01*
X152500Y5984614D01*
X170806Y6028808D01*
X215000Y6047114D01*
X242949Y6040517D01*
X2111895Y5106043D01*
X2116438Y5101500D01*
X2120981Y5101500D01*
X2125043Y5099469D01*
X2125045Y5099470D01*
X2127631Y5099286D01*
X2135170Y5100510D01*
X2137562Y5101500D01*
X2140775Y5104714D01*
X2145084Y5106149D01*
X2147957Y5111895D01*
X2152500Y5116438D01*
X2152500Y5120981D01*
X2154531Y5125043D01*
X2152500Y5131137D01*
X2152500Y14612722D01*
X2154714Y14626369D01*
X2154530Y14628955D01*
X2154531Y14628957D01*
X2154529Y14628960D01*
X2154212Y14633429D01*
X2152500Y14637562D01*
X2147957Y14642105D01*
X2145084Y14647851D01*
X2140774Y14649288D01*
X2137562Y14652500D01*
X2131136Y14652500D01*
X2125043Y14654531D01*
X2120981Y14652500D01*
X2116438Y14652500D01*
X2116437Y14652500D01*
X2114044Y14651509D01*
X2102825Y14643423D01*
X242951Y13713486D01*
X195236Y13710095D01*
X159098Y13741437D01*
X152500Y13769388D01*
X152500Y16807477D01*
X11366500Y16807477D01*
X11366500Y16747562D01*
X11366500Y14945285D01*
X11366500Y14937000D01*
X11366500Y14866523D01*
X11397865Y14729103D01*
X11453912Y14612722D01*
X11459023Y14602108D01*
X11459026Y14602103D01*
X11546904Y14491908D01*
X11546907Y14491905D01*
X11657102Y14404027D01*
X11657105Y14404025D01*
X11657108Y14404023D01*
X11784103Y14342865D01*
X11921523Y14311500D01*
X19862476Y14311500D01*
X19862477Y14311500D01*
X19999897Y14342865D01*
X20126892Y14404023D01*
X20237094Y14491906D01*
X20324977Y14602108D01*
X20386135Y14729103D01*
X20417500Y14866523D01*
X20417500Y14937000D01*
X20417500Y14945285D01*
X20417500Y16747562D01*
X20417500Y16807477D01*
X20386135Y16944897D01*
X20327485Y17066684D01*
X38872900Y17066684D01*
X38872900Y16747317D01*
X38904202Y16429485D01*
X38966507Y16116255D01*
X38966511Y16116240D01*
X39059220Y15810619D01*
X39059222Y15810614D01*
X39059224Y15810608D01*
X39181438Y15515558D01*
X39331987Y15233901D01*
X39331987Y15233900D01*
X39509425Y14968344D01*
X39705761Y14729108D01*
X39712034Y14721465D01*
X39937865Y14495634D01*
X40184744Y14293025D01*
X40450294Y14115591D01*
X40450296Y14115590D01*
X40450299Y14115588D01*
X40557294Y14058398D01*
X40731956Y13965039D01*
X41027007Y13842825D01*
X41027006Y13842825D01*
X41027009Y13842824D01*
X41027019Y13842820D01*
X41332640Y13750111D01*
X41332649Y13750110D01*
X41332654Y13750108D01*
X41416237Y13733483D01*
X41645877Y13687804D01*
X41645882Y13687804D01*
X41645885Y13687803D01*
X41645883Y13687803D01*
X41807786Y13671858D01*
X41963713Y13656500D01*
X41963717Y13656500D01*
X42283083Y13656500D01*
X42283087Y13656500D01*
X42489695Y13676850D01*
X42600915Y13687803D01*
X42600917Y13687804D01*
X42600923Y13687804D01*
X42914160Y13750111D01*
X43219781Y13842820D01*
X43514844Y13965039D01*
X43796506Y14115591D01*
X44062056Y14293025D01*
X44308935Y14495634D01*
X44534766Y14721465D01*
X44737375Y14968344D01*
X44914809Y15233894D01*
X45065361Y15515556D01*
X45187580Y15810619D01*
X45280289Y16116240D01*
X45342596Y16429477D01*
X45373900Y16747313D01*
X45373900Y17066684D01*
X51372900Y17066684D01*
X51372900Y16747317D01*
X51404202Y16429485D01*
X51466507Y16116255D01*
X51466511Y16116240D01*
X51559220Y15810619D01*
X51559222Y15810614D01*
X51559224Y15810608D01*
X51681438Y15515558D01*
X51831987Y15233901D01*
X51831987Y15233900D01*
X52009425Y14968344D01*
X52205761Y14729108D01*
X52212034Y14721465D01*
X52437865Y14495634D01*
X52684744Y14293025D01*
X52950294Y14115591D01*
X52950296Y14115590D01*
X52950299Y14115588D01*
X53057294Y14058398D01*
X53231956Y13965039D01*
X53527007Y13842825D01*
X53527006Y13842825D01*
X53527009Y13842824D01*
X53527019Y13842820D01*
X53832640Y13750111D01*
X53832649Y13750110D01*
X53832654Y13750108D01*
X53916237Y13733483D01*
X54145877Y13687804D01*
X54145882Y13687804D01*
X54145885Y13687803D01*
X54145883Y13687803D01*
X54307786Y13671858D01*
X54463713Y13656500D01*
X54463717Y13656500D01*
X54783083Y13656500D01*
X54783087Y13656500D01*
X54989695Y13676850D01*
X55100915Y13687803D01*
X55100917Y13687804D01*
X55100923Y13687804D01*
X55414160Y13750111D01*
X55719781Y13842820D01*
X56014844Y13965039D01*
X56296506Y14115591D01*
X56562056Y14293025D01*
X56808935Y14495634D01*
X57034766Y14721465D01*
X57237375Y14968344D01*
X57414809Y15233894D01*
X57565361Y15515556D01*
X57687580Y15810619D01*
X57780289Y16116240D01*
X57842596Y16429477D01*
X57873900Y16747313D01*
X57873900Y17066684D01*
X63872900Y17066684D01*
X63872900Y16747317D01*
X63904202Y16429485D01*
X63966507Y16116255D01*
X63966511Y16116240D01*
X64059220Y15810619D01*
X64059222Y15810614D01*
X64059224Y15810608D01*
X64181438Y15515558D01*
X64331987Y15233901D01*
X64331987Y15233900D01*
X64509425Y14968344D01*
X64705761Y14729108D01*
X64712034Y14721465D01*
X64937865Y14495634D01*
X65184744Y14293025D01*
X65450294Y14115591D01*
X65450296Y14115590D01*
X65450299Y14115588D01*
X65557294Y14058398D01*
X65731956Y13965039D01*
X66027007Y13842825D01*
X66027006Y13842825D01*
X66027009Y13842824D01*
X66027019Y13842820D01*
X66332640Y13750111D01*
X66332649Y13750110D01*
X66332654Y13750108D01*
X66416237Y13733483D01*
X66645877Y13687804D01*
X66645882Y13687804D01*
X66645885Y13687803D01*
X66645883Y13687803D01*
X66807786Y13671858D01*
X66963713Y13656500D01*
X66963717Y13656500D01*
X67283083Y13656500D01*
X67283087Y13656500D01*
X67489695Y13676850D01*
X67600915Y13687803D01*
X67600917Y13687804D01*
X67600923Y13687804D01*
X67914160Y13750111D01*
X68219781Y13842820D01*
X68514844Y13965039D01*
X68796506Y14115591D01*
X69062056Y14293025D01*
X69308935Y14495634D01*
X69534766Y14721465D01*
X69737375Y14968344D01*
X69914809Y15233894D01*
X70065361Y15515556D01*
X70187580Y15810619D01*
X70280289Y16116240D01*
X70342596Y16429477D01*
X70373900Y16747313D01*
X70373900Y17066684D01*
X76372900Y17066684D01*
X76372900Y16747317D01*
X76404202Y16429485D01*
X76466507Y16116255D01*
X76466511Y16116240D01*
X76559220Y15810619D01*
X76559222Y15810614D01*
X76559224Y15810608D01*
X76681438Y15515558D01*
X76831987Y15233901D01*
X76831987Y15233900D01*
X77009425Y14968344D01*
X77205761Y14729108D01*
X77212034Y14721465D01*
X77437865Y14495634D01*
X77684744Y14293025D01*
X77950294Y14115591D01*
X77950296Y14115590D01*
X77950299Y14115588D01*
X78057294Y14058398D01*
X78231956Y13965039D01*
X78527007Y13842825D01*
X78527006Y13842825D01*
X78527009Y13842824D01*
X78527019Y13842820D01*
X78832640Y13750111D01*
X78832649Y13750110D01*
X78832654Y13750108D01*
X78916237Y13733483D01*
X79145877Y13687804D01*
X79145882Y13687804D01*
X79145885Y13687803D01*
X79145883Y13687803D01*
X79307786Y13671858D01*
X79463713Y13656500D01*
X79463717Y13656500D01*
X79783083Y13656500D01*
X79783087Y13656500D01*
X79989695Y13676850D01*
X80100915Y13687803D01*
X80100917Y13687804D01*
X80100923Y13687804D01*
X80414160Y13750111D01*
X80719781Y13842820D01*
X81014844Y13965039D01*
X81296506Y14115591D01*
X81562056Y14293025D01*
X81808935Y14495634D01*
X82034766Y14721465D01*
X82237375Y14968344D01*
X82414809Y15233894D01*
X82565361Y15515556D01*
X82687580Y15810619D01*
X82780289Y16116240D01*
X82842596Y16429477D01*
X82873900Y16747313D01*
X82873900Y17066684D01*
X88872900Y17066684D01*
X88872900Y16747317D01*
X88904202Y16429485D01*
X88966507Y16116255D01*
X88966511Y16116240D01*
X89059220Y15810619D01*
X89059222Y15810614D01*
X89059224Y15810608D01*
X89181438Y15515558D01*
X89331987Y15233901D01*
X89331987Y15233900D01*
X89509425Y14968344D01*
X89705761Y14729108D01*
X89712034Y14721465D01*
X89937865Y14495634D01*
X90184744Y14293025D01*
X90450294Y14115591D01*
X90450296Y14115590D01*
X90450299Y14115588D01*
X90557294Y14058398D01*
X90731956Y13965039D01*
X91027007Y13842825D01*
X91027006Y13842825D01*
X91027009Y13842824D01*
X91027019Y13842820D01*
X91332640Y13750111D01*
X91332649Y13750110D01*
X91332654Y13750108D01*
X91416237Y13733483D01*
X91645877Y13687804D01*
X91645882Y13687804D01*
X91645885Y13687803D01*
X91645883Y13687803D01*
X91807786Y13671858D01*
X91963713Y13656500D01*
X91963717Y13656500D01*
X92283083Y13656500D01*
X92283087Y13656500D01*
X92489695Y13676850D01*
X92600915Y13687803D01*
X92600917Y13687804D01*
X92600923Y13687804D01*
X92914160Y13750111D01*
X93219781Y13842820D01*
X93514844Y13965039D01*
X93796506Y14115591D01*
X94062056Y14293025D01*
X94308935Y14495634D01*
X94534766Y14721465D01*
X94737375Y14968344D01*
X94914809Y15233894D01*
X95065361Y15515556D01*
X95187580Y15810619D01*
X95280289Y16116240D01*
X95342596Y16429477D01*
X95373900Y16747313D01*
X95373900Y17066684D01*
X101372900Y17066684D01*
X101372900Y16747317D01*
X101404202Y16429485D01*
X101466507Y16116255D01*
X101466511Y16116240D01*
X101559220Y15810619D01*
X101559222Y15810614D01*
X101559224Y15810608D01*
X101681438Y15515558D01*
X101831987Y15233901D01*
X101831987Y15233900D01*
X102009425Y14968344D01*
X102205761Y14729108D01*
X102212034Y14721465D01*
X102437865Y14495634D01*
X102684744Y14293025D01*
X102950294Y14115591D01*
X102950296Y14115590D01*
X102950299Y14115588D01*
X103057294Y14058398D01*
X103231956Y13965039D01*
X103527007Y13842825D01*
X103527006Y13842825D01*
X103527009Y13842824D01*
X103527019Y13842820D01*
X103832640Y13750111D01*
X103832649Y13750110D01*
X103832654Y13750108D01*
X103916237Y13733483D01*
X104145877Y13687804D01*
X104145882Y13687804D01*
X104145885Y13687803D01*
X104145883Y13687803D01*
X104307786Y13671858D01*
X104463713Y13656500D01*
X104463717Y13656500D01*
X104783083Y13656500D01*
X104783087Y13656500D01*
X104989695Y13676850D01*
X105100915Y13687803D01*
X105100917Y13687804D01*
X105100923Y13687804D01*
X105414160Y13750111D01*
X105719781Y13842820D01*
X106014844Y13965039D01*
X106296506Y14115591D01*
X106562056Y14293025D01*
X106808935Y14495634D01*
X107034766Y14721465D01*
X107237375Y14968344D01*
X107414809Y15233894D01*
X107565361Y15515556D01*
X107687580Y15810619D01*
X107780289Y16116240D01*
X107842596Y16429477D01*
X107873900Y16747313D01*
X107873900Y17066684D01*
X113872900Y17066684D01*
X113872900Y16747317D01*
X113904202Y16429485D01*
X113966507Y16116255D01*
X113966511Y16116240D01*
X114059220Y15810619D01*
X114059222Y15810614D01*
X114059224Y15810608D01*
X114181438Y15515558D01*
X114331987Y15233901D01*
X114331987Y15233900D01*
X114509425Y14968344D01*
X114705761Y14729108D01*
X114712034Y14721465D01*
X114937865Y14495634D01*
X115184744Y14293025D01*
X115450294Y14115591D01*
X115450296Y14115590D01*
X115450299Y14115588D01*
X115557294Y14058398D01*
X115731956Y13965039D01*
X116027007Y13842825D01*
X116027006Y13842825D01*
X116027009Y13842824D01*
X116027019Y13842820D01*
X116332640Y13750111D01*
X116332649Y13750110D01*
X116332654Y13750108D01*
X116416237Y13733483D01*
X116645877Y13687804D01*
X116645882Y13687804D01*
X116645885Y13687803D01*
X116645883Y13687803D01*
X116807786Y13671858D01*
X116963713Y13656500D01*
X116963717Y13656500D01*
X117283083Y13656500D01*
X117283087Y13656500D01*
X117489695Y13676850D01*
X117600915Y13687803D01*
X117600917Y13687804D01*
X117600923Y13687804D01*
X117914160Y13750111D01*
X118219781Y13842820D01*
X118514844Y13965039D01*
X118796506Y14115591D01*
X119062056Y14293025D01*
X119308935Y14495634D01*
X119534766Y14721465D01*
X119737375Y14968344D01*
X119914809Y15233894D01*
X120065361Y15515556D01*
X120187580Y15810619D01*
X120280289Y16116240D01*
X120342596Y16429477D01*
X120373900Y16747313D01*
X120373900Y17066687D01*
X120342596Y17384523D01*
X120280289Y17697760D01*
X120187580Y18003381D01*
X120065361Y18298444D01*
X119914809Y18580106D01*
X119737375Y18845656D01*
X119534766Y19092535D01*
X119308935Y19318366D01*
X119062056Y19520975D01*
X118796506Y19698409D01*
X118796505Y19698410D01*
X118796500Y19698413D01*
X118514842Y19848962D01*
X118219792Y19971176D01*
X118219793Y19971176D01*
X118219784Y19971179D01*
X118219781Y19971180D01*
X118053958Y20021482D01*
X117914161Y20063889D01*
X117914145Y20063893D01*
X117600914Y20126198D01*
X117600916Y20126198D01*
X117356543Y20150266D01*
X117283087Y20157500D01*
X116963713Y20157500D01*
X116890256Y20150266D01*
X116645884Y20126198D01*
X116332654Y20063893D01*
X116332638Y20063889D01*
X116140794Y20005694D01*
X116027019Y19971180D01*
X116027015Y19971179D01*
X116027007Y19971176D01*
X115731957Y19848962D01*
X115450300Y19698413D01*
X115450299Y19698413D01*
X115184743Y19520975D01*
X114937870Y19318371D01*
X114937863Y19318365D01*
X114712035Y19092537D01*
X114712029Y19092530D01*
X114509425Y18845657D01*
X114331987Y18580101D01*
X114331987Y18580100D01*
X114181438Y18298443D01*
X114059224Y18003393D01*
X113966511Y17697762D01*
X113966507Y17697746D01*
X113904202Y17384516D01*
X113884266Y17182093D01*
X113873414Y17071898D01*
X113872900Y17066684D01*
X107873900Y17066684D01*
X107873900Y17066687D01*
X107842596Y17384523D01*
X107780289Y17697760D01*
X107687580Y18003381D01*
X107565361Y18298444D01*
X107414809Y18580106D01*
X107237375Y18845656D01*
X107034766Y19092535D01*
X106808935Y19318366D01*
X106562056Y19520975D01*
X106296506Y19698409D01*
X106296505Y19698410D01*
X106296500Y19698413D01*
X106014842Y19848962D01*
X105719792Y19971176D01*
X105719793Y19971176D01*
X105719784Y19971179D01*
X105719781Y19971180D01*
X105553958Y20021482D01*
X105414161Y20063889D01*
X105414145Y20063893D01*
X105100914Y20126198D01*
X105100916Y20126198D01*
X104856543Y20150266D01*
X104783087Y20157500D01*
X104463713Y20157500D01*
X104390256Y20150266D01*
X104145884Y20126198D01*
X103832654Y20063893D01*
X103832638Y20063889D01*
X103640794Y20005694D01*
X103527019Y19971180D01*
X103527015Y19971179D01*
X103527007Y19971176D01*
X103231957Y19848962D01*
X102950300Y19698413D01*
X102950299Y19698413D01*
X102684743Y19520975D01*
X102437870Y19318371D01*
X102437863Y19318365D01*
X102212035Y19092537D01*
X102212029Y19092530D01*
X102009425Y18845657D01*
X101831987Y18580101D01*
X101831987Y18580100D01*
X101681438Y18298443D01*
X101559224Y18003393D01*
X101466511Y17697762D01*
X101466507Y17697746D01*
X101404202Y17384516D01*
X101384266Y17182093D01*
X101373414Y17071898D01*
X101372900Y17066684D01*
X95373900Y17066684D01*
X95373900Y17066687D01*
X95342596Y17384523D01*
X95280289Y17697760D01*
X95187580Y18003381D01*
X95065361Y18298444D01*
X94914809Y18580106D01*
X94737375Y18845656D01*
X94534766Y19092535D01*
X94308935Y19318366D01*
X94062056Y19520975D01*
X93796506Y19698409D01*
X93796505Y19698410D01*
X93796500Y19698413D01*
X93514842Y19848962D01*
X93219792Y19971176D01*
X93219793Y19971176D01*
X93219784Y19971179D01*
X93219781Y19971180D01*
X93053958Y20021482D01*
X92914161Y20063889D01*
X92914145Y20063893D01*
X92600914Y20126198D01*
X92600916Y20126198D01*
X92356543Y20150266D01*
X92283087Y20157500D01*
X91963713Y20157500D01*
X91890256Y20150266D01*
X91645884Y20126198D01*
X91332654Y20063893D01*
X91332638Y20063889D01*
X91140794Y20005694D01*
X91027019Y19971180D01*
X91027015Y19971179D01*
X91027007Y19971176D01*
X90731957Y19848962D01*
X90450300Y19698413D01*
X90450299Y19698413D01*
X90184743Y19520975D01*
X89937870Y19318371D01*
X89937863Y19318365D01*
X89712035Y19092537D01*
X89712029Y19092530D01*
X89509425Y18845657D01*
X89331987Y18580101D01*
X89331987Y18580100D01*
X89181438Y18298443D01*
X89059224Y18003393D01*
X88966511Y17697762D01*
X88966507Y17697746D01*
X88904202Y17384516D01*
X88884266Y17182093D01*
X88873414Y17071898D01*
X88872900Y17066684D01*
X82873900Y17066684D01*
X82873900Y17066687D01*
X82842596Y17384523D01*
X82780289Y17697760D01*
X82687580Y18003381D01*
X82565361Y18298444D01*
X82414809Y18580106D01*
X82237375Y18845656D01*
X82034766Y19092535D01*
X81808935Y19318366D01*
X81562056Y19520975D01*
X81296506Y19698409D01*
X81296505Y19698410D01*
X81296500Y19698413D01*
X81014842Y19848962D01*
X80719792Y19971176D01*
X80719793Y19971176D01*
X80719784Y19971179D01*
X80719781Y19971180D01*
X80553958Y20021482D01*
X80414161Y20063889D01*
X80414145Y20063893D01*
X80100914Y20126198D01*
X80100916Y20126198D01*
X79856543Y20150266D01*
X79783087Y20157500D01*
X79463713Y20157500D01*
X79390256Y20150266D01*
X79145884Y20126198D01*
X78832654Y20063893D01*
X78832638Y20063889D01*
X78640794Y20005694D01*
X78527019Y19971180D01*
X78527015Y19971179D01*
X78527007Y19971176D01*
X78231957Y19848962D01*
X77950300Y19698413D01*
X77950299Y19698413D01*
X77684743Y19520975D01*
X77437870Y19318371D01*
X77437863Y19318365D01*
X77212035Y19092537D01*
X77212029Y19092530D01*
X77009425Y18845657D01*
X76831987Y18580101D01*
X76831987Y18580100D01*
X76681438Y18298443D01*
X76559224Y18003393D01*
X76466511Y17697762D01*
X76466507Y17697746D01*
X76404202Y17384516D01*
X76384266Y17182093D01*
X76373414Y17071898D01*
X76372900Y17066684D01*
X70373900Y17066684D01*
X70373900Y17066687D01*
X70342596Y17384523D01*
X70280289Y17697760D01*
X70187580Y18003381D01*
X70065361Y18298444D01*
X69914809Y18580106D01*
X69737375Y18845656D01*
X69534766Y19092535D01*
X69308935Y19318366D01*
X69062056Y19520975D01*
X68796506Y19698409D01*
X68796505Y19698410D01*
X68796500Y19698413D01*
X68514842Y19848962D01*
X68219792Y19971176D01*
X68219793Y19971176D01*
X68219784Y19971179D01*
X68219781Y19971180D01*
X68053958Y20021482D01*
X67914161Y20063889D01*
X67914145Y20063893D01*
X67600914Y20126198D01*
X67600916Y20126198D01*
X67356543Y20150266D01*
X67283087Y20157500D01*
X66963713Y20157500D01*
X66890256Y20150266D01*
X66645884Y20126198D01*
X66332654Y20063893D01*
X66332638Y20063889D01*
X66140794Y20005694D01*
X66027019Y19971180D01*
X66027015Y19971179D01*
X66027007Y19971176D01*
X65731957Y19848962D01*
X65450300Y19698413D01*
X65450299Y19698413D01*
X65184743Y19520975D01*
X64937870Y19318371D01*
X64937863Y19318365D01*
X64712035Y19092537D01*
X64712029Y19092530D01*
X64509425Y18845657D01*
X64331987Y18580101D01*
X64331987Y18580100D01*
X64181438Y18298443D01*
X64059224Y18003393D01*
X63966511Y17697762D01*
X63966507Y17697746D01*
X63904202Y17384516D01*
X63884266Y17182093D01*
X63873414Y17071898D01*
X63872900Y17066684D01*
X57873900Y17066684D01*
X57873900Y17066687D01*
X57842596Y17384523D01*
X57780289Y17697760D01*
X57687580Y18003381D01*
X57565361Y18298444D01*
X57414809Y18580106D01*
X57237375Y18845656D01*
X57034766Y19092535D01*
X56808935Y19318366D01*
X56562056Y19520975D01*
X56296506Y19698409D01*
X56296505Y19698410D01*
X56296500Y19698413D01*
X56014842Y19848962D01*
X55719792Y19971176D01*
X55719793Y19971176D01*
X55719784Y19971179D01*
X55719781Y19971180D01*
X55553958Y20021482D01*
X55414161Y20063889D01*
X55414145Y20063893D01*
X55100914Y20126198D01*
X55100916Y20126198D01*
X54856543Y20150266D01*
X54783087Y20157500D01*
X54463713Y20157500D01*
X54390256Y20150266D01*
X54145884Y20126198D01*
X53832654Y20063893D01*
X53832638Y20063889D01*
X53640794Y20005694D01*
X53527019Y19971180D01*
X53527015Y19971179D01*
X53527007Y19971176D01*
X53231957Y19848962D01*
X52950300Y19698413D01*
X52950299Y19698413D01*
X52684743Y19520975D01*
X52437870Y19318371D01*
X52437863Y19318365D01*
X52212035Y19092537D01*
X52212029Y19092530D01*
X52009425Y18845657D01*
X51831987Y18580101D01*
X51831987Y18580100D01*
X51681438Y18298443D01*
X51559224Y18003393D01*
X51466511Y17697762D01*
X51466507Y17697746D01*
X51404202Y17384516D01*
X51384266Y17182093D01*
X51373414Y17071898D01*
X51372900Y17066684D01*
X45373900Y17066684D01*
X45373900Y17066687D01*
X45342596Y17384523D01*
X45280289Y17697760D01*
X45187580Y18003381D01*
X45065361Y18298444D01*
X44914809Y18580106D01*
X44737375Y18845656D01*
X44534766Y19092535D01*
X44308935Y19318366D01*
X44062056Y19520975D01*
X43796506Y19698409D01*
X43796505Y19698410D01*
X43796500Y19698413D01*
X43514842Y19848962D01*
X43219792Y19971176D01*
X43219793Y19971176D01*
X43219784Y19971179D01*
X43219781Y19971180D01*
X43053958Y20021482D01*
X42914161Y20063889D01*
X42914145Y20063893D01*
X42600914Y20126198D01*
X42600916Y20126198D01*
X42356543Y20150266D01*
X42283087Y20157500D01*
X41963713Y20157500D01*
X41890256Y20150266D01*
X41645884Y20126198D01*
X41332654Y20063893D01*
X41332638Y20063889D01*
X41140794Y20005694D01*
X41027019Y19971180D01*
X41027015Y19971179D01*
X41027007Y19971176D01*
X40731957Y19848962D01*
X40450300Y19698413D01*
X40450299Y19698413D01*
X40184743Y19520975D01*
X39937870Y19318371D01*
X39937863Y19318365D01*
X39712035Y19092537D01*
X39712029Y19092530D01*
X39509425Y18845657D01*
X39331987Y18580101D01*
X39331987Y18580100D01*
X39181438Y18298443D01*
X39059224Y18003393D01*
X38966511Y17697762D01*
X38966507Y17697746D01*
X38904202Y17384516D01*
X38884266Y17182093D01*
X38873414Y17071898D01*
X38872900Y17066684D01*
X20327485Y17066684D01*
X20324977Y17071892D01*
X20324975Y17071895D01*
X20324973Y17071898D01*
X20237095Y17182093D01*
X20237092Y17182096D01*
X20126897Y17269974D01*
X20126892Y17269977D01*
X19999897Y17331135D01*
X19862477Y17362500D01*
X19802562Y17362500D01*
X12000285Y17362500D01*
X11992000Y17362500D01*
X11921523Y17362500D01*
X11784103Y17331135D01*
X11713421Y17297096D01*
X11657107Y17269977D01*
X11657102Y17269974D01*
X11546907Y17182096D01*
X11546904Y17182093D01*
X11459026Y17071898D01*
X11459023Y17071893D01*
X11459023Y17071892D01*
X11397865Y16944897D01*
X11366500Y16807477D01*
X152500Y16807477D01*
X152500Y21734614D01*
X170806Y21778808D01*
X215000Y21797114D01*
X242949Y21790517D01*
X2111895Y20856043D01*
X2116438Y20851500D01*
X2120981Y20851500D01*
X2125043Y20849469D01*
X2125045Y20849470D01*
X2127631Y20849286D01*
X2135170Y20850510D01*
X2137562Y20851500D01*
X2140775Y20854714D01*
X2145084Y20856149D01*
X2147957Y20861895D01*
X2152500Y20866438D01*
X2152500Y20870981D01*
X2154531Y20875043D01*
X2152500Y20881137D01*
X2152500Y30362722D01*
X2154714Y30376369D01*
X2154530Y30378955D01*
X2154531Y30378957D01*
X2154529Y30378960D01*
X2154212Y30383429D01*
X2152500Y30387562D01*
X2147957Y30392105D01*
X2145084Y30397851D01*
X2140774Y30399288D01*
X2137562Y30402500D01*
X2131136Y30402500D01*
X2125043Y30404531D01*
X2120981Y30402500D01*
X2116438Y30402500D01*
X2116437Y30402500D01*
X2114044Y30401509D01*
X2102825Y30393423D01*
X242951Y29463486D01*
X195236Y29460095D01*
X159098Y29491437D01*
X152500Y29519388D01*
X152500Y32125370D01*
X152586Y32128641D01*
X168623Y32434642D01*
X169306Y32441148D01*
X216991Y32742223D01*
X218345Y32748588D01*
X297237Y33043018D01*
X299248Y33049209D01*
X408488Y33333788D01*
X411147Y33339759D01*
X549529Y33611348D01*
X552779Y33616979D01*
X718802Y33872632D01*
X722625Y33877895D01*
X914468Y34114801D01*
X918827Y34119641D01*
X1134359Y34335173D01*
X1139199Y34339532D01*
X1376105Y34531375D01*
X1381368Y34535198D01*
X1637021Y34701221D01*
X1642652Y34704471D01*
X1914246Y34842856D01*
X1920212Y34845512D01*
X2204791Y34954752D01*
X2210982Y34956763D01*
X2505412Y35035655D01*
X2511777Y35037009D01*
X2812856Y35084695D01*
X2819354Y35085377D01*
X3125359Y35101415D01*
X3128630Y35101500D01*
X3135285Y35101500D01*
X130118715Y35101500D01*
X130125370Y35101500D01*
X130128640Y35101415D01*
G37*
%TD.AperFunction*%
%TD*%
M02*
