%TF.GenerationSoftware,KiCad,Pcbnew,10.0.4*%
%TF.CreationDate,2026-07-31T12:25:01+01:00*%
%TF.ProjectId,harp timestamp generator Gen3 rear panel,68617270-2074-4696-9d65-7374616d7020,rev?*%
%TF.SameCoordinates,PX4e14cb4PY74f31c8*%
%TF.FileFunction,Copper,L2,Bot*%
%TF.FilePolarity,Positive*%
%FSLAX46Y46*%
G04 Gerber Fmt 4.6, Leading zero omitted, Abs format (unit mm)*
G04 Created by KiCad (PCBNEW 10.0.4) date 2026-07-31 12:25:01*
%MOMM*%
%LPD*%
G01*
G04 APERTURE LIST*
%TA.AperFunction,ViaPad*%
%ADD10C,4.316000*%
%TD*%
G04 APERTURE END LIST*
D10*
%TO.N,GND*%
X6048000Y5797000D03*
X6048000Y30787000D03*
X127048000Y30787000D03*
X127048000Y5797000D03*
%TD*%
%TA.AperFunction,Conductor*%
%TO.N,GND*%
G36*
X130128640Y35101415D02*
G01*
X130434643Y35085377D01*
X130441145Y35084695D01*
X130742218Y35037010D01*
X130748591Y35035654D01*
X131043011Y34956764D01*
X131049213Y34954750D01*
X131296623Y34859778D01*
X131333782Y34845514D01*
X131339758Y34842853D01*
X131397262Y34813553D01*
X131611338Y34704476D01*
X131616986Y34701215D01*
X131872622Y34535204D01*
X131877903Y34531368D01*
X131939508Y34481481D01*
X132114789Y34339541D01*
X132119650Y34335163D01*
X132335162Y34119651D01*
X132339540Y34114790D01*
X132531362Y33877910D01*
X132535207Y33872617D01*
X132701209Y33616996D01*
X132704480Y33611330D01*
X132842852Y33339759D01*
X132845513Y33333783D01*
X132954745Y33049224D01*
X132956766Y33043002D01*
X133035650Y32748605D01*
X133037011Y32742206D01*
X133084693Y32441148D01*
X133085376Y32434642D01*
X133101414Y32128641D01*
X133101500Y32125370D01*
X133101500Y29519388D01*
X133083194Y29475194D01*
X133039000Y29456888D01*
X133011049Y29463486D01*
X131151176Y30393422D01*
X131142104Y30397958D01*
X131137562Y30402500D01*
X131133019Y30402500D01*
X131128957Y30404531D01*
X131126368Y30404715D01*
X131118832Y30403492D01*
X131116438Y30402501D01*
X131113225Y30399288D01*
X131108916Y30397851D01*
X131106044Y30392107D01*
X131101500Y30387563D01*
X131101500Y30387562D01*
X131101500Y30383019D01*
X131099469Y30378957D01*
X131101500Y30372864D01*
X131101500Y20891278D01*
X131099285Y20877630D01*
X131099787Y20870572D01*
X131102490Y20864045D01*
X131106958Y20857847D01*
X131112301Y20853214D01*
X131116437Y20851500D01*
X131116438Y20851500D01*
X131122864Y20851500D01*
X131128957Y20849469D01*
X131133019Y20851500D01*
X131137562Y20851500D01*
X131137563Y20851500D01*
X131139953Y20852491D01*
X131151170Y20860576D01*
X133011050Y21790517D01*
X133058764Y21793907D01*
X133094902Y21762565D01*
X133101500Y21734614D01*
X133101500Y13769388D01*
X133083194Y13725194D01*
X133039000Y13706888D01*
X133011049Y13713486D01*
X131151176Y14643422D01*
X131142104Y14647958D01*
X131137562Y14652500D01*
X131133019Y14652500D01*
X131128957Y14654531D01*
X131126368Y14654715D01*
X131118832Y14653492D01*
X131116438Y14652501D01*
X131113225Y14649288D01*
X131108916Y14647851D01*
X131106044Y14642107D01*
X131101500Y14637563D01*
X131101500Y14637562D01*
X131101500Y14633019D01*
X131099469Y14628957D01*
X131101500Y14622864D01*
X131101500Y5141278D01*
X131099285Y5127630D01*
X131099787Y5120572D01*
X131102490Y5114045D01*
X131106958Y5107847D01*
X131112301Y5103214D01*
X131116437Y5101500D01*
X131116438Y5101500D01*
X131122864Y5101500D01*
X131128957Y5099469D01*
X131133019Y5101500D01*
X131137562Y5101500D01*
X131137563Y5101500D01*
X131139953Y5102491D01*
X131151170Y5110576D01*
X133011050Y6040517D01*
X133058764Y6043907D01*
X133094902Y6012565D01*
X133101500Y5984614D01*
X133101500Y3128631D01*
X133101414Y3125360D01*
X133085376Y2819359D01*
X133084693Y2812853D01*
X133037011Y2511795D01*
X133035650Y2505396D01*
X132956766Y2210999D01*
X132954745Y2204777D01*
X132845513Y1920218D01*
X132842852Y1914242D01*
X132704480Y1642671D01*
X132701209Y1637005D01*
X132535207Y1381384D01*
X132531362Y1376091D01*
X132339540Y1139211D01*
X132335162Y1134350D01*
X132119650Y918838D01*
X132114789Y914460D01*
X131877909Y722638D01*
X131872616Y718793D01*
X131616995Y552791D01*
X131611329Y549520D01*
X131339758Y411148D01*
X131333782Y408487D01*
X131049223Y299255D01*
X131043001Y297234D01*
X130748604Y218350D01*
X130742205Y216989D01*
X130441147Y169307D01*
X130434641Y168624D01*
X130128641Y152586D01*
X130125370Y152500D01*
X3128630Y152500D01*
X3125359Y152586D01*
X2819358Y168624D01*
X2812852Y169307D01*
X2511794Y216989D01*
X2505395Y218350D01*
X2210998Y297234D01*
X2204776Y299255D01*
X1920217Y408487D01*
X1914241Y411148D01*
X1642670Y549520D01*
X1637004Y552791D01*
X1381383Y718793D01*
X1376090Y722638D01*
X1139210Y914460D01*
X1134349Y918838D01*
X918837Y1134350D01*
X914459Y1139211D01*
X722632Y1376097D01*
X718792Y1381384D01*
X552785Y1637014D01*
X549524Y1642662D01*
X411147Y1914242D01*
X408486Y1920218D01*
X394222Y1957377D01*
X299250Y2204787D01*
X297236Y2210989D01*
X218346Y2505409D01*
X216990Y2511782D01*
X169305Y2812855D01*
X168623Y2819359D01*
X152586Y3125360D01*
X152500Y3128631D01*
X152500Y5984614D01*
X170806Y6028808D01*
X215000Y6047114D01*
X242949Y6040517D01*
X2111895Y5106043D01*
X2116438Y5101500D01*
X2120981Y5101500D01*
X2125043Y5099469D01*
X2125045Y5099470D01*
X2127631Y5099286D01*
X2135170Y5100510D01*
X2137562Y5101500D01*
X2140775Y5104714D01*
X2145084Y5106149D01*
X2147957Y5111895D01*
X2152500Y5116438D01*
X2152500Y5120981D01*
X2154531Y5125043D01*
X2152500Y5131137D01*
X2152500Y14612722D01*
X2154714Y14626369D01*
X2154530Y14628955D01*
X2154531Y14628957D01*
X2154529Y14628960D01*
X2154212Y14633429D01*
X2152500Y14637562D01*
X2147957Y14642105D01*
X2145084Y14647851D01*
X2140774Y14649288D01*
X2137562Y14652500D01*
X2131136Y14652500D01*
X2125043Y14654531D01*
X2120981Y14652500D01*
X2116438Y14652500D01*
X2116437Y14652500D01*
X2114044Y14651509D01*
X2102825Y14643423D01*
X242951Y13713486D01*
X195236Y13710095D01*
X159098Y13741437D01*
X152500Y13769388D01*
X152500Y16977427D01*
X11143293Y16977427D01*
X11143293Y16898269D01*
X11143293Y15345992D01*
X11143293Y15337707D01*
X11143293Y15247987D01*
X11174452Y15071274D01*
X11235824Y14902656D01*
X11235825Y14902654D01*
X11235827Y14902649D01*
X11325543Y14747259D01*
X11325544Y14747257D01*
X11440884Y14609799D01*
X11556225Y14513018D01*
X11578343Y14494458D01*
X11653345Y14451156D01*
X11733734Y14404742D01*
X11733737Y14404741D01*
X11733742Y14404738D01*
X11902360Y14343366D01*
X12079073Y14312207D01*
X12079078Y14312207D01*
X19808507Y14312207D01*
X19808513Y14312207D01*
X19985226Y14343366D01*
X20153844Y14404738D01*
X20309243Y14494458D01*
X20446701Y14609799D01*
X20562042Y14747257D01*
X20651762Y14902656D01*
X20713134Y15071274D01*
X20744293Y15247987D01*
X20744293Y15337707D01*
X20744293Y15345992D01*
X20744293Y16898269D01*
X20744293Y16977427D01*
X20713134Y17154140D01*
X20651762Y17322758D01*
X20651759Y17322763D01*
X20651758Y17322766D01*
X20629934Y17360566D01*
X20629932Y17360569D01*
X20612774Y17390287D01*
X38855400Y17390287D01*
X38855400Y17070913D01*
X38863078Y16992953D01*
X38886702Y16753085D01*
X38949007Y16439855D01*
X38949011Y16439840D01*
X39041720Y16134219D01*
X39041722Y16134214D01*
X39041724Y16134208D01*
X39163938Y15839158D01*
X39314487Y15557501D01*
X39314487Y15557500D01*
X39314490Y15557495D01*
X39314491Y15557494D01*
X39491925Y15291944D01*
X39694534Y15045065D01*
X39920365Y14819234D01*
X40167244Y14616625D01*
X40432794Y14439191D01*
X40432796Y14439190D01*
X40432799Y14439188D01*
X40497243Y14404742D01*
X40714456Y14288639D01*
X41009507Y14166425D01*
X41009506Y14166425D01*
X41009509Y14166424D01*
X41009519Y14166420D01*
X41315140Y14073711D01*
X41315149Y14073710D01*
X41315154Y14073708D01*
X41398737Y14057083D01*
X41628377Y14011404D01*
X41628382Y14011404D01*
X41628385Y14011403D01*
X41628383Y14011403D01*
X41790286Y13995458D01*
X41946213Y13980100D01*
X41946217Y13980100D01*
X42265583Y13980100D01*
X42265587Y13980100D01*
X42472195Y14000450D01*
X42583415Y14011403D01*
X42583417Y14011404D01*
X42583423Y14011404D01*
X42896660Y14073711D01*
X43202281Y14166420D01*
X43497344Y14288639D01*
X43779006Y14439191D01*
X44044556Y14616625D01*
X44291435Y14819234D01*
X44517266Y15045065D01*
X44719875Y15291944D01*
X44897309Y15557494D01*
X45047861Y15839156D01*
X45170080Y16134219D01*
X45262789Y16439840D01*
X45325096Y16753077D01*
X45356400Y17070913D01*
X45356400Y17390287D01*
X51355400Y17390287D01*
X51355400Y17070913D01*
X51363078Y16992953D01*
X51386702Y16753085D01*
X51449007Y16439855D01*
X51449011Y16439840D01*
X51541720Y16134219D01*
X51541722Y16134214D01*
X51541724Y16134208D01*
X51663938Y15839158D01*
X51814487Y15557501D01*
X51814487Y15557500D01*
X51814490Y15557495D01*
X51814491Y15557494D01*
X51991925Y15291944D01*
X52194534Y15045065D01*
X52420365Y14819234D01*
X52667244Y14616625D01*
X52932794Y14439191D01*
X52932796Y14439190D01*
X52932799Y14439188D01*
X52997243Y14404742D01*
X53214456Y14288639D01*
X53509507Y14166425D01*
X53509506Y14166425D01*
X53509509Y14166424D01*
X53509519Y14166420D01*
X53815140Y14073711D01*
X53815149Y14073710D01*
X53815154Y14073708D01*
X53898737Y14057083D01*
X54128377Y14011404D01*
X54128382Y14011404D01*
X54128385Y14011403D01*
X54128383Y14011403D01*
X54290286Y13995458D01*
X54446213Y13980100D01*
X54446217Y13980100D01*
X54765583Y13980100D01*
X54765587Y13980100D01*
X54972195Y14000450D01*
X55083415Y14011403D01*
X55083417Y14011404D01*
X55083423Y14011404D01*
X55396660Y14073711D01*
X55702281Y14166420D01*
X55997344Y14288639D01*
X56279006Y14439191D01*
X56544556Y14616625D01*
X56791435Y14819234D01*
X57017266Y15045065D01*
X57219875Y15291944D01*
X57397309Y15557494D01*
X57547861Y15839156D01*
X57670080Y16134219D01*
X57762789Y16439840D01*
X57825096Y16753077D01*
X57856400Y17070913D01*
X57856400Y17390287D01*
X63855400Y17390287D01*
X63855400Y17070913D01*
X63863078Y16992953D01*
X63886702Y16753085D01*
X63949007Y16439855D01*
X63949011Y16439840D01*
X64041720Y16134219D01*
X64041722Y16134214D01*
X64041724Y16134208D01*
X64163938Y15839158D01*
X64314487Y15557501D01*
X64314487Y15557500D01*
X64314490Y15557495D01*
X64314491Y15557494D01*
X64491925Y15291944D01*
X64694534Y15045065D01*
X64920365Y14819234D01*
X65167244Y14616625D01*
X65432794Y14439191D01*
X65432796Y14439190D01*
X65432799Y14439188D01*
X65497243Y14404742D01*
X65714456Y14288639D01*
X66009507Y14166425D01*
X66009506Y14166425D01*
X66009509Y14166424D01*
X66009519Y14166420D01*
X66315140Y14073711D01*
X66315149Y14073710D01*
X66315154Y14073708D01*
X66398737Y14057083D01*
X66628377Y14011404D01*
X66628382Y14011404D01*
X66628385Y14011403D01*
X66628383Y14011403D01*
X66790286Y13995458D01*
X66946213Y13980100D01*
X66946217Y13980100D01*
X67265583Y13980100D01*
X67265587Y13980100D01*
X67472195Y14000450D01*
X67583415Y14011403D01*
X67583417Y14011404D01*
X67583423Y14011404D01*
X67896660Y14073711D01*
X68202281Y14166420D01*
X68497344Y14288639D01*
X68779006Y14439191D01*
X69044556Y14616625D01*
X69291435Y14819234D01*
X69517266Y15045065D01*
X69719875Y15291944D01*
X69897309Y15557494D01*
X70047861Y15839156D01*
X70170080Y16134219D01*
X70262789Y16439840D01*
X70325096Y16753077D01*
X70356400Y17070913D01*
X70356400Y17390287D01*
X76355400Y17390287D01*
X76355400Y17070913D01*
X76363078Y16992953D01*
X76386702Y16753085D01*
X76449007Y16439855D01*
X76449011Y16439840D01*
X76541720Y16134219D01*
X76541722Y16134214D01*
X76541724Y16134208D01*
X76663938Y15839158D01*
X76814487Y15557501D01*
X76814487Y15557500D01*
X76814490Y15557495D01*
X76814491Y15557494D01*
X76991925Y15291944D01*
X77194534Y15045065D01*
X77420365Y14819234D01*
X77667244Y14616625D01*
X77932794Y14439191D01*
X77932796Y14439190D01*
X77932799Y14439188D01*
X77997243Y14404742D01*
X78214456Y14288639D01*
X78509507Y14166425D01*
X78509506Y14166425D01*
X78509509Y14166424D01*
X78509519Y14166420D01*
X78815140Y14073711D01*
X78815149Y14073710D01*
X78815154Y14073708D01*
X78898737Y14057083D01*
X79128377Y14011404D01*
X79128382Y14011404D01*
X79128385Y14011403D01*
X79128383Y14011403D01*
X79290286Y13995458D01*
X79446213Y13980100D01*
X79446217Y13980100D01*
X79765583Y13980100D01*
X79765587Y13980100D01*
X79972195Y14000450D01*
X80083415Y14011403D01*
X80083417Y14011404D01*
X80083423Y14011404D01*
X80396660Y14073711D01*
X80702281Y14166420D01*
X80997344Y14288639D01*
X81279006Y14439191D01*
X81544556Y14616625D01*
X81791435Y14819234D01*
X82017266Y15045065D01*
X82219875Y15291944D01*
X82397309Y15557494D01*
X82547861Y15839156D01*
X82670080Y16134219D01*
X82762789Y16439840D01*
X82825096Y16753077D01*
X82856400Y17070913D01*
X82856400Y17390287D01*
X88855400Y17390287D01*
X88855400Y17070913D01*
X88863078Y16992953D01*
X88886702Y16753085D01*
X88949007Y16439855D01*
X88949011Y16439840D01*
X89041720Y16134219D01*
X89041722Y16134214D01*
X89041724Y16134208D01*
X89163938Y15839158D01*
X89314487Y15557501D01*
X89314487Y15557500D01*
X89314490Y15557495D01*
X89314491Y15557494D01*
X89491925Y15291944D01*
X89694534Y15045065D01*
X89920365Y14819234D01*
X90167244Y14616625D01*
X90432794Y14439191D01*
X90432796Y14439190D01*
X90432799Y14439188D01*
X90497243Y14404742D01*
X90714456Y14288639D01*
X91009507Y14166425D01*
X91009506Y14166425D01*
X91009509Y14166424D01*
X91009519Y14166420D01*
X91315140Y14073711D01*
X91315149Y14073710D01*
X91315154Y14073708D01*
X91398737Y14057083D01*
X91628377Y14011404D01*
X91628382Y14011404D01*
X91628385Y14011403D01*
X91628383Y14011403D01*
X91790286Y13995458D01*
X91946213Y13980100D01*
X91946217Y13980100D01*
X92265583Y13980100D01*
X92265587Y13980100D01*
X92472195Y14000450D01*
X92583415Y14011403D01*
X92583417Y14011404D01*
X92583423Y14011404D01*
X92896660Y14073711D01*
X93202281Y14166420D01*
X93497344Y14288639D01*
X93779006Y14439191D01*
X94044556Y14616625D01*
X94291435Y14819234D01*
X94517266Y15045065D01*
X94719875Y15291944D01*
X94897309Y15557494D01*
X95047861Y15839156D01*
X95170080Y16134219D01*
X95262789Y16439840D01*
X95325096Y16753077D01*
X95356400Y17070913D01*
X95356400Y17390287D01*
X101355400Y17390287D01*
X101355400Y17070913D01*
X101363078Y16992953D01*
X101386702Y16753085D01*
X101449007Y16439855D01*
X101449011Y16439840D01*
X101541720Y16134219D01*
X101541722Y16134214D01*
X101541724Y16134208D01*
X101663938Y15839158D01*
X101814487Y15557501D01*
X101814487Y15557500D01*
X101814490Y15557495D01*
X101814491Y15557494D01*
X101991925Y15291944D01*
X102194534Y15045065D01*
X102420365Y14819234D01*
X102667244Y14616625D01*
X102932794Y14439191D01*
X102932796Y14439190D01*
X102932799Y14439188D01*
X102997243Y14404742D01*
X103214456Y14288639D01*
X103509507Y14166425D01*
X103509506Y14166425D01*
X103509509Y14166424D01*
X103509519Y14166420D01*
X103815140Y14073711D01*
X103815149Y14073710D01*
X103815154Y14073708D01*
X103898737Y14057083D01*
X104128377Y14011404D01*
X104128382Y14011404D01*
X104128385Y14011403D01*
X104128383Y14011403D01*
X104290286Y13995458D01*
X104446213Y13980100D01*
X104446217Y13980100D01*
X104765583Y13980100D01*
X104765587Y13980100D01*
X104972195Y14000450D01*
X105083415Y14011403D01*
X105083417Y14011404D01*
X105083423Y14011404D01*
X105396660Y14073711D01*
X105702281Y14166420D01*
X105997344Y14288639D01*
X106279006Y14439191D01*
X106544556Y14616625D01*
X106791435Y14819234D01*
X107017266Y15045065D01*
X107219875Y15291944D01*
X107397309Y15557494D01*
X107547861Y15839156D01*
X107670080Y16134219D01*
X107762789Y16439840D01*
X107825096Y16753077D01*
X107856400Y17070913D01*
X107856400Y17390287D01*
X113855400Y17390287D01*
X113855400Y17070913D01*
X113863078Y16992953D01*
X113886702Y16753085D01*
X113949007Y16439855D01*
X113949011Y16439840D01*
X114041720Y16134219D01*
X114041722Y16134214D01*
X114041724Y16134208D01*
X114163938Y15839158D01*
X114314487Y15557501D01*
X114314487Y15557500D01*
X114314490Y15557495D01*
X114314491Y15557494D01*
X114491925Y15291944D01*
X114694534Y15045065D01*
X114920365Y14819234D01*
X115167244Y14616625D01*
X115432794Y14439191D01*
X115432796Y14439190D01*
X115432799Y14439188D01*
X115497243Y14404742D01*
X115714456Y14288639D01*
X116009507Y14166425D01*
X116009506Y14166425D01*
X116009509Y14166424D01*
X116009519Y14166420D01*
X116315140Y14073711D01*
X116315149Y14073710D01*
X116315154Y14073708D01*
X116398737Y14057083D01*
X116628377Y14011404D01*
X116628382Y14011404D01*
X116628385Y14011403D01*
X116628383Y14011403D01*
X116790286Y13995458D01*
X116946213Y13980100D01*
X116946217Y13980100D01*
X117265583Y13980100D01*
X117265587Y13980100D01*
X117472195Y14000450D01*
X117583415Y14011403D01*
X117583417Y14011404D01*
X117583423Y14011404D01*
X117896660Y14073711D01*
X118202281Y14166420D01*
X118497344Y14288639D01*
X118779006Y14439191D01*
X119044556Y14616625D01*
X119291435Y14819234D01*
X119517266Y15045065D01*
X119719875Y15291944D01*
X119897309Y15557494D01*
X120047861Y15839156D01*
X120170080Y16134219D01*
X120262789Y16439840D01*
X120325096Y16753077D01*
X120356400Y17070913D01*
X120356400Y17390287D01*
X120325096Y17708123D01*
X120262789Y18021360D01*
X120170080Y18326981D01*
X120047861Y18622044D01*
X119897309Y18903706D01*
X119719875Y19169256D01*
X119517266Y19416135D01*
X119291435Y19641966D01*
X119044556Y19844575D01*
X118779006Y20022009D01*
X118779005Y20022010D01*
X118779000Y20022013D01*
X118497342Y20172562D01*
X118202292Y20294776D01*
X118202293Y20294776D01*
X118202284Y20294779D01*
X118202281Y20294780D01*
X118036458Y20345082D01*
X117896661Y20387489D01*
X117896645Y20387493D01*
X117583414Y20449798D01*
X117583416Y20449798D01*
X117339043Y20473866D01*
X117265587Y20481100D01*
X116946213Y20481100D01*
X116872756Y20473866D01*
X116628384Y20449798D01*
X116315154Y20387493D01*
X116315138Y20387489D01*
X116123294Y20329294D01*
X116009519Y20294780D01*
X116009515Y20294779D01*
X116009507Y20294776D01*
X115714457Y20172562D01*
X115432800Y20022013D01*
X115432799Y20022013D01*
X115167243Y19844575D01*
X114920370Y19641971D01*
X114920363Y19641965D01*
X114694535Y19416137D01*
X114694529Y19416130D01*
X114491925Y19169257D01*
X114314487Y18903701D01*
X114314487Y18903700D01*
X114163938Y18622043D01*
X114041724Y18326993D01*
X113949011Y18021362D01*
X113949007Y18021346D01*
X113886702Y17708116D01*
X113864054Y17478157D01*
X113855400Y17390287D01*
X107856400Y17390287D01*
X107825096Y17708123D01*
X107762789Y18021360D01*
X107670080Y18326981D01*
X107547861Y18622044D01*
X107397309Y18903706D01*
X107219875Y19169256D01*
X107017266Y19416135D01*
X106791435Y19641966D01*
X106544556Y19844575D01*
X106279006Y20022009D01*
X106279005Y20022010D01*
X106279000Y20022013D01*
X105997342Y20172562D01*
X105702292Y20294776D01*
X105702293Y20294776D01*
X105702284Y20294779D01*
X105702281Y20294780D01*
X105536458Y20345082D01*
X105396661Y20387489D01*
X105396645Y20387493D01*
X105083414Y20449798D01*
X105083416Y20449798D01*
X104839043Y20473866D01*
X104765587Y20481100D01*
X104446213Y20481100D01*
X104372756Y20473866D01*
X104128384Y20449798D01*
X103815154Y20387493D01*
X103815138Y20387489D01*
X103623294Y20329294D01*
X103509519Y20294780D01*
X103509515Y20294779D01*
X103509507Y20294776D01*
X103214457Y20172562D01*
X102932800Y20022013D01*
X102932799Y20022013D01*
X102667243Y19844575D01*
X102420370Y19641971D01*
X102420363Y19641965D01*
X102194535Y19416137D01*
X102194529Y19416130D01*
X101991925Y19169257D01*
X101814487Y18903701D01*
X101814487Y18903700D01*
X101663938Y18622043D01*
X101541724Y18326993D01*
X101449011Y18021362D01*
X101449007Y18021346D01*
X101386702Y17708116D01*
X101364054Y17478157D01*
X101355400Y17390287D01*
X95356400Y17390287D01*
X95325096Y17708123D01*
X95262789Y18021360D01*
X95170080Y18326981D01*
X95047861Y18622044D01*
X94897309Y18903706D01*
X94719875Y19169256D01*
X94517266Y19416135D01*
X94291435Y19641966D01*
X94044556Y19844575D01*
X93779006Y20022009D01*
X93779005Y20022010D01*
X93779000Y20022013D01*
X93497342Y20172562D01*
X93202292Y20294776D01*
X93202293Y20294776D01*
X93202284Y20294779D01*
X93202281Y20294780D01*
X93036458Y20345082D01*
X92896661Y20387489D01*
X92896645Y20387493D01*
X92583414Y20449798D01*
X92583416Y20449798D01*
X92339043Y20473866D01*
X92265587Y20481100D01*
X91946213Y20481100D01*
X91872756Y20473866D01*
X91628384Y20449798D01*
X91315154Y20387493D01*
X91315138Y20387489D01*
X91123294Y20329294D01*
X91009519Y20294780D01*
X91009515Y20294779D01*
X91009507Y20294776D01*
X90714457Y20172562D01*
X90432800Y20022013D01*
X90432799Y20022013D01*
X90167243Y19844575D01*
X89920370Y19641971D01*
X89920363Y19641965D01*
X89694535Y19416137D01*
X89694529Y19416130D01*
X89491925Y19169257D01*
X89314487Y18903701D01*
X89314487Y18903700D01*
X89163938Y18622043D01*
X89041724Y18326993D01*
X88949011Y18021362D01*
X88949007Y18021346D01*
X88886702Y17708116D01*
X88864054Y17478157D01*
X88855400Y17390287D01*
X82856400Y17390287D01*
X82825096Y17708123D01*
X82762789Y18021360D01*
X82670080Y18326981D01*
X82547861Y18622044D01*
X82397309Y18903706D01*
X82219875Y19169256D01*
X82017266Y19416135D01*
X81791435Y19641966D01*
X81544556Y19844575D01*
X81279006Y20022009D01*
X81279005Y20022010D01*
X81279000Y20022013D01*
X80997342Y20172562D01*
X80702292Y20294776D01*
X80702293Y20294776D01*
X80702284Y20294779D01*
X80702281Y20294780D01*
X80536458Y20345082D01*
X80396661Y20387489D01*
X80396645Y20387493D01*
X80083414Y20449798D01*
X80083416Y20449798D01*
X79839043Y20473866D01*
X79765587Y20481100D01*
X79446213Y20481100D01*
X79372756Y20473866D01*
X79128384Y20449798D01*
X78815154Y20387493D01*
X78815138Y20387489D01*
X78623294Y20329294D01*
X78509519Y20294780D01*
X78509515Y20294779D01*
X78509507Y20294776D01*
X78214457Y20172562D01*
X77932800Y20022013D01*
X77932799Y20022013D01*
X77667243Y19844575D01*
X77420370Y19641971D01*
X77420363Y19641965D01*
X77194535Y19416137D01*
X77194529Y19416130D01*
X76991925Y19169257D01*
X76814487Y18903701D01*
X76814487Y18903700D01*
X76663938Y18622043D01*
X76541724Y18326993D01*
X76449011Y18021362D01*
X76449007Y18021346D01*
X76386702Y17708116D01*
X76364054Y17478157D01*
X76355400Y17390287D01*
X70356400Y17390287D01*
X70325096Y17708123D01*
X70262789Y18021360D01*
X70170080Y18326981D01*
X70047861Y18622044D01*
X69897309Y18903706D01*
X69719875Y19169256D01*
X69517266Y19416135D01*
X69291435Y19641966D01*
X69044556Y19844575D01*
X68779006Y20022009D01*
X68779005Y20022010D01*
X68779000Y20022013D01*
X68497342Y20172562D01*
X68202292Y20294776D01*
X68202293Y20294776D01*
X68202284Y20294779D01*
X68202281Y20294780D01*
X68036458Y20345082D01*
X67896661Y20387489D01*
X67896645Y20387493D01*
X67583414Y20449798D01*
X67583416Y20449798D01*
X67339043Y20473866D01*
X67265587Y20481100D01*
X66946213Y20481100D01*
X66872756Y20473866D01*
X66628384Y20449798D01*
X66315154Y20387493D01*
X66315138Y20387489D01*
X66123294Y20329294D01*
X66009519Y20294780D01*
X66009515Y20294779D01*
X66009507Y20294776D01*
X65714457Y20172562D01*
X65432800Y20022013D01*
X65432799Y20022013D01*
X65167243Y19844575D01*
X64920370Y19641971D01*
X64920363Y19641965D01*
X64694535Y19416137D01*
X64694529Y19416130D01*
X64491925Y19169257D01*
X64314487Y18903701D01*
X64314487Y18903700D01*
X64163938Y18622043D01*
X64041724Y18326993D01*
X63949011Y18021362D01*
X63949007Y18021346D01*
X63886702Y17708116D01*
X63864054Y17478157D01*
X63855400Y17390287D01*
X57856400Y17390287D01*
X57825096Y17708123D01*
X57762789Y18021360D01*
X57670080Y18326981D01*
X57547861Y18622044D01*
X57397309Y18903706D01*
X57219875Y19169256D01*
X57017266Y19416135D01*
X56791435Y19641966D01*
X56544556Y19844575D01*
X56279006Y20022009D01*
X56279005Y20022010D01*
X56279000Y20022013D01*
X55997342Y20172562D01*
X55702292Y20294776D01*
X55702293Y20294776D01*
X55702284Y20294779D01*
X55702281Y20294780D01*
X55536458Y20345082D01*
X55396661Y20387489D01*
X55396645Y20387493D01*
X55083414Y20449798D01*
X55083416Y20449798D01*
X54839043Y20473866D01*
X54765587Y20481100D01*
X54446213Y20481100D01*
X54372756Y20473866D01*
X54128384Y20449798D01*
X53815154Y20387493D01*
X53815138Y20387489D01*
X53623294Y20329294D01*
X53509519Y20294780D01*
X53509515Y20294779D01*
X53509507Y20294776D01*
X53214457Y20172562D01*
X52932800Y20022013D01*
X52932799Y20022013D01*
X52667243Y19844575D01*
X52420370Y19641971D01*
X52420363Y19641965D01*
X52194535Y19416137D01*
X52194529Y19416130D01*
X51991925Y19169257D01*
X51814487Y18903701D01*
X51814487Y18903700D01*
X51663938Y18622043D01*
X51541724Y18326993D01*
X51449011Y18021362D01*
X51449007Y18021346D01*
X51386702Y17708116D01*
X51364054Y17478157D01*
X51355400Y17390287D01*
X45356400Y17390287D01*
X45325096Y17708123D01*
X45262789Y18021360D01*
X45170080Y18326981D01*
X45047861Y18622044D01*
X44897309Y18903706D01*
X44719875Y19169256D01*
X44517266Y19416135D01*
X44291435Y19641966D01*
X44044556Y19844575D01*
X43779006Y20022009D01*
X43779005Y20022010D01*
X43779000Y20022013D01*
X43497342Y20172562D01*
X43202292Y20294776D01*
X43202293Y20294776D01*
X43202284Y20294779D01*
X43202281Y20294780D01*
X43036458Y20345082D01*
X42896661Y20387489D01*
X42896645Y20387493D01*
X42583414Y20449798D01*
X42583416Y20449798D01*
X42339043Y20473866D01*
X42265587Y20481100D01*
X41946213Y20481100D01*
X41872756Y20473866D01*
X41628384Y20449798D01*
X41315154Y20387493D01*
X41315138Y20387489D01*
X41123294Y20329294D01*
X41009519Y20294780D01*
X41009515Y20294779D01*
X41009507Y20294776D01*
X40714457Y20172562D01*
X40432800Y20022013D01*
X40432799Y20022013D01*
X40167243Y19844575D01*
X39920370Y19641971D01*
X39920363Y19641965D01*
X39694535Y19416137D01*
X39694529Y19416130D01*
X39491925Y19169257D01*
X39314487Y18903701D01*
X39314487Y18903700D01*
X39163938Y18622043D01*
X39041724Y18326993D01*
X38949011Y18021362D01*
X38949007Y18021346D01*
X38886702Y17708116D01*
X38864054Y17478157D01*
X38855400Y17390287D01*
X20612774Y17390287D01*
X20562042Y17478157D01*
X20531879Y17514104D01*
X20446701Y17615616D01*
X20309243Y17730956D01*
X20309241Y17730957D01*
X20308042Y17731649D01*
X20289143Y17742561D01*
X20153851Y17820673D01*
X20153846Y17820675D01*
X20153845Y17820676D01*
X20153844Y17820676D01*
X19985226Y17882048D01*
X19808513Y17913207D01*
X19729355Y17913207D01*
X12177078Y17913207D01*
X12168793Y17913207D01*
X12079073Y17913207D01*
X11902360Y17882048D01*
X11733739Y17820675D01*
X11733734Y17820673D01*
X11578344Y17730957D01*
X11578342Y17730956D01*
X11440884Y17615616D01*
X11325544Y17478158D01*
X11325543Y17478156D01*
X11235827Y17322766D01*
X11235825Y17322761D01*
X11235824Y17322758D01*
X11174452Y17154140D01*
X11143293Y16977427D01*
X152500Y16977427D01*
X152500Y21734614D01*
X170806Y21778808D01*
X215000Y21797114D01*
X242949Y21790517D01*
X2111895Y20856043D01*
X2116438Y20851500D01*
X2120981Y20851500D01*
X2125043Y20849469D01*
X2125045Y20849470D01*
X2127631Y20849286D01*
X2135170Y20850510D01*
X2137562Y20851500D01*
X2140775Y20854714D01*
X2145084Y20856149D01*
X2147957Y20861895D01*
X2152500Y20866438D01*
X2152500Y20870981D01*
X2154531Y20875043D01*
X2152500Y20881137D01*
X2152500Y30362722D01*
X2154714Y30376369D01*
X2154530Y30378955D01*
X2154531Y30378957D01*
X2154529Y30378960D01*
X2154212Y30383429D01*
X2152500Y30387562D01*
X2147957Y30392105D01*
X2145084Y30397851D01*
X2140774Y30399288D01*
X2137562Y30402500D01*
X2131136Y30402500D01*
X2125043Y30404531D01*
X2120981Y30402500D01*
X2116438Y30402500D01*
X2116437Y30402500D01*
X2114044Y30401509D01*
X2102825Y30393423D01*
X242951Y29463486D01*
X195236Y29460095D01*
X159098Y29491437D01*
X152500Y29519388D01*
X152500Y32125370D01*
X152586Y32128641D01*
X168623Y32434642D01*
X169306Y32441148D01*
X216991Y32742223D01*
X218345Y32748588D01*
X297237Y33043018D01*
X299248Y33049209D01*
X408488Y33333788D01*
X411147Y33339759D01*
X549529Y33611348D01*
X552779Y33616979D01*
X718802Y33872632D01*
X722625Y33877895D01*
X914468Y34114801D01*
X918827Y34119641D01*
X1134359Y34335173D01*
X1139199Y34339532D01*
X1376105Y34531375D01*
X1381368Y34535198D01*
X1637021Y34701221D01*
X1642652Y34704471D01*
X1914246Y34842856D01*
X1920212Y34845512D01*
X2204791Y34954752D01*
X2210982Y34956763D01*
X2505412Y35035655D01*
X2511777Y35037009D01*
X2812856Y35084695D01*
X2819354Y35085377D01*
X3125359Y35101415D01*
X3128630Y35101500D01*
X3135285Y35101500D01*
X130118715Y35101500D01*
X130125370Y35101500D01*
X130128640Y35101415D01*
G37*
%TD.AperFunction*%
%TD*%
M02*
