%TF.GenerationSoftware,KiCad,Pcbnew,10.0.4*%
%TF.CreationDate,2026-07-31T12:25:02+01:00*%
%TF.ProjectId,harp timestamp generator Gen3 rear panel,68617270-2074-4696-9d65-7374616d7020,rev?*%
%TF.SameCoordinates,PX4e14cb4PY74f31c8*%
%TF.FileFunction,Profile,NP*%
%FSLAX46Y46*%
G04 Gerber Fmt 4.6, Leading zero omitted, Abs format (unit mm)*
G04 Created by KiCad (PCBNEW 10.0.4) date 2026-07-31 12:25:02*
%MOMM*%
%LPD*%
G01*
G04 APERTURE LIST*
%TA.AperFunction,Profile*%
%ADD10C,0.050000*%
%TD*%
G04 APERTURE END LIST*
D10*
X127000Y32127000D02*
X127000Y29377000D01*
X127000Y32127000D02*
G75*
G02*
X3127000Y35127000I3000000J0D01*
G01*
X127000Y21877000D02*
X127000Y13627000D01*
X127000Y6127000D02*
X127000Y3127000D01*
X2127000Y30377000D02*
X127000Y29377000D01*
X2127000Y30377000D02*
X2127000Y20877000D01*
X2127000Y20877000D02*
X127000Y21877000D01*
X2127000Y14627000D02*
X127000Y13627000D01*
X2127000Y14627000D02*
X2127000Y5127000D01*
X2127000Y5127000D02*
X127000Y6127000D01*
X3127000Y35127000D02*
X130127000Y35127000D01*
X3127000Y127000D02*
G75*
G02*
X127000Y3127000I0J3000000D01*
G01*
X3127000Y127000D02*
X130127000Y127000D01*
X11168793Y16887707D02*
G75*
G02*
X12168793Y17887707I1000007J-7D01*
G01*
X11168793Y15337707D02*
X11168793Y16887707D01*
X12168793Y17887707D02*
X19718793Y17887707D01*
X12168793Y14337707D02*
G75*
G02*
X11168807Y15337707I7J999993D01*
G01*
X12168793Y14337707D02*
X19718793Y14337707D01*
X19718793Y17887707D02*
G75*
G02*
X20718807Y16887707I7J-1000007D01*
G01*
X20718793Y15337707D02*
G75*
G02*
X19718793Y14337707I-999993J-7D01*
G01*
X20718793Y15337707D02*
X20718793Y16887707D01*
X130127000Y35127000D02*
G75*
G02*
X133127000Y32127000I0J-3000000D01*
G01*
X131127000Y30377000D02*
X131127000Y20877000D01*
X131127000Y30377000D02*
X133127000Y29377000D01*
X131127000Y20877000D02*
X133127000Y21877000D01*
X131127000Y14627000D02*
X131127000Y5127000D01*
X131127000Y14627000D02*
X133127000Y13627000D01*
X131127000Y5127000D02*
X133127000Y6127000D01*
X133127000Y29377000D02*
X133127000Y32127000D01*
X133127000Y21877000D02*
X133127000Y13627000D01*
X133127000Y6127000D02*
X133127000Y3127000D01*
X133127000Y3127000D02*
G75*
G02*
X130127000Y127000I-3000000J0D01*
G01*
M02*
