%TF.GenerationSoftware,KiCad,Pcbnew,10.0.1*%
%TF.CreationDate,2026-06-18T14:47:45+01:00*%
%TF.ProjectId,harp timestamp generator Gen3 rear panel,68617270-2074-4696-9d65-7374616d7020,rev?*%
%TF.SameCoordinates,PX4e14cb4PY74f31c8*%
%TF.FileFunction,Profile,NP*%
%FSLAX46Y46*%
G04 Gerber Fmt 4.6, Leading zero omitted, Abs format (unit mm)*
G04 Created by KiCad (PCBNEW 10.0.1) date 2026-06-18 14:47:45*
%MOMM*%
%LPD*%
G01*
G04 APERTURE LIST*
%TA.AperFunction,Profile*%
%ADD10C,0.050000*%
%TD*%
%TA.AperFunction,Profile*%
%ADD11C,0.100000*%
%TD*%
G04 APERTURE END LIST*
D10*
X127000Y32127000D02*
X127000Y29377000D01*
X127000Y32127000D02*
G75*
G02*
X3127000Y35127000I3000000J0D01*
G01*
X127000Y21877000D02*
X127000Y13627000D01*
X127000Y6127000D02*
X127000Y3127000D01*
X2127000Y30377000D02*
X127000Y29377000D01*
X2127000Y30377000D02*
X2127000Y20877000D01*
X2127000Y20877000D02*
X127000Y21877000D01*
X2127000Y14627000D02*
X127000Y13627000D01*
X2127000Y14627000D02*
X2127000Y5127000D01*
X2127000Y5127000D02*
X127000Y6127000D01*
X3127000Y35127000D02*
X130127000Y35127000D01*
X3127000Y127000D02*
G75*
G02*
X127000Y3127000I0J3000000D01*
G01*
X3127000Y127000D02*
X130127000Y127000D01*
D11*
X11392000Y16737000D02*
X11392000Y16737000D01*
G75*
G02*
X11992000Y17337000I600000J0D01*
G01*
X19792000Y17337000D01*
G75*
G02*
X20392000Y16737000I0J-600000D01*
G01*
X20392000Y14937000D01*
G75*
G02*
X19792000Y14337000I-600000J0D01*
G01*
X11992000Y14337000D01*
G75*
G02*
X11392000Y14937000I0J600000D01*
G01*
X11392000Y16737000D01*
D10*
X130127000Y35127000D02*
G75*
G02*
X133127000Y32127000I0J-3000000D01*
G01*
X131127000Y30377000D02*
X131127000Y20877000D01*
X131127000Y30377000D02*
X133127000Y29377000D01*
X131127000Y20877000D02*
X133127000Y21877000D01*
X131127000Y14627000D02*
X131127000Y5127000D01*
X131127000Y14627000D02*
X133127000Y13627000D01*
X131127000Y5127000D02*
X133127000Y6127000D01*
X133127000Y29377000D02*
X133127000Y32127000D01*
X133127000Y21877000D02*
X133127000Y13627000D01*
X133127000Y6127000D02*
X133127000Y3127000D01*
X133127000Y3127000D02*
G75*
G02*
X130127000Y127000I-3000000J0D01*
G01*
M02*
