%TF.GenerationSoftware,KiCad,Pcbnew,10.0.3*%
%TF.CreationDate,2026-06-03T09:46:17+01:00*%
%TF.ProjectId,harp timestamp generator Gen3 front panel,68617270-2074-4696-9d65-7374616d7020,rev?*%
%TF.SameCoordinates,PX4e14cb4PY74f31c8*%
%TF.FileFunction,Legend,Top*%
%TF.FilePolarity,Positive*%
%FSLAX46Y46*%
G04 Gerber Fmt 4.6, Leading zero omitted, Abs format (unit mm)*
G04 Created by KiCad (PCBNEW 10.0.3) date 2026-06-03 09:46:17*
%MOMM*%
%LPD*%
G01*
G04 APERTURE LIST*
%ADD10C,0.254000*%
%ADD11C,0.152400*%
%ADD12C,0.190500*%
%ADD13C,0.256032*%
%ADD14C,0.320040*%
%ADD15C,0.342900*%
G04 APERTURE END LIST*
D10*
X49127000Y13127000D02*
X49127000Y1127000D01*
X88127000Y11127000D02*
X96127000Y11127000D01*
X96127000Y21127000D02*
X97127000Y21127000D01*
X96127000Y11127000D02*
X96127000Y21127000D01*
D11*
X98127000Y23127000D02*
X98627000Y23627000D01*
X98127000Y19627000D02*
X98127000Y23127000D01*
X98627000Y23627000D02*
X112877000Y23627000D01*
X98627000Y19127000D02*
X98127000Y19627000D01*
X112877000Y23627000D02*
X113377000Y23127000D01*
X112877000Y19127000D02*
X98627000Y19127000D01*
X113377000Y23127000D02*
X113377000Y19627000D01*
X113377000Y19627000D02*
X112877000Y19127000D01*
D12*
X12091463Y8773723D02*
X12091463Y9853223D01*
X12091463Y9853223D02*
X12502701Y9853223D01*
X12502701Y9853223D02*
X12605511Y9801818D01*
X12605511Y9801818D02*
X12656916Y9750413D01*
X12656916Y9750413D02*
X12708320Y9647604D01*
X12708320Y9647604D02*
X12708320Y9493389D01*
X12708320Y9493389D02*
X12656916Y9390580D01*
X12656916Y9390580D02*
X12605511Y9339175D01*
X12605511Y9339175D02*
X12502701Y9287770D01*
X12502701Y9287770D02*
X12091463Y9287770D01*
X13325178Y8773723D02*
X13222368Y8825127D01*
X13222368Y8825127D02*
X13170963Y8876532D01*
X13170963Y8876532D02*
X13119559Y8979342D01*
X13119559Y8979342D02*
X13119559Y9287770D01*
X13119559Y9287770D02*
X13170963Y9390580D01*
X13170963Y9390580D02*
X13222368Y9441985D01*
X13222368Y9441985D02*
X13325178Y9493389D01*
X13325178Y9493389D02*
X13479392Y9493389D01*
X13479392Y9493389D02*
X13582201Y9441985D01*
X13582201Y9441985D02*
X13633606Y9390580D01*
X13633606Y9390580D02*
X13685011Y9287770D01*
X13685011Y9287770D02*
X13685011Y8979342D01*
X13685011Y8979342D02*
X13633606Y8876532D01*
X13633606Y8876532D02*
X13582201Y8825127D01*
X13582201Y8825127D02*
X13479392Y8773723D01*
X13479392Y8773723D02*
X13325178Y8773723D01*
X14044844Y9493389D02*
X14250463Y8773723D01*
X14250463Y8773723D02*
X14456082Y9287770D01*
X14456082Y9287770D02*
X14661701Y8773723D01*
X14661701Y8773723D02*
X14867320Y9493389D01*
X15689796Y8825127D02*
X15586987Y8773723D01*
X15586987Y8773723D02*
X15381368Y8773723D01*
X15381368Y8773723D02*
X15278558Y8825127D01*
X15278558Y8825127D02*
X15227154Y8927937D01*
X15227154Y8927937D02*
X15227154Y9339175D01*
X15227154Y9339175D02*
X15278558Y9441985D01*
X15278558Y9441985D02*
X15381368Y9493389D01*
X15381368Y9493389D02*
X15586987Y9493389D01*
X15586987Y9493389D02*
X15689796Y9441985D01*
X15689796Y9441985D02*
X15741201Y9339175D01*
X15741201Y9339175D02*
X15741201Y9236366D01*
X15741201Y9236366D02*
X15227154Y9133556D01*
X16203844Y8773723D02*
X16203844Y9493389D01*
X16203844Y9287770D02*
X16255249Y9390580D01*
X16255249Y9390580D02*
X16306654Y9441985D01*
X16306654Y9441985D02*
X16409463Y9493389D01*
X16409463Y9493389D02*
X16512273Y9493389D01*
X17283344Y8825127D02*
X17180535Y8773723D01*
X17180535Y8773723D02*
X16974916Y8773723D01*
X16974916Y8773723D02*
X16872106Y8825127D01*
X16872106Y8825127D02*
X16820702Y8927937D01*
X16820702Y8927937D02*
X16820702Y9339175D01*
X16820702Y9339175D02*
X16872106Y9441985D01*
X16872106Y9441985D02*
X16974916Y9493389D01*
X16974916Y9493389D02*
X17180535Y9493389D01*
X17180535Y9493389D02*
X17283344Y9441985D01*
X17283344Y9441985D02*
X17334749Y9339175D01*
X17334749Y9339175D02*
X17334749Y9236366D01*
X17334749Y9236366D02*
X16820702Y9133556D01*
X18260035Y8773723D02*
X18260035Y9853223D01*
X18260035Y8825127D02*
X18157226Y8773723D01*
X18157226Y8773723D02*
X17951607Y8773723D01*
X17951607Y8773723D02*
X17848797Y8825127D01*
X17848797Y8825127D02*
X17797392Y8876532D01*
X17797392Y8876532D02*
X17745988Y8979342D01*
X17745988Y8979342D02*
X17745988Y9287770D01*
X17745988Y9287770D02*
X17797392Y9390580D01*
X17797392Y9390580D02*
X17848797Y9441985D01*
X17848797Y9441985D02*
X17951607Y9493389D01*
X17951607Y9493389D02*
X18157226Y9493389D01*
X18157226Y9493389D02*
X18260035Y9441985D01*
X19596558Y8773723D02*
X19596558Y9853223D01*
X19596558Y9441985D02*
X19699368Y9493389D01*
X19699368Y9493389D02*
X19904987Y9493389D01*
X19904987Y9493389D02*
X20007796Y9441985D01*
X20007796Y9441985D02*
X20059201Y9390580D01*
X20059201Y9390580D02*
X20110606Y9287770D01*
X20110606Y9287770D02*
X20110606Y8979342D01*
X20110606Y8979342D02*
X20059201Y8876532D01*
X20059201Y8876532D02*
X20007796Y8825127D01*
X20007796Y8825127D02*
X19904987Y8773723D01*
X19904987Y8773723D02*
X19699368Y8773723D01*
X19699368Y8773723D02*
X19596558Y8825127D01*
X20470439Y9493389D02*
X20727463Y8773723D01*
X20984486Y9493389D02*
X20727463Y8773723D01*
X20727463Y8773723D02*
X20624653Y8516699D01*
X20624653Y8516699D02*
X20573248Y8465294D01*
X20573248Y8465294D02*
X20470439Y8413889D01*
X21395724Y8876532D02*
X21447129Y8825127D01*
X21447129Y8825127D02*
X21395724Y8773723D01*
X21395724Y8773723D02*
X21344320Y8825127D01*
X21344320Y8825127D02*
X21395724Y8876532D01*
X21395724Y8876532D02*
X21395724Y8773723D01*
X21395724Y9441985D02*
X21447129Y9390580D01*
X21447129Y9390580D02*
X21395724Y9339175D01*
X21395724Y9339175D02*
X21344320Y9390580D01*
X21344320Y9390580D02*
X21395724Y9441985D01*
X21395724Y9441985D02*
X21395724Y9339175D01*
D13*
X29089812Y6273642D02*
X29089812Y7440010D01*
X29589684Y6273642D02*
X29589684Y6884597D01*
X29589684Y6884597D02*
X29534143Y6995679D01*
X29534143Y6995679D02*
X29423060Y7051221D01*
X29423060Y7051221D02*
X29256436Y7051221D01*
X29256436Y7051221D02*
X29145354Y6995679D01*
X29145354Y6995679D02*
X29089812Y6940138D01*
X30644969Y6273642D02*
X30644969Y6884597D01*
X30644969Y6884597D02*
X30589428Y6995679D01*
X30589428Y6995679D02*
X30478345Y7051221D01*
X30478345Y7051221D02*
X30256180Y7051221D01*
X30256180Y7051221D02*
X30145097Y6995679D01*
X30644969Y6329183D02*
X30533887Y6273642D01*
X30533887Y6273642D02*
X30256180Y6273642D01*
X30256180Y6273642D02*
X30145097Y6329183D01*
X30145097Y6329183D02*
X30089556Y6440266D01*
X30089556Y6440266D02*
X30089556Y6551349D01*
X30089556Y6551349D02*
X30145097Y6662431D01*
X30145097Y6662431D02*
X30256180Y6717973D01*
X30256180Y6717973D02*
X30533887Y6717973D01*
X30533887Y6717973D02*
X30644969Y6773514D01*
X31200382Y6273642D02*
X31200382Y7051221D01*
X31200382Y6829055D02*
X31255924Y6940138D01*
X31255924Y6940138D02*
X31311465Y6995679D01*
X31311465Y6995679D02*
X31422548Y7051221D01*
X31422548Y7051221D02*
X31533630Y7051221D01*
X31922419Y7051221D02*
X31922419Y5884853D01*
X31922419Y6995679D02*
X32033502Y7051221D01*
X32033502Y7051221D02*
X32255667Y7051221D01*
X32255667Y7051221D02*
X32366750Y6995679D01*
X32366750Y6995679D02*
X32422291Y6940138D01*
X32422291Y6940138D02*
X32477833Y6829055D01*
X32477833Y6829055D02*
X32477833Y6495807D01*
X32477833Y6495807D02*
X32422291Y6384725D01*
X32422291Y6384725D02*
X32366750Y6329183D01*
X32366750Y6329183D02*
X32255667Y6273642D01*
X32255667Y6273642D02*
X32033502Y6273642D01*
X32033502Y6273642D02*
X31922419Y6329183D01*
X33699741Y7051221D02*
X34144072Y7051221D01*
X33866365Y7440010D02*
X33866365Y6440266D01*
X33866365Y6440266D02*
X33921907Y6329183D01*
X33921907Y6329183D02*
X34032989Y6273642D01*
X34032989Y6273642D02*
X34144072Y6273642D01*
X34532861Y6273642D02*
X34532861Y7051221D01*
X34532861Y7440010D02*
X34477320Y7384469D01*
X34477320Y7384469D02*
X34532861Y7328927D01*
X34532861Y7328927D02*
X34588403Y7384469D01*
X34588403Y7384469D02*
X34532861Y7440010D01*
X34532861Y7440010D02*
X34532861Y7328927D01*
X35088274Y6273642D02*
X35088274Y7051221D01*
X35088274Y6940138D02*
X35143816Y6995679D01*
X35143816Y6995679D02*
X35254898Y7051221D01*
X35254898Y7051221D02*
X35421522Y7051221D01*
X35421522Y7051221D02*
X35532605Y6995679D01*
X35532605Y6995679D02*
X35588146Y6884597D01*
X35588146Y6884597D02*
X35588146Y6273642D01*
X35588146Y6884597D02*
X35643688Y6995679D01*
X35643688Y6995679D02*
X35754770Y7051221D01*
X35754770Y7051221D02*
X35921394Y7051221D01*
X35921394Y7051221D02*
X36032477Y6995679D01*
X36032477Y6995679D02*
X36088018Y6884597D01*
X36088018Y6884597D02*
X36088018Y6273642D01*
X37087762Y6329183D02*
X36976679Y6273642D01*
X36976679Y6273642D02*
X36754514Y6273642D01*
X36754514Y6273642D02*
X36643431Y6329183D01*
X36643431Y6329183D02*
X36587890Y6440266D01*
X36587890Y6440266D02*
X36587890Y6884597D01*
X36587890Y6884597D02*
X36643431Y6995679D01*
X36643431Y6995679D02*
X36754514Y7051221D01*
X36754514Y7051221D02*
X36976679Y7051221D01*
X36976679Y7051221D02*
X37087762Y6995679D01*
X37087762Y6995679D02*
X37143303Y6884597D01*
X37143303Y6884597D02*
X37143303Y6773514D01*
X37143303Y6773514D02*
X36587890Y6662431D01*
X37587634Y6329183D02*
X37698717Y6273642D01*
X37698717Y6273642D02*
X37920882Y6273642D01*
X37920882Y6273642D02*
X38031965Y6329183D01*
X38031965Y6329183D02*
X38087506Y6440266D01*
X38087506Y6440266D02*
X38087506Y6495807D01*
X38087506Y6495807D02*
X38031965Y6606890D01*
X38031965Y6606890D02*
X37920882Y6662431D01*
X37920882Y6662431D02*
X37754258Y6662431D01*
X37754258Y6662431D02*
X37643175Y6717973D01*
X37643175Y6717973D02*
X37587634Y6829055D01*
X37587634Y6829055D02*
X37587634Y6884597D01*
X37587634Y6884597D02*
X37643175Y6995679D01*
X37643175Y6995679D02*
X37754258Y7051221D01*
X37754258Y7051221D02*
X37920882Y7051221D01*
X37920882Y7051221D02*
X38031965Y6995679D01*
X38420754Y7051221D02*
X38865085Y7051221D01*
X38587378Y7440010D02*
X38587378Y6440266D01*
X38587378Y6440266D02*
X38642920Y6329183D01*
X38642920Y6329183D02*
X38754002Y6273642D01*
X38754002Y6273642D02*
X38865085Y6273642D01*
X39753746Y6273642D02*
X39753746Y6884597D01*
X39753746Y6884597D02*
X39698205Y6995679D01*
X39698205Y6995679D02*
X39587122Y7051221D01*
X39587122Y7051221D02*
X39364957Y7051221D01*
X39364957Y7051221D02*
X39253874Y6995679D01*
X39753746Y6329183D02*
X39642664Y6273642D01*
X39642664Y6273642D02*
X39364957Y6273642D01*
X39364957Y6273642D02*
X39253874Y6329183D01*
X39253874Y6329183D02*
X39198333Y6440266D01*
X39198333Y6440266D02*
X39198333Y6551349D01*
X39198333Y6551349D02*
X39253874Y6662431D01*
X39253874Y6662431D02*
X39364957Y6717973D01*
X39364957Y6717973D02*
X39642664Y6717973D01*
X39642664Y6717973D02*
X39753746Y6773514D01*
X40309159Y6273642D02*
X40309159Y7051221D01*
X40309159Y6940138D02*
X40364701Y6995679D01*
X40364701Y6995679D02*
X40475783Y7051221D01*
X40475783Y7051221D02*
X40642407Y7051221D01*
X40642407Y7051221D02*
X40753490Y6995679D01*
X40753490Y6995679D02*
X40809031Y6884597D01*
X40809031Y6884597D02*
X40809031Y6273642D01*
X40809031Y6884597D02*
X40864573Y6995679D01*
X40864573Y6995679D02*
X40975655Y7051221D01*
X40975655Y7051221D02*
X41142279Y7051221D01*
X41142279Y7051221D02*
X41253362Y6995679D01*
X41253362Y6995679D02*
X41308903Y6884597D01*
X41308903Y6884597D02*
X41308903Y6273642D01*
X41864316Y7051221D02*
X41864316Y5884853D01*
X41864316Y6995679D02*
X41975399Y7051221D01*
X41975399Y7051221D02*
X42197564Y7051221D01*
X42197564Y7051221D02*
X42308647Y6995679D01*
X42308647Y6995679D02*
X42364188Y6940138D01*
X42364188Y6940138D02*
X42419730Y6829055D01*
X42419730Y6829055D02*
X42419730Y6495807D01*
X42419730Y6495807D02*
X42364188Y6384725D01*
X42364188Y6384725D02*
X42308647Y6329183D01*
X42308647Y6329183D02*
X42197564Y6273642D01*
X42197564Y6273642D02*
X41975399Y6273642D01*
X41975399Y6273642D02*
X41864316Y6329183D01*
X27173636Y5173434D02*
X27173636Y4229231D01*
X27173636Y4229231D02*
X27118095Y4118148D01*
X27118095Y4118148D02*
X27062554Y4062607D01*
X27062554Y4062607D02*
X26951471Y4007066D01*
X26951471Y4007066D02*
X26784847Y4007066D01*
X26784847Y4007066D02*
X26673764Y4062607D01*
X27173636Y4451396D02*
X27062554Y4395855D01*
X27062554Y4395855D02*
X26840388Y4395855D01*
X26840388Y4395855D02*
X26729306Y4451396D01*
X26729306Y4451396D02*
X26673764Y4506938D01*
X26673764Y4506938D02*
X26618223Y4618020D01*
X26618223Y4618020D02*
X26618223Y4951268D01*
X26618223Y4951268D02*
X26673764Y5062351D01*
X26673764Y5062351D02*
X26729306Y5117892D01*
X26729306Y5117892D02*
X26840388Y5173434D01*
X26840388Y5173434D02*
X27062554Y5173434D01*
X27062554Y5173434D02*
X27173636Y5117892D01*
X28173380Y4451396D02*
X28062297Y4395855D01*
X28062297Y4395855D02*
X27840132Y4395855D01*
X27840132Y4395855D02*
X27729049Y4451396D01*
X27729049Y4451396D02*
X27673508Y4562479D01*
X27673508Y4562479D02*
X27673508Y5006810D01*
X27673508Y5006810D02*
X27729049Y5117892D01*
X27729049Y5117892D02*
X27840132Y5173434D01*
X27840132Y5173434D02*
X28062297Y5173434D01*
X28062297Y5173434D02*
X28173380Y5117892D01*
X28173380Y5117892D02*
X28228921Y5006810D01*
X28228921Y5006810D02*
X28228921Y4895727D01*
X28228921Y4895727D02*
X27673508Y4784644D01*
X28728793Y5173434D02*
X28728793Y4395855D01*
X28728793Y5062351D02*
X28784335Y5117892D01*
X28784335Y5117892D02*
X28895417Y5173434D01*
X28895417Y5173434D02*
X29062041Y5173434D01*
X29062041Y5173434D02*
X29173124Y5117892D01*
X29173124Y5117892D02*
X29228665Y5006810D01*
X29228665Y5006810D02*
X29228665Y4395855D01*
X30228409Y4451396D02*
X30117326Y4395855D01*
X30117326Y4395855D02*
X29895161Y4395855D01*
X29895161Y4395855D02*
X29784078Y4451396D01*
X29784078Y4451396D02*
X29728537Y4562479D01*
X29728537Y4562479D02*
X29728537Y5006810D01*
X29728537Y5006810D02*
X29784078Y5117892D01*
X29784078Y5117892D02*
X29895161Y5173434D01*
X29895161Y5173434D02*
X30117326Y5173434D01*
X30117326Y5173434D02*
X30228409Y5117892D01*
X30228409Y5117892D02*
X30283950Y5006810D01*
X30283950Y5006810D02*
X30283950Y4895727D01*
X30283950Y4895727D02*
X29728537Y4784644D01*
X30783822Y4395855D02*
X30783822Y5173434D01*
X30783822Y4951268D02*
X30839364Y5062351D01*
X30839364Y5062351D02*
X30894905Y5117892D01*
X30894905Y5117892D02*
X31005988Y5173434D01*
X31005988Y5173434D02*
X31117070Y5173434D01*
X32005731Y4395855D02*
X32005731Y5006810D01*
X32005731Y5006810D02*
X31950190Y5117892D01*
X31950190Y5117892D02*
X31839107Y5173434D01*
X31839107Y5173434D02*
X31616942Y5173434D01*
X31616942Y5173434D02*
X31505859Y5117892D01*
X32005731Y4451396D02*
X31894649Y4395855D01*
X31894649Y4395855D02*
X31616942Y4395855D01*
X31616942Y4395855D02*
X31505859Y4451396D01*
X31505859Y4451396D02*
X31450318Y4562479D01*
X31450318Y4562479D02*
X31450318Y4673562D01*
X31450318Y4673562D02*
X31505859Y4784644D01*
X31505859Y4784644D02*
X31616942Y4840186D01*
X31616942Y4840186D02*
X31894649Y4840186D01*
X31894649Y4840186D02*
X32005731Y4895727D01*
X32394520Y5173434D02*
X32838851Y5173434D01*
X32561144Y5562223D02*
X32561144Y4562479D01*
X32561144Y4562479D02*
X32616686Y4451396D01*
X32616686Y4451396D02*
X32727768Y4395855D01*
X32727768Y4395855D02*
X32838851Y4395855D01*
X33394264Y4395855D02*
X33283182Y4451396D01*
X33283182Y4451396D02*
X33227640Y4506938D01*
X33227640Y4506938D02*
X33172099Y4618020D01*
X33172099Y4618020D02*
X33172099Y4951268D01*
X33172099Y4951268D02*
X33227640Y5062351D01*
X33227640Y5062351D02*
X33283182Y5117892D01*
X33283182Y5117892D02*
X33394264Y5173434D01*
X33394264Y5173434D02*
X33560888Y5173434D01*
X33560888Y5173434D02*
X33671971Y5117892D01*
X33671971Y5117892D02*
X33727512Y5062351D01*
X33727512Y5062351D02*
X33783054Y4951268D01*
X33783054Y4951268D02*
X33783054Y4618020D01*
X33783054Y4618020D02*
X33727512Y4506938D01*
X33727512Y4506938D02*
X33671971Y4451396D01*
X33671971Y4451396D02*
X33560888Y4395855D01*
X33560888Y4395855D02*
X33394264Y4395855D01*
X34282925Y4395855D02*
X34282925Y5173434D01*
X34282925Y4951268D02*
X34338467Y5062351D01*
X34338467Y5062351D02*
X34394008Y5117892D01*
X34394008Y5117892D02*
X34505091Y5173434D01*
X34505091Y5173434D02*
X34616173Y5173434D01*
X36504578Y5506682D02*
X36393495Y5562223D01*
X36393495Y5562223D02*
X36226871Y5562223D01*
X36226871Y5562223D02*
X36060247Y5506682D01*
X36060247Y5506682D02*
X35949165Y5395599D01*
X35949165Y5395599D02*
X35893623Y5284516D01*
X35893623Y5284516D02*
X35838082Y5062351D01*
X35838082Y5062351D02*
X35838082Y4895727D01*
X35838082Y4895727D02*
X35893623Y4673562D01*
X35893623Y4673562D02*
X35949165Y4562479D01*
X35949165Y4562479D02*
X36060247Y4451396D01*
X36060247Y4451396D02*
X36226871Y4395855D01*
X36226871Y4395855D02*
X36337954Y4395855D01*
X36337954Y4395855D02*
X36504578Y4451396D01*
X36504578Y4451396D02*
X36560119Y4506938D01*
X36560119Y4506938D02*
X36560119Y4895727D01*
X36560119Y4895727D02*
X36337954Y4895727D01*
X37504322Y4451396D02*
X37393239Y4395855D01*
X37393239Y4395855D02*
X37171074Y4395855D01*
X37171074Y4395855D02*
X37059991Y4451396D01*
X37059991Y4451396D02*
X37004450Y4562479D01*
X37004450Y4562479D02*
X37004450Y5006810D01*
X37004450Y5006810D02*
X37059991Y5117892D01*
X37059991Y5117892D02*
X37171074Y5173434D01*
X37171074Y5173434D02*
X37393239Y5173434D01*
X37393239Y5173434D02*
X37504322Y5117892D01*
X37504322Y5117892D02*
X37559863Y5006810D01*
X37559863Y5006810D02*
X37559863Y4895727D01*
X37559863Y4895727D02*
X37004450Y4784644D01*
X38059735Y5173434D02*
X38059735Y4395855D01*
X38059735Y5062351D02*
X38115277Y5117892D01*
X38115277Y5117892D02*
X38226359Y5173434D01*
X38226359Y5173434D02*
X38392983Y5173434D01*
X38392983Y5173434D02*
X38504066Y5117892D01*
X38504066Y5117892D02*
X38559607Y5006810D01*
X38559607Y5006810D02*
X38559607Y4395855D01*
X39003938Y5562223D02*
X39725975Y5562223D01*
X39725975Y5562223D02*
X39337186Y5117892D01*
X39337186Y5117892D02*
X39503810Y5117892D01*
X39503810Y5117892D02*
X39614892Y5062351D01*
X39614892Y5062351D02*
X39670434Y5006810D01*
X39670434Y5006810D02*
X39725975Y4895727D01*
X39725975Y4895727D02*
X39725975Y4618020D01*
X39725975Y4618020D02*
X39670434Y4506938D01*
X39670434Y4506938D02*
X39614892Y4451396D01*
X39614892Y4451396D02*
X39503810Y4395855D01*
X39503810Y4395855D02*
X39170562Y4395855D01*
X39170562Y4395855D02*
X39059479Y4451396D01*
X39059479Y4451396D02*
X39003938Y4506938D01*
X41003426Y5173434D02*
X41281132Y4395855D01*
X41281132Y4395855D02*
X41558839Y5173434D01*
X42003169Y4506938D02*
X42058711Y4451396D01*
X42058711Y4451396D02*
X42003169Y4395855D01*
X42003169Y4395855D02*
X41947628Y4451396D01*
X41947628Y4451396D02*
X42003169Y4506938D01*
X42003169Y4506938D02*
X42003169Y4395855D01*
X43169537Y4395855D02*
X42503041Y4395855D01*
X42836289Y4395855D02*
X42836289Y5562223D01*
X42836289Y5562223D02*
X42725206Y5395599D01*
X42725206Y5395599D02*
X42614124Y5284516D01*
X42614124Y5284516D02*
X42503041Y5228975D01*
X43669409Y4506938D02*
X43724951Y4451396D01*
X43724951Y4451396D02*
X43669409Y4395855D01*
X43669409Y4395855D02*
X43613868Y4451396D01*
X43613868Y4451396D02*
X43669409Y4506938D01*
X43669409Y4506938D02*
X43669409Y4395855D01*
X44113740Y5562223D02*
X44835777Y5562223D01*
X44835777Y5562223D02*
X44446988Y5117892D01*
X44446988Y5117892D02*
X44613612Y5117892D01*
X44613612Y5117892D02*
X44724694Y5062351D01*
X44724694Y5062351D02*
X44780236Y5006810D01*
X44780236Y5006810D02*
X44835777Y4895727D01*
X44835777Y4895727D02*
X44835777Y4618020D01*
X44835777Y4618020D02*
X44780236Y4506938D01*
X44780236Y4506938D02*
X44724694Y4451396D01*
X44724694Y4451396D02*
X44613612Y4395855D01*
X44613612Y4395855D02*
X44280364Y4395855D01*
X44280364Y4395855D02*
X44169281Y4451396D01*
X44169281Y4451396D02*
X44113740Y4506938D01*
D14*
X52048378Y10622070D02*
X51215258Y10622070D01*
X51631818Y10622070D02*
X51631818Y12080030D01*
X51631818Y12080030D02*
X51492965Y11871750D01*
X51492965Y11871750D02*
X51354112Y11732896D01*
X51354112Y11732896D02*
X51215258Y11663470D01*
X52603791Y10691496D02*
X52742645Y10622070D01*
X52742645Y10622070D02*
X53020351Y10622070D01*
X53020351Y10622070D02*
X53159205Y10691496D01*
X53159205Y10691496D02*
X53228631Y10830350D01*
X53228631Y10830350D02*
X53228631Y10899776D01*
X53228631Y10899776D02*
X53159205Y11038630D01*
X53159205Y11038630D02*
X53020351Y11108056D01*
X53020351Y11108056D02*
X52812071Y11108056D01*
X52812071Y11108056D02*
X52673218Y11177483D01*
X52673218Y11177483D02*
X52603791Y11316336D01*
X52603791Y11316336D02*
X52603791Y11385763D01*
X52603791Y11385763D02*
X52673218Y11524616D01*
X52673218Y11524616D02*
X52812071Y11594043D01*
X52812071Y11594043D02*
X53020351Y11594043D01*
X53020351Y11594043D02*
X53159205Y11524616D01*
X54964298Y11177483D02*
X56075125Y11177483D01*
X58713338Y10760923D02*
X58643911Y10691496D01*
X58643911Y10691496D02*
X58435631Y10622070D01*
X58435631Y10622070D02*
X58296778Y10622070D01*
X58296778Y10622070D02*
X58088498Y10691496D01*
X58088498Y10691496D02*
X57949645Y10830350D01*
X57949645Y10830350D02*
X57880218Y10969203D01*
X57880218Y10969203D02*
X57810791Y11246910D01*
X57810791Y11246910D02*
X57810791Y11455190D01*
X57810791Y11455190D02*
X57880218Y11732896D01*
X57880218Y11732896D02*
X57949645Y11871750D01*
X57949645Y11871750D02*
X58088498Y12010603D01*
X58088498Y12010603D02*
X58296778Y12080030D01*
X58296778Y12080030D02*
X58435631Y12080030D01*
X58435631Y12080030D02*
X58643911Y12010603D01*
X58643911Y12010603D02*
X58713338Y11941176D01*
X59338178Y10622070D02*
X59338178Y12080030D01*
X59963018Y10622070D02*
X59963018Y11385763D01*
X59963018Y11385763D02*
X59893591Y11524616D01*
X59893591Y11524616D02*
X59754738Y11594043D01*
X59754738Y11594043D02*
X59546458Y11594043D01*
X59546458Y11594043D02*
X59407605Y11524616D01*
X59407605Y11524616D02*
X59338178Y11455190D01*
X61212698Y10691496D02*
X61073845Y10622070D01*
X61073845Y10622070D02*
X60796138Y10622070D01*
X60796138Y10622070D02*
X60657285Y10691496D01*
X60657285Y10691496D02*
X60587858Y10830350D01*
X60587858Y10830350D02*
X60587858Y11385763D01*
X60587858Y11385763D02*
X60657285Y11524616D01*
X60657285Y11524616D02*
X60796138Y11594043D01*
X60796138Y11594043D02*
X61073845Y11594043D01*
X61073845Y11594043D02*
X61212698Y11524616D01*
X61212698Y11524616D02*
X61282125Y11385763D01*
X61282125Y11385763D02*
X61282125Y11246910D01*
X61282125Y11246910D02*
X60587858Y11108056D01*
X62531805Y10691496D02*
X62392952Y10622070D01*
X62392952Y10622070D02*
X62115245Y10622070D01*
X62115245Y10622070D02*
X61976392Y10691496D01*
X61976392Y10691496D02*
X61906965Y10760923D01*
X61906965Y10760923D02*
X61837538Y10899776D01*
X61837538Y10899776D02*
X61837538Y11316336D01*
X61837538Y11316336D02*
X61906965Y11455190D01*
X61906965Y11455190D02*
X61976392Y11524616D01*
X61976392Y11524616D02*
X62115245Y11594043D01*
X62115245Y11594043D02*
X62392952Y11594043D01*
X62392952Y11594043D02*
X62531805Y11524616D01*
X63156645Y10622070D02*
X63156645Y12080030D01*
X63295498Y11177483D02*
X63712058Y10622070D01*
X63712058Y11594043D02*
X63156645Y11038630D01*
X65447725Y10622070D02*
X65447725Y12080030D01*
X65447725Y11524616D02*
X65586578Y11594043D01*
X65586578Y11594043D02*
X65864285Y11594043D01*
X65864285Y11594043D02*
X66003138Y11524616D01*
X66003138Y11524616D02*
X66072565Y11455190D01*
X66072565Y11455190D02*
X66141992Y11316336D01*
X66141992Y11316336D02*
X66141992Y10899776D01*
X66141992Y10899776D02*
X66072565Y10760923D01*
X66072565Y10760923D02*
X66003138Y10691496D01*
X66003138Y10691496D02*
X65864285Y10622070D01*
X65864285Y10622070D02*
X65586578Y10622070D01*
X65586578Y10622070D02*
X65447725Y10691496D01*
X67391672Y10622070D02*
X67391672Y11385763D01*
X67391672Y11385763D02*
X67322245Y11524616D01*
X67322245Y11524616D02*
X67183392Y11594043D01*
X67183392Y11594043D02*
X66905685Y11594043D01*
X66905685Y11594043D02*
X66766832Y11524616D01*
X67391672Y10691496D02*
X67252819Y10622070D01*
X67252819Y10622070D02*
X66905685Y10622070D01*
X66905685Y10622070D02*
X66766832Y10691496D01*
X66766832Y10691496D02*
X66697405Y10830350D01*
X66697405Y10830350D02*
X66697405Y10969203D01*
X66697405Y10969203D02*
X66766832Y11108056D01*
X66766832Y11108056D02*
X66905685Y11177483D01*
X66905685Y11177483D02*
X67252819Y11177483D01*
X67252819Y11177483D02*
X67391672Y11246910D01*
X67877659Y11594043D02*
X68433072Y11594043D01*
X68085939Y12080030D02*
X68085939Y10830350D01*
X68085939Y10830350D02*
X68155366Y10691496D01*
X68155366Y10691496D02*
X68294219Y10622070D01*
X68294219Y10622070D02*
X68433072Y10622070D01*
X68710779Y11594043D02*
X69266192Y11594043D01*
X68919059Y12080030D02*
X68919059Y10830350D01*
X68919059Y10830350D02*
X68988486Y10691496D01*
X68988486Y10691496D02*
X69127339Y10622070D01*
X69127339Y10622070D02*
X69266192Y10622070D01*
X70307592Y10691496D02*
X70168739Y10622070D01*
X70168739Y10622070D02*
X69891032Y10622070D01*
X69891032Y10622070D02*
X69752179Y10691496D01*
X69752179Y10691496D02*
X69682752Y10830350D01*
X69682752Y10830350D02*
X69682752Y11385763D01*
X69682752Y11385763D02*
X69752179Y11524616D01*
X69752179Y11524616D02*
X69891032Y11594043D01*
X69891032Y11594043D02*
X70168739Y11594043D01*
X70168739Y11594043D02*
X70307592Y11524616D01*
X70307592Y11524616D02*
X70377019Y11385763D01*
X70377019Y11385763D02*
X70377019Y11246910D01*
X70377019Y11246910D02*
X69682752Y11108056D01*
X71001859Y10622070D02*
X71001859Y11594043D01*
X71001859Y11316336D02*
X71071286Y11455190D01*
X71071286Y11455190D02*
X71140712Y11524616D01*
X71140712Y11524616D02*
X71279566Y11594043D01*
X71279566Y11594043D02*
X71418419Y11594043D01*
X71765553Y11594043D02*
X72112686Y10622070D01*
X72459819Y11594043D02*
X72112686Y10622070D01*
X72112686Y10622070D02*
X71973833Y10274936D01*
X71973833Y10274936D02*
X71904406Y10205510D01*
X71904406Y10205510D02*
X71765553Y10136083D01*
X74334340Y10622070D02*
X74195487Y10691496D01*
X74195487Y10691496D02*
X74126060Y10830350D01*
X74126060Y10830350D02*
X74126060Y12080030D01*
X75445166Y10691496D02*
X75306313Y10622070D01*
X75306313Y10622070D02*
X75028606Y10622070D01*
X75028606Y10622070D02*
X74889753Y10691496D01*
X74889753Y10691496D02*
X74820326Y10830350D01*
X74820326Y10830350D02*
X74820326Y11385763D01*
X74820326Y11385763D02*
X74889753Y11524616D01*
X74889753Y11524616D02*
X75028606Y11594043D01*
X75028606Y11594043D02*
X75306313Y11594043D01*
X75306313Y11594043D02*
X75445166Y11524616D01*
X75445166Y11524616D02*
X75514593Y11385763D01*
X75514593Y11385763D02*
X75514593Y11246910D01*
X75514593Y11246910D02*
X74820326Y11108056D01*
X76000580Y11594043D02*
X76347713Y10622070D01*
X76347713Y10622070D02*
X76694846Y11594043D01*
X77805673Y10691496D02*
X77666820Y10622070D01*
X77666820Y10622070D02*
X77389113Y10622070D01*
X77389113Y10622070D02*
X77250260Y10691496D01*
X77250260Y10691496D02*
X77180833Y10830350D01*
X77180833Y10830350D02*
X77180833Y11385763D01*
X77180833Y11385763D02*
X77250260Y11524616D01*
X77250260Y11524616D02*
X77389113Y11594043D01*
X77389113Y11594043D02*
X77666820Y11594043D01*
X77666820Y11594043D02*
X77805673Y11524616D01*
X77805673Y11524616D02*
X77875100Y11385763D01*
X77875100Y11385763D02*
X77875100Y11246910D01*
X77875100Y11246910D02*
X77180833Y11108056D01*
X78708220Y10622070D02*
X78569367Y10691496D01*
X78569367Y10691496D02*
X78499940Y10830350D01*
X78499940Y10830350D02*
X78499940Y12080030D01*
X51145832Y9080030D02*
X52048378Y9080030D01*
X52048378Y9080030D02*
X51562392Y8524616D01*
X51562392Y8524616D02*
X51770672Y8524616D01*
X51770672Y8524616D02*
X51909525Y8455190D01*
X51909525Y8455190D02*
X51978952Y8385763D01*
X51978952Y8385763D02*
X52048378Y8246910D01*
X52048378Y8246910D02*
X52048378Y7899776D01*
X52048378Y7899776D02*
X51978952Y7760923D01*
X51978952Y7760923D02*
X51909525Y7691496D01*
X51909525Y7691496D02*
X51770672Y7622070D01*
X51770672Y7622070D02*
X51354112Y7622070D01*
X51354112Y7622070D02*
X51215258Y7691496D01*
X51215258Y7691496D02*
X51145832Y7760923D01*
X52603791Y7691496D02*
X52742645Y7622070D01*
X52742645Y7622070D02*
X53020351Y7622070D01*
X53020351Y7622070D02*
X53159205Y7691496D01*
X53159205Y7691496D02*
X53228631Y7830350D01*
X53228631Y7830350D02*
X53228631Y7899776D01*
X53228631Y7899776D02*
X53159205Y8038630D01*
X53159205Y8038630D02*
X53020351Y8108056D01*
X53020351Y8108056D02*
X52812071Y8108056D01*
X52812071Y8108056D02*
X52673218Y8177483D01*
X52673218Y8177483D02*
X52603791Y8316336D01*
X52603791Y8316336D02*
X52603791Y8385763D01*
X52603791Y8385763D02*
X52673218Y8524616D01*
X52673218Y8524616D02*
X52812071Y8594043D01*
X52812071Y8594043D02*
X53020351Y8594043D01*
X53020351Y8594043D02*
X53159205Y8524616D01*
X54964298Y8177483D02*
X56075125Y8177483D01*
X58574485Y7622070D02*
X57880218Y7622070D01*
X57880218Y7622070D02*
X57880218Y9080030D01*
X59268751Y7622070D02*
X59129898Y7691496D01*
X59129898Y7691496D02*
X59060471Y7760923D01*
X59060471Y7760923D02*
X58991044Y7899776D01*
X58991044Y7899776D02*
X58991044Y8316336D01*
X58991044Y8316336D02*
X59060471Y8455190D01*
X59060471Y8455190D02*
X59129898Y8524616D01*
X59129898Y8524616D02*
X59268751Y8594043D01*
X59268751Y8594043D02*
X59477031Y8594043D01*
X59477031Y8594043D02*
X59615884Y8524616D01*
X59615884Y8524616D02*
X59685311Y8455190D01*
X59685311Y8455190D02*
X59754738Y8316336D01*
X59754738Y8316336D02*
X59754738Y7899776D01*
X59754738Y7899776D02*
X59685311Y7760923D01*
X59685311Y7760923D02*
X59615884Y7691496D01*
X59615884Y7691496D02*
X59477031Y7622070D01*
X59477031Y7622070D02*
X59268751Y7622070D01*
X61004418Y7691496D02*
X60865565Y7622070D01*
X60865565Y7622070D02*
X60587858Y7622070D01*
X60587858Y7622070D02*
X60449005Y7691496D01*
X60449005Y7691496D02*
X60379578Y7760923D01*
X60379578Y7760923D02*
X60310151Y7899776D01*
X60310151Y7899776D02*
X60310151Y8316336D01*
X60310151Y8316336D02*
X60379578Y8455190D01*
X60379578Y8455190D02*
X60449005Y8524616D01*
X60449005Y8524616D02*
X60587858Y8594043D01*
X60587858Y8594043D02*
X60865565Y8594043D01*
X60865565Y8594043D02*
X61004418Y8524616D01*
X61629258Y7622070D02*
X61629258Y9080030D01*
X61768111Y8177483D02*
X62184671Y7622070D01*
X62184671Y8594043D02*
X61629258Y8038630D01*
X63850911Y9149456D02*
X62601231Y7274936D01*
X64336898Y9080030D02*
X64336898Y7899776D01*
X64336898Y7899776D02*
X64406325Y7760923D01*
X64406325Y7760923D02*
X64475751Y7691496D01*
X64475751Y7691496D02*
X64614605Y7622070D01*
X64614605Y7622070D02*
X64892311Y7622070D01*
X64892311Y7622070D02*
X65031165Y7691496D01*
X65031165Y7691496D02*
X65100591Y7760923D01*
X65100591Y7760923D02*
X65170018Y7899776D01*
X65170018Y7899776D02*
X65170018Y9080030D01*
X65864285Y8594043D02*
X65864285Y7622070D01*
X65864285Y8455190D02*
X65933712Y8524616D01*
X65933712Y8524616D02*
X66072565Y8594043D01*
X66072565Y8594043D02*
X66280845Y8594043D01*
X66280845Y8594043D02*
X66419698Y8524616D01*
X66419698Y8524616D02*
X66489125Y8385763D01*
X66489125Y8385763D02*
X66489125Y7622070D01*
X67391672Y7622070D02*
X67252819Y7691496D01*
X67252819Y7691496D02*
X67183392Y7830350D01*
X67183392Y7830350D02*
X67183392Y9080030D01*
X68155365Y7622070D02*
X68016512Y7691496D01*
X68016512Y7691496D02*
X67947085Y7760923D01*
X67947085Y7760923D02*
X67877658Y7899776D01*
X67877658Y7899776D02*
X67877658Y8316336D01*
X67877658Y8316336D02*
X67947085Y8455190D01*
X67947085Y8455190D02*
X68016512Y8524616D01*
X68016512Y8524616D02*
X68155365Y8594043D01*
X68155365Y8594043D02*
X68363645Y8594043D01*
X68363645Y8594043D02*
X68502498Y8524616D01*
X68502498Y8524616D02*
X68571925Y8455190D01*
X68571925Y8455190D02*
X68641352Y8316336D01*
X68641352Y8316336D02*
X68641352Y7899776D01*
X68641352Y7899776D02*
X68571925Y7760923D01*
X68571925Y7760923D02*
X68502498Y7691496D01*
X68502498Y7691496D02*
X68363645Y7622070D01*
X68363645Y7622070D02*
X68155365Y7622070D01*
X69891032Y7691496D02*
X69752179Y7622070D01*
X69752179Y7622070D02*
X69474472Y7622070D01*
X69474472Y7622070D02*
X69335619Y7691496D01*
X69335619Y7691496D02*
X69266192Y7760923D01*
X69266192Y7760923D02*
X69196765Y7899776D01*
X69196765Y7899776D02*
X69196765Y8316336D01*
X69196765Y8316336D02*
X69266192Y8455190D01*
X69266192Y8455190D02*
X69335619Y8524616D01*
X69335619Y8524616D02*
X69474472Y8594043D01*
X69474472Y8594043D02*
X69752179Y8594043D01*
X69752179Y8594043D02*
X69891032Y8524616D01*
X70515872Y7622070D02*
X70515872Y9080030D01*
X70654725Y8177483D02*
X71071285Y7622070D01*
X71071285Y8594043D02*
X70515872Y8038630D01*
X51909525Y6080030D02*
X51631818Y6080030D01*
X51631818Y6080030D02*
X51492965Y6010603D01*
X51492965Y6010603D02*
X51423538Y5941176D01*
X51423538Y5941176D02*
X51284685Y5732896D01*
X51284685Y5732896D02*
X51215258Y5455190D01*
X51215258Y5455190D02*
X51215258Y4899776D01*
X51215258Y4899776D02*
X51284685Y4760923D01*
X51284685Y4760923D02*
X51354112Y4691496D01*
X51354112Y4691496D02*
X51492965Y4622070D01*
X51492965Y4622070D02*
X51770672Y4622070D01*
X51770672Y4622070D02*
X51909525Y4691496D01*
X51909525Y4691496D02*
X51978952Y4760923D01*
X51978952Y4760923D02*
X52048378Y4899776D01*
X52048378Y4899776D02*
X52048378Y5246910D01*
X52048378Y5246910D02*
X51978952Y5385763D01*
X51978952Y5385763D02*
X51909525Y5455190D01*
X51909525Y5455190D02*
X51770672Y5524616D01*
X51770672Y5524616D02*
X51492965Y5524616D01*
X51492965Y5524616D02*
X51354112Y5455190D01*
X51354112Y5455190D02*
X51284685Y5385763D01*
X51284685Y5385763D02*
X51215258Y5246910D01*
X52603791Y4691496D02*
X52742645Y4622070D01*
X52742645Y4622070D02*
X53020351Y4622070D01*
X53020351Y4622070D02*
X53159205Y4691496D01*
X53159205Y4691496D02*
X53228631Y4830350D01*
X53228631Y4830350D02*
X53228631Y4899776D01*
X53228631Y4899776D02*
X53159205Y5038630D01*
X53159205Y5038630D02*
X53020351Y5108056D01*
X53020351Y5108056D02*
X52812071Y5108056D01*
X52812071Y5108056D02*
X52673218Y5177483D01*
X52673218Y5177483D02*
X52603791Y5316336D01*
X52603791Y5316336D02*
X52603791Y5385763D01*
X52603791Y5385763D02*
X52673218Y5524616D01*
X52673218Y5524616D02*
X52812071Y5594043D01*
X52812071Y5594043D02*
X53020351Y5594043D01*
X53020351Y5594043D02*
X53159205Y5524616D01*
X54964298Y5177483D02*
X56075125Y5177483D01*
X58643911Y6010603D02*
X58505058Y6080030D01*
X58505058Y6080030D02*
X58296778Y6080030D01*
X58296778Y6080030D02*
X58088498Y6010603D01*
X58088498Y6010603D02*
X57949645Y5871750D01*
X57949645Y5871750D02*
X57880218Y5732896D01*
X57880218Y5732896D02*
X57810791Y5455190D01*
X57810791Y5455190D02*
X57810791Y5246910D01*
X57810791Y5246910D02*
X57880218Y4969203D01*
X57880218Y4969203D02*
X57949645Y4830350D01*
X57949645Y4830350D02*
X58088498Y4691496D01*
X58088498Y4691496D02*
X58296778Y4622070D01*
X58296778Y4622070D02*
X58435631Y4622070D01*
X58435631Y4622070D02*
X58643911Y4691496D01*
X58643911Y4691496D02*
X58713338Y4760923D01*
X58713338Y4760923D02*
X58713338Y5246910D01*
X58713338Y5246910D02*
X58435631Y5246910D01*
X59893591Y4691496D02*
X59754738Y4622070D01*
X59754738Y4622070D02*
X59477031Y4622070D01*
X59477031Y4622070D02*
X59338178Y4691496D01*
X59338178Y4691496D02*
X59268751Y4830350D01*
X59268751Y4830350D02*
X59268751Y5385763D01*
X59268751Y5385763D02*
X59338178Y5524616D01*
X59338178Y5524616D02*
X59477031Y5594043D01*
X59477031Y5594043D02*
X59754738Y5594043D01*
X59754738Y5594043D02*
X59893591Y5524616D01*
X59893591Y5524616D02*
X59963018Y5385763D01*
X59963018Y5385763D02*
X59963018Y5246910D01*
X59963018Y5246910D02*
X59268751Y5108056D01*
X60587858Y5594043D02*
X60587858Y4622070D01*
X60587858Y5455190D02*
X60657285Y5524616D01*
X60657285Y5524616D02*
X60796138Y5594043D01*
X60796138Y5594043D02*
X61004418Y5594043D01*
X61004418Y5594043D02*
X61143271Y5524616D01*
X61143271Y5524616D02*
X61212698Y5385763D01*
X61212698Y5385763D02*
X61212698Y4622070D01*
X62462378Y4691496D02*
X62323525Y4622070D01*
X62323525Y4622070D02*
X62045818Y4622070D01*
X62045818Y4622070D02*
X61906965Y4691496D01*
X61906965Y4691496D02*
X61837538Y4830350D01*
X61837538Y4830350D02*
X61837538Y5385763D01*
X61837538Y5385763D02*
X61906965Y5524616D01*
X61906965Y5524616D02*
X62045818Y5594043D01*
X62045818Y5594043D02*
X62323525Y5594043D01*
X62323525Y5594043D02*
X62462378Y5524616D01*
X62462378Y5524616D02*
X62531805Y5385763D01*
X62531805Y5385763D02*
X62531805Y5246910D01*
X62531805Y5246910D02*
X61837538Y5108056D01*
X63156645Y4622070D02*
X63156645Y5594043D01*
X63156645Y5316336D02*
X63226072Y5455190D01*
X63226072Y5455190D02*
X63295498Y5524616D01*
X63295498Y5524616D02*
X63434352Y5594043D01*
X63434352Y5594043D02*
X63573205Y5594043D01*
X64684032Y4622070D02*
X64684032Y5385763D01*
X64684032Y5385763D02*
X64614605Y5524616D01*
X64614605Y5524616D02*
X64475752Y5594043D01*
X64475752Y5594043D02*
X64198045Y5594043D01*
X64198045Y5594043D02*
X64059192Y5524616D01*
X64684032Y4691496D02*
X64545179Y4622070D01*
X64545179Y4622070D02*
X64198045Y4622070D01*
X64198045Y4622070D02*
X64059192Y4691496D01*
X64059192Y4691496D02*
X63989765Y4830350D01*
X63989765Y4830350D02*
X63989765Y4969203D01*
X63989765Y4969203D02*
X64059192Y5108056D01*
X64059192Y5108056D02*
X64198045Y5177483D01*
X64198045Y5177483D02*
X64545179Y5177483D01*
X64545179Y5177483D02*
X64684032Y5246910D01*
X65170019Y5594043D02*
X65725432Y5594043D01*
X65378299Y6080030D02*
X65378299Y4830350D01*
X65378299Y4830350D02*
X65447726Y4691496D01*
X65447726Y4691496D02*
X65586579Y4622070D01*
X65586579Y4622070D02*
X65725432Y4622070D01*
X66419699Y4622070D02*
X66280846Y4691496D01*
X66280846Y4691496D02*
X66211419Y4760923D01*
X66211419Y4760923D02*
X66141992Y4899776D01*
X66141992Y4899776D02*
X66141992Y5316336D01*
X66141992Y5316336D02*
X66211419Y5455190D01*
X66211419Y5455190D02*
X66280846Y5524616D01*
X66280846Y5524616D02*
X66419699Y5594043D01*
X66419699Y5594043D02*
X66627979Y5594043D01*
X66627979Y5594043D02*
X66766832Y5524616D01*
X66766832Y5524616D02*
X66836259Y5455190D01*
X66836259Y5455190D02*
X66905686Y5316336D01*
X66905686Y5316336D02*
X66905686Y4899776D01*
X66905686Y4899776D02*
X66836259Y4760923D01*
X66836259Y4760923D02*
X66766832Y4691496D01*
X66766832Y4691496D02*
X66627979Y4622070D01*
X66627979Y4622070D02*
X66419699Y4622070D01*
X67530526Y4622070D02*
X67530526Y5594043D01*
X67530526Y5316336D02*
X67599953Y5455190D01*
X67599953Y5455190D02*
X67669379Y5524616D01*
X67669379Y5524616D02*
X67808233Y5594043D01*
X67808233Y5594043D02*
X67947086Y5594043D01*
X69474473Y6149456D02*
X68224793Y4274936D01*
X70793580Y4622070D02*
X70307593Y5316336D01*
X69960460Y4622070D02*
X69960460Y6080030D01*
X69960460Y6080030D02*
X70515873Y6080030D01*
X70515873Y6080030D02*
X70654727Y6010603D01*
X70654727Y6010603D02*
X70724153Y5941176D01*
X70724153Y5941176D02*
X70793580Y5802323D01*
X70793580Y5802323D02*
X70793580Y5594043D01*
X70793580Y5594043D02*
X70724153Y5455190D01*
X70724153Y5455190D02*
X70654727Y5385763D01*
X70654727Y5385763D02*
X70515873Y5316336D01*
X70515873Y5316336D02*
X69960460Y5316336D01*
X71973833Y4691496D02*
X71834980Y4622070D01*
X71834980Y4622070D02*
X71557273Y4622070D01*
X71557273Y4622070D02*
X71418420Y4691496D01*
X71418420Y4691496D02*
X71348993Y4830350D01*
X71348993Y4830350D02*
X71348993Y5385763D01*
X71348993Y5385763D02*
X71418420Y5524616D01*
X71418420Y5524616D02*
X71557273Y5594043D01*
X71557273Y5594043D02*
X71834980Y5594043D01*
X71834980Y5594043D02*
X71973833Y5524616D01*
X71973833Y5524616D02*
X72043260Y5385763D01*
X72043260Y5385763D02*
X72043260Y5246910D01*
X72043260Y5246910D02*
X71348993Y5108056D01*
X72668100Y5594043D02*
X72668100Y4136083D01*
X72668100Y5524616D02*
X72806953Y5594043D01*
X72806953Y5594043D02*
X73084660Y5594043D01*
X73084660Y5594043D02*
X73223513Y5524616D01*
X73223513Y5524616D02*
X73292940Y5455190D01*
X73292940Y5455190D02*
X73362367Y5316336D01*
X73362367Y5316336D02*
X73362367Y4899776D01*
X73362367Y4899776D02*
X73292940Y4760923D01*
X73292940Y4760923D02*
X73223513Y4691496D01*
X73223513Y4691496D02*
X73084660Y4622070D01*
X73084660Y4622070D02*
X72806953Y4622070D01*
X72806953Y4622070D02*
X72668100Y4691496D01*
X74542620Y4691496D02*
X74403767Y4622070D01*
X74403767Y4622070D02*
X74126060Y4622070D01*
X74126060Y4622070D02*
X73987207Y4691496D01*
X73987207Y4691496D02*
X73917780Y4830350D01*
X73917780Y4830350D02*
X73917780Y5385763D01*
X73917780Y5385763D02*
X73987207Y5524616D01*
X73987207Y5524616D02*
X74126060Y5594043D01*
X74126060Y5594043D02*
X74403767Y5594043D01*
X74403767Y5594043D02*
X74542620Y5524616D01*
X74542620Y5524616D02*
X74612047Y5385763D01*
X74612047Y5385763D02*
X74612047Y5246910D01*
X74612047Y5246910D02*
X73917780Y5108056D01*
X75861727Y4622070D02*
X75861727Y5385763D01*
X75861727Y5385763D02*
X75792300Y5524616D01*
X75792300Y5524616D02*
X75653447Y5594043D01*
X75653447Y5594043D02*
X75375740Y5594043D01*
X75375740Y5594043D02*
X75236887Y5524616D01*
X75861727Y4691496D02*
X75722874Y4622070D01*
X75722874Y4622070D02*
X75375740Y4622070D01*
X75375740Y4622070D02*
X75236887Y4691496D01*
X75236887Y4691496D02*
X75167460Y4830350D01*
X75167460Y4830350D02*
X75167460Y4969203D01*
X75167460Y4969203D02*
X75236887Y5108056D01*
X75236887Y5108056D02*
X75375740Y5177483D01*
X75375740Y5177483D02*
X75722874Y5177483D01*
X75722874Y5177483D02*
X75861727Y5246910D01*
X76347714Y5594043D02*
X76903127Y5594043D01*
X76555994Y6080030D02*
X76555994Y4830350D01*
X76555994Y4830350D02*
X76625421Y4691496D01*
X76625421Y4691496D02*
X76764274Y4622070D01*
X76764274Y4622070D02*
X76903127Y4622070D01*
X77944527Y4691496D02*
X77805674Y4622070D01*
X77805674Y4622070D02*
X77527967Y4622070D01*
X77527967Y4622070D02*
X77389114Y4691496D01*
X77389114Y4691496D02*
X77319687Y4830350D01*
X77319687Y4830350D02*
X77319687Y5385763D01*
X77319687Y5385763D02*
X77389114Y5524616D01*
X77389114Y5524616D02*
X77527967Y5594043D01*
X77527967Y5594043D02*
X77805674Y5594043D01*
X77805674Y5594043D02*
X77944527Y5524616D01*
X77944527Y5524616D02*
X78013954Y5385763D01*
X78013954Y5385763D02*
X78013954Y5246910D01*
X78013954Y5246910D02*
X77319687Y5108056D01*
X78638794Y4622070D02*
X78638794Y5594043D01*
X78638794Y5316336D02*
X78708221Y5455190D01*
X78708221Y5455190D02*
X78777647Y5524616D01*
X78777647Y5524616D02*
X78916501Y5594043D01*
X78916501Y5594043D02*
X79055354Y5594043D01*
X52048378Y1622070D02*
X51215258Y1622070D01*
X51631818Y1622070D02*
X51631818Y3080030D01*
X51631818Y3080030D02*
X51492965Y2871750D01*
X51492965Y2871750D02*
X51354112Y2732896D01*
X51354112Y2732896D02*
X51215258Y2663470D01*
X52603791Y2941176D02*
X52673218Y3010603D01*
X52673218Y3010603D02*
X52812071Y3080030D01*
X52812071Y3080030D02*
X53159205Y3080030D01*
X53159205Y3080030D02*
X53298058Y3010603D01*
X53298058Y3010603D02*
X53367485Y2941176D01*
X53367485Y2941176D02*
X53436911Y2802323D01*
X53436911Y2802323D02*
X53436911Y2663470D01*
X53436911Y2663470D02*
X53367485Y2455190D01*
X53367485Y2455190D02*
X52534365Y1622070D01*
X52534365Y1622070D02*
X53436911Y1622070D01*
X53992324Y1691496D02*
X54131178Y1622070D01*
X54131178Y1622070D02*
X54408884Y1622070D01*
X54408884Y1622070D02*
X54547738Y1691496D01*
X54547738Y1691496D02*
X54617164Y1830350D01*
X54617164Y1830350D02*
X54617164Y1899776D01*
X54617164Y1899776D02*
X54547738Y2038630D01*
X54547738Y2038630D02*
X54408884Y2108056D01*
X54408884Y2108056D02*
X54200604Y2108056D01*
X54200604Y2108056D02*
X54061751Y2177483D01*
X54061751Y2177483D02*
X53992324Y2316336D01*
X53992324Y2316336D02*
X53992324Y2385763D01*
X53992324Y2385763D02*
X54061751Y2524616D01*
X54061751Y2524616D02*
X54200604Y2594043D01*
X54200604Y2594043D02*
X54408884Y2594043D01*
X54408884Y2594043D02*
X54547738Y2524616D01*
X56352831Y2177483D02*
X57463658Y2177483D01*
X59199324Y1691496D02*
X59407604Y1622070D01*
X59407604Y1622070D02*
X59754738Y1622070D01*
X59754738Y1622070D02*
X59893591Y1691496D01*
X59893591Y1691496D02*
X59963018Y1760923D01*
X59963018Y1760923D02*
X60032444Y1899776D01*
X60032444Y1899776D02*
X60032444Y2038630D01*
X60032444Y2038630D02*
X59963018Y2177483D01*
X59963018Y2177483D02*
X59893591Y2246910D01*
X59893591Y2246910D02*
X59754738Y2316336D01*
X59754738Y2316336D02*
X59477031Y2385763D01*
X59477031Y2385763D02*
X59338178Y2455190D01*
X59338178Y2455190D02*
X59268751Y2524616D01*
X59268751Y2524616D02*
X59199324Y2663470D01*
X59199324Y2663470D02*
X59199324Y2802323D01*
X59199324Y2802323D02*
X59268751Y2941176D01*
X59268751Y2941176D02*
X59338178Y3010603D01*
X59338178Y3010603D02*
X59477031Y3080030D01*
X59477031Y3080030D02*
X59824164Y3080030D01*
X59824164Y3080030D02*
X60032444Y3010603D01*
X60449004Y2594043D02*
X61004417Y2594043D01*
X60657284Y3080030D02*
X60657284Y1830350D01*
X60657284Y1830350D02*
X60726711Y1691496D01*
X60726711Y1691496D02*
X60865564Y1622070D01*
X60865564Y1622070D02*
X61004417Y1622070D01*
X62115244Y1622070D02*
X62115244Y2385763D01*
X62115244Y2385763D02*
X62045817Y2524616D01*
X62045817Y2524616D02*
X61906964Y2594043D01*
X61906964Y2594043D02*
X61629257Y2594043D01*
X61629257Y2594043D02*
X61490404Y2524616D01*
X62115244Y1691496D02*
X61976391Y1622070D01*
X61976391Y1622070D02*
X61629257Y1622070D01*
X61629257Y1622070D02*
X61490404Y1691496D01*
X61490404Y1691496D02*
X61420977Y1830350D01*
X61420977Y1830350D02*
X61420977Y1969203D01*
X61420977Y1969203D02*
X61490404Y2108056D01*
X61490404Y2108056D02*
X61629257Y2177483D01*
X61629257Y2177483D02*
X61976391Y2177483D01*
X61976391Y2177483D02*
X62115244Y2246910D01*
X62809511Y1622070D02*
X62809511Y2594043D01*
X62809511Y2316336D02*
X62878938Y2455190D01*
X62878938Y2455190D02*
X62948364Y2524616D01*
X62948364Y2524616D02*
X63087218Y2594043D01*
X63087218Y2594043D02*
X63226071Y2594043D01*
X63503778Y2594043D02*
X64059191Y2594043D01*
X63712058Y3080030D02*
X63712058Y1830350D01*
X63712058Y1830350D02*
X63781485Y1691496D01*
X63781485Y1691496D02*
X63920338Y1622070D01*
X63920338Y1622070D02*
X64059191Y1622070D01*
X65586578Y3149456D02*
X64336898Y1274936D01*
X66003138Y1691496D02*
X66211418Y1622070D01*
X66211418Y1622070D02*
X66558552Y1622070D01*
X66558552Y1622070D02*
X66697405Y1691496D01*
X66697405Y1691496D02*
X66766832Y1760923D01*
X66766832Y1760923D02*
X66836258Y1899776D01*
X66836258Y1899776D02*
X66836258Y2038630D01*
X66836258Y2038630D02*
X66766832Y2177483D01*
X66766832Y2177483D02*
X66697405Y2246910D01*
X66697405Y2246910D02*
X66558552Y2316336D01*
X66558552Y2316336D02*
X66280845Y2385763D01*
X66280845Y2385763D02*
X66141992Y2455190D01*
X66141992Y2455190D02*
X66072565Y2524616D01*
X66072565Y2524616D02*
X66003138Y2663470D01*
X66003138Y2663470D02*
X66003138Y2802323D01*
X66003138Y2802323D02*
X66072565Y2941176D01*
X66072565Y2941176D02*
X66141992Y3010603D01*
X66141992Y3010603D02*
X66280845Y3080030D01*
X66280845Y3080030D02*
X66627978Y3080030D01*
X66627978Y3080030D02*
X66836258Y3010603D01*
X67252818Y2594043D02*
X67808231Y2594043D01*
X67461098Y3080030D02*
X67461098Y1830350D01*
X67461098Y1830350D02*
X67530525Y1691496D01*
X67530525Y1691496D02*
X67669378Y1622070D01*
X67669378Y1622070D02*
X67808231Y1622070D01*
X68502498Y1622070D02*
X68363645Y1691496D01*
X68363645Y1691496D02*
X68294218Y1760923D01*
X68294218Y1760923D02*
X68224791Y1899776D01*
X68224791Y1899776D02*
X68224791Y2316336D01*
X68224791Y2316336D02*
X68294218Y2455190D01*
X68294218Y2455190D02*
X68363645Y2524616D01*
X68363645Y2524616D02*
X68502498Y2594043D01*
X68502498Y2594043D02*
X68710778Y2594043D01*
X68710778Y2594043D02*
X68849631Y2524616D01*
X68849631Y2524616D02*
X68919058Y2455190D01*
X68919058Y2455190D02*
X68988485Y2316336D01*
X68988485Y2316336D02*
X68988485Y1899776D01*
X68988485Y1899776D02*
X68919058Y1760923D01*
X68919058Y1760923D02*
X68849631Y1691496D01*
X68849631Y1691496D02*
X68710778Y1622070D01*
X68710778Y1622070D02*
X68502498Y1622070D01*
X69613325Y2594043D02*
X69613325Y1136083D01*
X69613325Y2524616D02*
X69752178Y2594043D01*
X69752178Y2594043D02*
X70029885Y2594043D01*
X70029885Y2594043D02*
X70168738Y2524616D01*
X70168738Y2524616D02*
X70238165Y2455190D01*
X70238165Y2455190D02*
X70307592Y2316336D01*
X70307592Y2316336D02*
X70307592Y1899776D01*
X70307592Y1899776D02*
X70238165Y1760923D01*
X70238165Y1760923D02*
X70168738Y1691496D01*
X70168738Y1691496D02*
X70029885Y1622070D01*
X70029885Y1622070D02*
X69752178Y1622070D01*
X69752178Y1622070D02*
X69613325Y1691496D01*
X72043259Y1622070D02*
X72043259Y3080030D01*
X72043259Y2524616D02*
X72182112Y2594043D01*
X72182112Y2594043D02*
X72459819Y2594043D01*
X72459819Y2594043D02*
X72598672Y2524616D01*
X72598672Y2524616D02*
X72668099Y2455190D01*
X72668099Y2455190D02*
X72737526Y2316336D01*
X72737526Y2316336D02*
X72737526Y1899776D01*
X72737526Y1899776D02*
X72668099Y1760923D01*
X72668099Y1760923D02*
X72598672Y1691496D01*
X72598672Y1691496D02*
X72459819Y1622070D01*
X72459819Y1622070D02*
X72182112Y1622070D01*
X72182112Y1622070D02*
X72043259Y1691496D01*
X73987206Y1622070D02*
X73987206Y2385763D01*
X73987206Y2385763D02*
X73917779Y2524616D01*
X73917779Y2524616D02*
X73778926Y2594043D01*
X73778926Y2594043D02*
X73501219Y2594043D01*
X73501219Y2594043D02*
X73362366Y2524616D01*
X73987206Y1691496D02*
X73848353Y1622070D01*
X73848353Y1622070D02*
X73501219Y1622070D01*
X73501219Y1622070D02*
X73362366Y1691496D01*
X73362366Y1691496D02*
X73292939Y1830350D01*
X73292939Y1830350D02*
X73292939Y1969203D01*
X73292939Y1969203D02*
X73362366Y2108056D01*
X73362366Y2108056D02*
X73501219Y2177483D01*
X73501219Y2177483D02*
X73848353Y2177483D01*
X73848353Y2177483D02*
X73987206Y2246910D01*
X74473193Y2594043D02*
X75028606Y2594043D01*
X74681473Y3080030D02*
X74681473Y1830350D01*
X74681473Y1830350D02*
X74750900Y1691496D01*
X74750900Y1691496D02*
X74889753Y1622070D01*
X74889753Y1622070D02*
X75028606Y1622070D01*
X75306313Y2594043D02*
X75861726Y2594043D01*
X75514593Y3080030D02*
X75514593Y1830350D01*
X75514593Y1830350D02*
X75584020Y1691496D01*
X75584020Y1691496D02*
X75722873Y1622070D01*
X75722873Y1622070D02*
X75861726Y1622070D01*
X76903126Y1691496D02*
X76764273Y1622070D01*
X76764273Y1622070D02*
X76486566Y1622070D01*
X76486566Y1622070D02*
X76347713Y1691496D01*
X76347713Y1691496D02*
X76278286Y1830350D01*
X76278286Y1830350D02*
X76278286Y2385763D01*
X76278286Y2385763D02*
X76347713Y2524616D01*
X76347713Y2524616D02*
X76486566Y2594043D01*
X76486566Y2594043D02*
X76764273Y2594043D01*
X76764273Y2594043D02*
X76903126Y2524616D01*
X76903126Y2524616D02*
X76972553Y2385763D01*
X76972553Y2385763D02*
X76972553Y2246910D01*
X76972553Y2246910D02*
X76278286Y2108056D01*
X77597393Y1622070D02*
X77597393Y2594043D01*
X77597393Y2316336D02*
X77666820Y2455190D01*
X77666820Y2455190D02*
X77736246Y2524616D01*
X77736246Y2524616D02*
X77875100Y2594043D01*
X77875100Y2594043D02*
X78013953Y2594043D01*
X78361087Y2594043D02*
X78708220Y1622070D01*
X79055353Y2594043D02*
X78708220Y1622070D01*
X78708220Y1622070D02*
X78569367Y1274936D01*
X78569367Y1274936D02*
X78499940Y1205510D01*
X78499940Y1205510D02*
X78361087Y1136083D01*
X81346434Y1691496D02*
X81207581Y1622070D01*
X81207581Y1622070D02*
X80929874Y1622070D01*
X80929874Y1622070D02*
X80791021Y1691496D01*
X80791021Y1691496D02*
X80721594Y1760923D01*
X80721594Y1760923D02*
X80652167Y1899776D01*
X80652167Y1899776D02*
X80652167Y2316336D01*
X80652167Y2316336D02*
X80721594Y2455190D01*
X80721594Y2455190D02*
X80791021Y2524616D01*
X80791021Y2524616D02*
X80929874Y2594043D01*
X80929874Y2594043D02*
X81207581Y2594043D01*
X81207581Y2594043D02*
X81346434Y2524616D01*
X81832421Y2594043D02*
X82179554Y1622070D01*
X82526687Y2594043D02*
X82179554Y1622070D01*
X82179554Y1622070D02*
X82040701Y1274936D01*
X82040701Y1274936D02*
X81971274Y1205510D01*
X81971274Y1205510D02*
X81832421Y1136083D01*
X83706941Y1691496D02*
X83568088Y1622070D01*
X83568088Y1622070D02*
X83290381Y1622070D01*
X83290381Y1622070D02*
X83151528Y1691496D01*
X83151528Y1691496D02*
X83082101Y1760923D01*
X83082101Y1760923D02*
X83012674Y1899776D01*
X83012674Y1899776D02*
X83012674Y2316336D01*
X83012674Y2316336D02*
X83082101Y2455190D01*
X83082101Y2455190D02*
X83151528Y2524616D01*
X83151528Y2524616D02*
X83290381Y2594043D01*
X83290381Y2594043D02*
X83568088Y2594043D01*
X83568088Y2594043D02*
X83706941Y2524616D01*
X84540061Y1622070D02*
X84401208Y1691496D01*
X84401208Y1691496D02*
X84331781Y1830350D01*
X84331781Y1830350D02*
X84331781Y3080030D01*
X85650887Y1691496D02*
X85512034Y1622070D01*
X85512034Y1622070D02*
X85234327Y1622070D01*
X85234327Y1622070D02*
X85095474Y1691496D01*
X85095474Y1691496D02*
X85026047Y1830350D01*
X85026047Y1830350D02*
X85026047Y2385763D01*
X85026047Y2385763D02*
X85095474Y2524616D01*
X85095474Y2524616D02*
X85234327Y2594043D01*
X85234327Y2594043D02*
X85512034Y2594043D01*
X85512034Y2594043D02*
X85650887Y2524616D01*
X85650887Y2524616D02*
X85720314Y2385763D01*
X85720314Y2385763D02*
X85720314Y2246910D01*
X85720314Y2246910D02*
X85026047Y2108056D01*
X87962392Y17780030D02*
X88240098Y17780030D01*
X88240098Y17780030D02*
X88378952Y17710603D01*
X88378952Y17710603D02*
X88517805Y17571750D01*
X88517805Y17571750D02*
X88587232Y17294043D01*
X88587232Y17294043D02*
X88587232Y16808056D01*
X88587232Y16808056D02*
X88517805Y16530350D01*
X88517805Y16530350D02*
X88378952Y16391496D01*
X88378952Y16391496D02*
X88240098Y16322070D01*
X88240098Y16322070D02*
X87962392Y16322070D01*
X87962392Y16322070D02*
X87823538Y16391496D01*
X87823538Y16391496D02*
X87684685Y16530350D01*
X87684685Y16530350D02*
X87615258Y16808056D01*
X87615258Y16808056D02*
X87615258Y17294043D01*
X87615258Y17294043D02*
X87684685Y17571750D01*
X87684685Y17571750D02*
X87823538Y17710603D01*
X87823538Y17710603D02*
X87962392Y17780030D01*
X89212072Y16322070D02*
X89212072Y17780030D01*
X89212072Y17780030D02*
X90045192Y16322070D01*
X90045192Y16322070D02*
X90045192Y17780030D01*
X71514541Y17780030D02*
X71792247Y17780030D01*
X71792247Y17780030D02*
X71931101Y17710603D01*
X71931101Y17710603D02*
X72069954Y17571750D01*
X72069954Y17571750D02*
X72139381Y17294043D01*
X72139381Y17294043D02*
X72139381Y16808056D01*
X72139381Y16808056D02*
X72069954Y16530350D01*
X72069954Y16530350D02*
X71931101Y16391496D01*
X71931101Y16391496D02*
X71792247Y16322070D01*
X71792247Y16322070D02*
X71514541Y16322070D01*
X71514541Y16322070D02*
X71375687Y16391496D01*
X71375687Y16391496D02*
X71236834Y16530350D01*
X71236834Y16530350D02*
X71167407Y16808056D01*
X71167407Y16808056D02*
X71167407Y17294043D01*
X71167407Y17294043D02*
X71236834Y17571750D01*
X71236834Y17571750D02*
X71375687Y17710603D01*
X71375687Y17710603D02*
X71514541Y17780030D01*
X73250208Y17085763D02*
X72764221Y17085763D01*
X72764221Y16322070D02*
X72764221Y17780030D01*
X72764221Y17780030D02*
X73458488Y17780030D01*
X74499888Y17085763D02*
X74013901Y17085763D01*
X74013901Y16322070D02*
X74013901Y17780030D01*
X74013901Y17780030D02*
X74708168Y17780030D01*
D15*
X17497656Y26544444D02*
X18145356Y26544444D01*
X18422942Y25526630D02*
X17497656Y25526630D01*
X17497656Y25526630D02*
X17497656Y27469730D01*
X17497656Y27469730D02*
X18422942Y27469730D01*
X19070642Y27469730D02*
X20366042Y25526630D01*
X20366042Y27469730D02*
X19070642Y25526630D01*
X21106270Y25526630D02*
X21106270Y27469730D01*
X21106270Y27469730D02*
X21846499Y27469730D01*
X21846499Y27469730D02*
X22031556Y27377201D01*
X22031556Y27377201D02*
X22124085Y27284673D01*
X22124085Y27284673D02*
X22216613Y27099616D01*
X22216613Y27099616D02*
X22216613Y26822030D01*
X22216613Y26822030D02*
X22124085Y26636973D01*
X22124085Y26636973D02*
X22031556Y26544444D01*
X22031556Y26544444D02*
X21846499Y26451916D01*
X21846499Y26451916D02*
X21106270Y26451916D01*
X22956842Y26081801D02*
X23882128Y26081801D01*
X22771785Y25526630D02*
X23419485Y27469730D01*
X23419485Y27469730D02*
X24067185Y25526630D01*
X24714884Y25526630D02*
X24714884Y27469730D01*
X24714884Y27469730D02*
X25825227Y25526630D01*
X25825227Y25526630D02*
X25825227Y27469730D01*
X26657985Y25619158D02*
X26935571Y25526630D01*
X26935571Y25526630D02*
X27398213Y25526630D01*
X27398213Y25526630D02*
X27583271Y25619158D01*
X27583271Y25619158D02*
X27675799Y25711687D01*
X27675799Y25711687D02*
X27768328Y25896744D01*
X27768328Y25896744D02*
X27768328Y26081801D01*
X27768328Y26081801D02*
X27675799Y26266858D01*
X27675799Y26266858D02*
X27583271Y26359387D01*
X27583271Y26359387D02*
X27398213Y26451916D01*
X27398213Y26451916D02*
X27028099Y26544444D01*
X27028099Y26544444D02*
X26843042Y26636973D01*
X26843042Y26636973D02*
X26750513Y26729501D01*
X26750513Y26729501D02*
X26657985Y26914558D01*
X26657985Y26914558D02*
X26657985Y27099616D01*
X26657985Y27099616D02*
X26750513Y27284673D01*
X26750513Y27284673D02*
X26843042Y27377201D01*
X26843042Y27377201D02*
X27028099Y27469730D01*
X27028099Y27469730D02*
X27490742Y27469730D01*
X27490742Y27469730D02*
X27768328Y27377201D01*
X28601084Y25526630D02*
X28601084Y27469730D01*
X29896485Y27469730D02*
X30266599Y27469730D01*
X30266599Y27469730D02*
X30451656Y27377201D01*
X30451656Y27377201D02*
X30636713Y27192144D01*
X30636713Y27192144D02*
X30729242Y26822030D01*
X30729242Y26822030D02*
X30729242Y26174330D01*
X30729242Y26174330D02*
X30636713Y25804216D01*
X30636713Y25804216D02*
X30451656Y25619158D01*
X30451656Y25619158D02*
X30266599Y25526630D01*
X30266599Y25526630D02*
X29896485Y25526630D01*
X29896485Y25526630D02*
X29711428Y25619158D01*
X29711428Y25619158D02*
X29526370Y25804216D01*
X29526370Y25804216D02*
X29433842Y26174330D01*
X29433842Y26174330D02*
X29433842Y26822030D01*
X29433842Y26822030D02*
X29526370Y27192144D01*
X29526370Y27192144D02*
X29711428Y27377201D01*
X29711428Y27377201D02*
X29896485Y27469730D01*
X31561999Y25526630D02*
X31561999Y27469730D01*
X31561999Y27469730D02*
X32672342Y25526630D01*
X32672342Y25526630D02*
X32672342Y27469730D01*
X44882892Y27469730D02*
X45253006Y27469730D01*
X45253006Y27469730D02*
X45438063Y27377201D01*
X45438063Y27377201D02*
X45623120Y27192144D01*
X45623120Y27192144D02*
X45715649Y26822030D01*
X45715649Y26822030D02*
X45715649Y26174330D01*
X45715649Y26174330D02*
X45623120Y25804216D01*
X45623120Y25804216D02*
X45438063Y25619158D01*
X45438063Y25619158D02*
X45253006Y25526630D01*
X45253006Y25526630D02*
X44882892Y25526630D01*
X44882892Y25526630D02*
X44697835Y25619158D01*
X44697835Y25619158D02*
X44512777Y25804216D01*
X44512777Y25804216D02*
X44420249Y26174330D01*
X44420249Y26174330D02*
X44420249Y26822030D01*
X44420249Y26822030D02*
X44512777Y27192144D01*
X44512777Y27192144D02*
X44697835Y27377201D01*
X44697835Y27377201D02*
X44882892Y27469730D01*
X46548406Y25526630D02*
X46548406Y27469730D01*
X46548406Y27469730D02*
X47288635Y27469730D01*
X47288635Y27469730D02*
X47473692Y27377201D01*
X47473692Y27377201D02*
X47566221Y27284673D01*
X47566221Y27284673D02*
X47658749Y27099616D01*
X47658749Y27099616D02*
X47658749Y26822030D01*
X47658749Y26822030D02*
X47566221Y26636973D01*
X47566221Y26636973D02*
X47473692Y26544444D01*
X47473692Y26544444D02*
X47288635Y26451916D01*
X47288635Y26451916D02*
X46548406Y26451916D01*
X48213921Y27469730D02*
X49324264Y27469730D01*
X48769092Y25526630D02*
X48769092Y27469730D01*
X49971963Y25526630D02*
X49971963Y27469730D01*
X51267364Y27469730D02*
X51637478Y27469730D01*
X51637478Y27469730D02*
X51822535Y27377201D01*
X51822535Y27377201D02*
X52007592Y27192144D01*
X52007592Y27192144D02*
X52100121Y26822030D01*
X52100121Y26822030D02*
X52100121Y26174330D01*
X52100121Y26174330D02*
X52007592Y25804216D01*
X52007592Y25804216D02*
X51822535Y25619158D01*
X51822535Y25619158D02*
X51637478Y25526630D01*
X51637478Y25526630D02*
X51267364Y25526630D01*
X51267364Y25526630D02*
X51082307Y25619158D01*
X51082307Y25619158D02*
X50897249Y25804216D01*
X50897249Y25804216D02*
X50804721Y26174330D01*
X50804721Y26174330D02*
X50804721Y26822030D01*
X50804721Y26822030D02*
X50897249Y27192144D01*
X50897249Y27192144D02*
X51082307Y27377201D01*
X51082307Y27377201D02*
X51267364Y27469730D01*
X52932878Y25526630D02*
X52932878Y27469730D01*
X52932878Y27469730D02*
X54043221Y25526630D01*
X54043221Y25526630D02*
X54043221Y27469730D01*
X76520250Y26544444D02*
X76797836Y26451916D01*
X76797836Y26451916D02*
X76890365Y26359387D01*
X76890365Y26359387D02*
X76982893Y26174330D01*
X76982893Y26174330D02*
X76982893Y25896744D01*
X76982893Y25896744D02*
X76890365Y25711687D01*
X76890365Y25711687D02*
X76797836Y25619158D01*
X76797836Y25619158D02*
X76612779Y25526630D01*
X76612779Y25526630D02*
X75872550Y25526630D01*
X75872550Y25526630D02*
X75872550Y27469730D01*
X75872550Y27469730D02*
X76520250Y27469730D01*
X76520250Y27469730D02*
X76705308Y27377201D01*
X76705308Y27377201D02*
X76797836Y27284673D01*
X76797836Y27284673D02*
X76890365Y27099616D01*
X76890365Y27099616D02*
X76890365Y26914558D01*
X76890365Y26914558D02*
X76797836Y26729501D01*
X76797836Y26729501D02*
X76705308Y26636973D01*
X76705308Y26636973D02*
X76520250Y26544444D01*
X76520250Y26544444D02*
X75872550Y26544444D01*
X77723122Y26081801D02*
X78648408Y26081801D01*
X77538065Y25526630D02*
X78185765Y27469730D01*
X78185765Y27469730D02*
X78833465Y25526630D01*
X79203579Y27469730D02*
X80313922Y27469730D01*
X79758750Y25526630D02*
X79758750Y27469730D01*
X80684036Y27469730D02*
X81794379Y27469730D01*
X81239207Y25526630D02*
X81239207Y27469730D01*
X82442078Y26544444D02*
X83089778Y26544444D01*
X83367364Y25526630D02*
X82442078Y25526630D01*
X82442078Y25526630D02*
X82442078Y27469730D01*
X82442078Y27469730D02*
X83367364Y27469730D01*
X85310464Y25526630D02*
X84662764Y26451916D01*
X84200121Y25526630D02*
X84200121Y27469730D01*
X84200121Y27469730D02*
X84940350Y27469730D01*
X84940350Y27469730D02*
X85125407Y27377201D01*
X85125407Y27377201D02*
X85217936Y27284673D01*
X85217936Y27284673D02*
X85310464Y27099616D01*
X85310464Y27099616D02*
X85310464Y26822030D01*
X85310464Y26822030D02*
X85217936Y26636973D01*
X85217936Y26636973D02*
X85125407Y26544444D01*
X85125407Y26544444D02*
X84940350Y26451916D01*
X84940350Y26451916D02*
X84200121Y26451916D01*
X86513336Y26451916D02*
X86513336Y25526630D01*
X85865636Y27469730D02*
X86513336Y26451916D01*
X86513336Y26451916D02*
X87161036Y27469730D01*
X99382984Y25336350D02*
X99382984Y25706464D01*
X99382984Y25706464D02*
X99475513Y25891521D01*
X99475513Y25891521D02*
X99660570Y26076578D01*
X99660570Y26076578D02*
X100030684Y26169107D01*
X100030684Y26169107D02*
X100678384Y26169107D01*
X100678384Y26169107D02*
X101048498Y26076578D01*
X101048498Y26076578D02*
X101233556Y25891521D01*
X101233556Y25891521D02*
X101326084Y25706464D01*
X101326084Y25706464D02*
X101326084Y25336350D01*
X101326084Y25336350D02*
X101233556Y25151292D01*
X101233556Y25151292D02*
X101048498Y24966235D01*
X101048498Y24966235D02*
X100678384Y24873707D01*
X100678384Y24873707D02*
X100030684Y24873707D01*
X100030684Y24873707D02*
X99660570Y24966235D01*
X99660570Y24966235D02*
X99475513Y25151292D01*
X99475513Y25151292D02*
X99382984Y25336350D01*
X99382984Y27001864D02*
X100955970Y27001864D01*
X100955970Y27001864D02*
X101141027Y27094393D01*
X101141027Y27094393D02*
X101233556Y27186921D01*
X101233556Y27186921D02*
X101326084Y27371979D01*
X101326084Y27371979D02*
X101326084Y27742093D01*
X101326084Y27742093D02*
X101233556Y27927150D01*
X101233556Y27927150D02*
X101141027Y28019679D01*
X101141027Y28019679D02*
X100955970Y28112207D01*
X100955970Y28112207D02*
X99382984Y28112207D01*
X99382984Y28759908D02*
X99382984Y29870250D01*
X101326084Y29315079D02*
X99382984Y29315079D01*
X99382984Y30888065D02*
X99382984Y31073122D01*
X99382984Y31073122D02*
X99475513Y31258179D01*
X99475513Y31258179D02*
X99568041Y31350707D01*
X99568041Y31350707D02*
X99753098Y31443236D01*
X99753098Y31443236D02*
X100123213Y31535765D01*
X100123213Y31535765D02*
X100585856Y31535765D01*
X100585856Y31535765D02*
X100955970Y31443236D01*
X100955970Y31443236D02*
X101141027Y31350707D01*
X101141027Y31350707D02*
X101233556Y31258179D01*
X101233556Y31258179D02*
X101326084Y31073122D01*
X101326084Y31073122D02*
X101326084Y30888065D01*
X101326084Y30888065D02*
X101233556Y30703007D01*
X101233556Y30703007D02*
X101141027Y30610479D01*
X101141027Y30610479D02*
X100955970Y30517950D01*
X100955970Y30517950D02*
X100585856Y30425422D01*
X100585856Y30425422D02*
X100123213Y30425422D01*
X100123213Y30425422D02*
X99753098Y30517950D01*
X99753098Y30517950D02*
X99568041Y30610479D01*
X99568041Y30610479D02*
X99475513Y30703007D01*
X99475513Y30703007D02*
X99382984Y30888065D01*
X104712984Y25336350D02*
X104712984Y25706464D01*
X104712984Y25706464D02*
X104805513Y25891521D01*
X104805513Y25891521D02*
X104990570Y26076578D01*
X104990570Y26076578D02*
X105360684Y26169107D01*
X105360684Y26169107D02*
X106008384Y26169107D01*
X106008384Y26169107D02*
X106378498Y26076578D01*
X106378498Y26076578D02*
X106563556Y25891521D01*
X106563556Y25891521D02*
X106656084Y25706464D01*
X106656084Y25706464D02*
X106656084Y25336350D01*
X106656084Y25336350D02*
X106563556Y25151292D01*
X106563556Y25151292D02*
X106378498Y24966235D01*
X106378498Y24966235D02*
X106008384Y24873707D01*
X106008384Y24873707D02*
X105360684Y24873707D01*
X105360684Y24873707D02*
X104990570Y24966235D01*
X104990570Y24966235D02*
X104805513Y25151292D01*
X104805513Y25151292D02*
X104712984Y25336350D01*
X104712984Y27001864D02*
X106285970Y27001864D01*
X106285970Y27001864D02*
X106471027Y27094393D01*
X106471027Y27094393D02*
X106563556Y27186921D01*
X106563556Y27186921D02*
X106656084Y27371979D01*
X106656084Y27371979D02*
X106656084Y27742093D01*
X106656084Y27742093D02*
X106563556Y27927150D01*
X106563556Y27927150D02*
X106471027Y28019679D01*
X106471027Y28019679D02*
X106285970Y28112207D01*
X106285970Y28112207D02*
X104712984Y28112207D01*
X104712984Y28759908D02*
X104712984Y29870250D01*
X106656084Y29315079D02*
X104712984Y29315079D01*
X106656084Y31535765D02*
X106656084Y30425422D01*
X106656084Y30980593D02*
X104712984Y30980593D01*
X104712984Y30980593D02*
X104990570Y30795536D01*
X104990570Y30795536D02*
X105175627Y30610479D01*
X105175627Y30610479D02*
X105268156Y30425422D01*
X110042984Y25336350D02*
X110042984Y25706464D01*
X110042984Y25706464D02*
X110135513Y25891521D01*
X110135513Y25891521D02*
X110320570Y26076578D01*
X110320570Y26076578D02*
X110690684Y26169107D01*
X110690684Y26169107D02*
X111338384Y26169107D01*
X111338384Y26169107D02*
X111708498Y26076578D01*
X111708498Y26076578D02*
X111893556Y25891521D01*
X111893556Y25891521D02*
X111986084Y25706464D01*
X111986084Y25706464D02*
X111986084Y25336350D01*
X111986084Y25336350D02*
X111893556Y25151292D01*
X111893556Y25151292D02*
X111708498Y24966235D01*
X111708498Y24966235D02*
X111338384Y24873707D01*
X111338384Y24873707D02*
X110690684Y24873707D01*
X110690684Y24873707D02*
X110320570Y24966235D01*
X110320570Y24966235D02*
X110135513Y25151292D01*
X110135513Y25151292D02*
X110042984Y25336350D01*
X110042984Y27001864D02*
X111615970Y27001864D01*
X111615970Y27001864D02*
X111801027Y27094393D01*
X111801027Y27094393D02*
X111893556Y27186921D01*
X111893556Y27186921D02*
X111986084Y27371979D01*
X111986084Y27371979D02*
X111986084Y27742093D01*
X111986084Y27742093D02*
X111893556Y27927150D01*
X111893556Y27927150D02*
X111801027Y28019679D01*
X111801027Y28019679D02*
X111615970Y28112207D01*
X111615970Y28112207D02*
X110042984Y28112207D01*
X110042984Y28759908D02*
X110042984Y29870250D01*
X111986084Y29315079D02*
X110042984Y29315079D01*
X110228041Y30425422D02*
X110135513Y30517950D01*
X110135513Y30517950D02*
X110042984Y30703007D01*
X110042984Y30703007D02*
X110042984Y31165650D01*
X110042984Y31165650D02*
X110135513Y31350707D01*
X110135513Y31350707D02*
X110228041Y31443236D01*
X110228041Y31443236D02*
X110413098Y31535765D01*
X110413098Y31535765D02*
X110598156Y31535765D01*
X110598156Y31535765D02*
X110875741Y31443236D01*
X110875741Y31443236D02*
X111986084Y30332893D01*
X111986084Y30332893D02*
X111986084Y31535765D01*
X117320084Y25891521D02*
X117320084Y24966235D01*
X117320084Y24966235D02*
X115376984Y24966235D01*
X115376984Y26909336D02*
X115376984Y27279450D01*
X115376984Y27279450D02*
X115469513Y27464507D01*
X115469513Y27464507D02*
X115654570Y27649564D01*
X115654570Y27649564D02*
X116024684Y27742093D01*
X116024684Y27742093D02*
X116672384Y27742093D01*
X116672384Y27742093D02*
X117042498Y27649564D01*
X117042498Y27649564D02*
X117227556Y27464507D01*
X117227556Y27464507D02*
X117320084Y27279450D01*
X117320084Y27279450D02*
X117320084Y26909336D01*
X117320084Y26909336D02*
X117227556Y26724278D01*
X117227556Y26724278D02*
X117042498Y26539221D01*
X117042498Y26539221D02*
X116672384Y26446693D01*
X116672384Y26446693D02*
X116024684Y26446693D01*
X116024684Y26446693D02*
X115654570Y26539221D01*
X115654570Y26539221D02*
X115469513Y26724278D01*
X115469513Y26724278D02*
X115376984Y26909336D01*
X117135027Y29685193D02*
X117227556Y29592665D01*
X117227556Y29592665D02*
X117320084Y29315079D01*
X117320084Y29315079D02*
X117320084Y29130022D01*
X117320084Y29130022D02*
X117227556Y28852436D01*
X117227556Y28852436D02*
X117042498Y28667379D01*
X117042498Y28667379D02*
X116857441Y28574850D01*
X116857441Y28574850D02*
X116487327Y28482322D01*
X116487327Y28482322D02*
X116209741Y28482322D01*
X116209741Y28482322D02*
X115839627Y28574850D01*
X115839627Y28574850D02*
X115654570Y28667379D01*
X115654570Y28667379D02*
X115469513Y28852436D01*
X115469513Y28852436D02*
X115376984Y29130022D01*
X115376984Y29130022D02*
X115376984Y29315079D01*
X115376984Y29315079D02*
X115469513Y29592665D01*
X115469513Y29592665D02*
X115562041Y29685193D01*
X117320084Y30517950D02*
X115376984Y30517950D01*
X117320084Y31628293D02*
X116209741Y30795536D01*
X115376984Y31628293D02*
X116487327Y30517950D01*
X120710984Y25336350D02*
X120710984Y25706464D01*
X120710984Y25706464D02*
X120803513Y25891521D01*
X120803513Y25891521D02*
X120988570Y26076578D01*
X120988570Y26076578D02*
X121358684Y26169107D01*
X121358684Y26169107D02*
X122006384Y26169107D01*
X122006384Y26169107D02*
X122376498Y26076578D01*
X122376498Y26076578D02*
X122561556Y25891521D01*
X122561556Y25891521D02*
X122654084Y25706464D01*
X122654084Y25706464D02*
X122654084Y25336350D01*
X122654084Y25336350D02*
X122561556Y25151292D01*
X122561556Y25151292D02*
X122376498Y24966235D01*
X122376498Y24966235D02*
X122006384Y24873707D01*
X122006384Y24873707D02*
X121358684Y24873707D01*
X121358684Y24873707D02*
X120988570Y24966235D01*
X120988570Y24966235D02*
X120803513Y25151292D01*
X120803513Y25151292D02*
X120710984Y25336350D01*
X122654084Y27001864D02*
X120710984Y27001864D01*
X120710984Y27001864D02*
X122654084Y28112207D01*
X122654084Y28112207D02*
X120710984Y28112207D01*
X99382984Y7322880D02*
X99382984Y7692994D01*
X99382984Y7692994D02*
X99475513Y7878051D01*
X99475513Y7878051D02*
X99660570Y8063108D01*
X99660570Y8063108D02*
X100030684Y8155637D01*
X100030684Y8155637D02*
X100678384Y8155637D01*
X100678384Y8155637D02*
X101048498Y8063108D01*
X101048498Y8063108D02*
X101233556Y7878051D01*
X101233556Y7878051D02*
X101326084Y7692994D01*
X101326084Y7692994D02*
X101326084Y7322880D01*
X101326084Y7322880D02*
X101233556Y7137822D01*
X101233556Y7137822D02*
X101048498Y6952765D01*
X101048498Y6952765D02*
X100678384Y6860237D01*
X100678384Y6860237D02*
X100030684Y6860237D01*
X100030684Y6860237D02*
X99660570Y6952765D01*
X99660570Y6952765D02*
X99475513Y7137822D01*
X99475513Y7137822D02*
X99382984Y7322880D01*
X99382984Y8988394D02*
X100955970Y8988394D01*
X100955970Y8988394D02*
X101141027Y9080923D01*
X101141027Y9080923D02*
X101233556Y9173451D01*
X101233556Y9173451D02*
X101326084Y9358509D01*
X101326084Y9358509D02*
X101326084Y9728623D01*
X101326084Y9728623D02*
X101233556Y9913680D01*
X101233556Y9913680D02*
X101141027Y10006209D01*
X101141027Y10006209D02*
X100955970Y10098737D01*
X100955970Y10098737D02*
X99382984Y10098737D01*
X99382984Y10746438D02*
X99382984Y11856780D01*
X101326084Y11301609D02*
X99382984Y11301609D01*
X99382984Y12319423D02*
X99382984Y13522295D01*
X99382984Y13522295D02*
X100123213Y12874595D01*
X100123213Y12874595D02*
X100123213Y13152180D01*
X100123213Y13152180D02*
X100215741Y13337237D01*
X100215741Y13337237D02*
X100308270Y13429766D01*
X100308270Y13429766D02*
X100493327Y13522295D01*
X100493327Y13522295D02*
X100955970Y13522295D01*
X100955970Y13522295D02*
X101141027Y13429766D01*
X101141027Y13429766D02*
X101233556Y13337237D01*
X101233556Y13337237D02*
X101326084Y13152180D01*
X101326084Y13152180D02*
X101326084Y12597009D01*
X101326084Y12597009D02*
X101233556Y12411952D01*
X101233556Y12411952D02*
X101141027Y12319423D01*
X104712984Y7322880D02*
X104712984Y7692994D01*
X104712984Y7692994D02*
X104805513Y7878051D01*
X104805513Y7878051D02*
X104990570Y8063108D01*
X104990570Y8063108D02*
X105360684Y8155637D01*
X105360684Y8155637D02*
X106008384Y8155637D01*
X106008384Y8155637D02*
X106378498Y8063108D01*
X106378498Y8063108D02*
X106563556Y7878051D01*
X106563556Y7878051D02*
X106656084Y7692994D01*
X106656084Y7692994D02*
X106656084Y7322880D01*
X106656084Y7322880D02*
X106563556Y7137822D01*
X106563556Y7137822D02*
X106378498Y6952765D01*
X106378498Y6952765D02*
X106008384Y6860237D01*
X106008384Y6860237D02*
X105360684Y6860237D01*
X105360684Y6860237D02*
X104990570Y6952765D01*
X104990570Y6952765D02*
X104805513Y7137822D01*
X104805513Y7137822D02*
X104712984Y7322880D01*
X104712984Y8988394D02*
X106285970Y8988394D01*
X106285970Y8988394D02*
X106471027Y9080923D01*
X106471027Y9080923D02*
X106563556Y9173451D01*
X106563556Y9173451D02*
X106656084Y9358509D01*
X106656084Y9358509D02*
X106656084Y9728623D01*
X106656084Y9728623D02*
X106563556Y9913680D01*
X106563556Y9913680D02*
X106471027Y10006209D01*
X106471027Y10006209D02*
X106285970Y10098737D01*
X106285970Y10098737D02*
X104712984Y10098737D01*
X104712984Y10746438D02*
X104712984Y11856780D01*
X106656084Y11301609D02*
X104712984Y11301609D01*
X105360684Y13337237D02*
X106656084Y13337237D01*
X104620456Y12874595D02*
X106008384Y12411952D01*
X106008384Y12411952D02*
X106008384Y13614823D01*
X110042984Y7322880D02*
X110042984Y7692994D01*
X110042984Y7692994D02*
X110135513Y7878051D01*
X110135513Y7878051D02*
X110320570Y8063108D01*
X110320570Y8063108D02*
X110690684Y8155637D01*
X110690684Y8155637D02*
X111338384Y8155637D01*
X111338384Y8155637D02*
X111708498Y8063108D01*
X111708498Y8063108D02*
X111893556Y7878051D01*
X111893556Y7878051D02*
X111986084Y7692994D01*
X111986084Y7692994D02*
X111986084Y7322880D01*
X111986084Y7322880D02*
X111893556Y7137822D01*
X111893556Y7137822D02*
X111708498Y6952765D01*
X111708498Y6952765D02*
X111338384Y6860237D01*
X111338384Y6860237D02*
X110690684Y6860237D01*
X110690684Y6860237D02*
X110320570Y6952765D01*
X110320570Y6952765D02*
X110135513Y7137822D01*
X110135513Y7137822D02*
X110042984Y7322880D01*
X110042984Y8988394D02*
X111615970Y8988394D01*
X111615970Y8988394D02*
X111801027Y9080923D01*
X111801027Y9080923D02*
X111893556Y9173451D01*
X111893556Y9173451D02*
X111986084Y9358509D01*
X111986084Y9358509D02*
X111986084Y9728623D01*
X111986084Y9728623D02*
X111893556Y9913680D01*
X111893556Y9913680D02*
X111801027Y10006209D01*
X111801027Y10006209D02*
X111615970Y10098737D01*
X111615970Y10098737D02*
X110042984Y10098737D01*
X110042984Y10746438D02*
X110042984Y11856780D01*
X111986084Y11301609D02*
X110042984Y11301609D01*
X110042984Y13429766D02*
X110042984Y12504480D01*
X110042984Y12504480D02*
X110968270Y12411952D01*
X110968270Y12411952D02*
X110875741Y12504480D01*
X110875741Y12504480D02*
X110783213Y12689537D01*
X110783213Y12689537D02*
X110783213Y13152180D01*
X110783213Y13152180D02*
X110875741Y13337237D01*
X110875741Y13337237D02*
X110968270Y13429766D01*
X110968270Y13429766D02*
X111153327Y13522295D01*
X111153327Y13522295D02*
X111615970Y13522295D01*
X111615970Y13522295D02*
X111801027Y13429766D01*
X111801027Y13429766D02*
X111893556Y13337237D01*
X111893556Y13337237D02*
X111986084Y13152180D01*
X111986084Y13152180D02*
X111986084Y12689537D01*
X111986084Y12689537D02*
X111893556Y12504480D01*
X111893556Y12504480D02*
X111801027Y12411952D01*
X117320084Y4917137D02*
X116394798Y4269437D01*
X117320084Y3806794D02*
X115376984Y3806794D01*
X115376984Y3806794D02*
X115376984Y4547023D01*
X115376984Y4547023D02*
X115469513Y4732080D01*
X115469513Y4732080D02*
X115562041Y4824609D01*
X115562041Y4824609D02*
X115747098Y4917137D01*
X115747098Y4917137D02*
X116024684Y4917137D01*
X116024684Y4917137D02*
X116209741Y4824609D01*
X116209741Y4824609D02*
X116302270Y4732080D01*
X116302270Y4732080D02*
X116394798Y4547023D01*
X116394798Y4547023D02*
X116394798Y3806794D01*
X116302270Y5749894D02*
X116302270Y6397594D01*
X117320084Y6675180D02*
X117320084Y5749894D01*
X117320084Y5749894D02*
X115376984Y5749894D01*
X115376984Y5749894D02*
X115376984Y6675180D01*
X117320084Y7507937D02*
X115376984Y7507937D01*
X115376984Y7507937D02*
X115376984Y8248166D01*
X115376984Y8248166D02*
X115469513Y8433223D01*
X115469513Y8433223D02*
X115562041Y8525752D01*
X115562041Y8525752D02*
X115747098Y8618280D01*
X115747098Y8618280D02*
X116024684Y8618280D01*
X116024684Y8618280D02*
X116209741Y8525752D01*
X116209741Y8525752D02*
X116302270Y8433223D01*
X116302270Y8433223D02*
X116394798Y8248166D01*
X116394798Y8248166D02*
X116394798Y7507937D01*
X116302270Y9451037D02*
X116302270Y10098737D01*
X117320084Y10376323D02*
X117320084Y9451037D01*
X117320084Y9451037D02*
X115376984Y9451037D01*
X115376984Y9451037D02*
X115376984Y10376323D01*
X116764913Y11116552D02*
X116764913Y12041837D01*
X117320084Y10931495D02*
X115376984Y11579195D01*
X115376984Y11579195D02*
X117320084Y12226895D01*
X115376984Y12597009D02*
X115376984Y13707351D01*
X117320084Y13152180D02*
X115376984Y13152180D01*
X122561556Y6027481D02*
X122654084Y6305066D01*
X122654084Y6305066D02*
X122654084Y6767709D01*
X122654084Y6767709D02*
X122561556Y6952766D01*
X122561556Y6952766D02*
X122469027Y7045295D01*
X122469027Y7045295D02*
X122283970Y7137824D01*
X122283970Y7137824D02*
X122098913Y7137824D01*
X122098913Y7137824D02*
X121913856Y7045295D01*
X121913856Y7045295D02*
X121821327Y6952766D01*
X121821327Y6952766D02*
X121728798Y6767709D01*
X121728798Y6767709D02*
X121636270Y6397595D01*
X121636270Y6397595D02*
X121543741Y6212538D01*
X121543741Y6212538D02*
X121451213Y6120009D01*
X121451213Y6120009D02*
X121266156Y6027481D01*
X121266156Y6027481D02*
X121081098Y6027481D01*
X121081098Y6027481D02*
X120896041Y6120009D01*
X120896041Y6120009D02*
X120803513Y6212538D01*
X120803513Y6212538D02*
X120710984Y6397595D01*
X120710984Y6397595D02*
X120710984Y6860238D01*
X120710984Y6860238D02*
X120803513Y7137824D01*
X120710984Y7692995D02*
X120710984Y8803337D01*
X122654084Y8248166D02*
X120710984Y8248166D01*
X122098913Y9358509D02*
X122098913Y10283794D01*
X122654084Y9173452D02*
X120710984Y9821152D01*
X120710984Y9821152D02*
X122654084Y10468852D01*
X120710984Y10838966D02*
X120710984Y11949308D01*
X122654084Y11394137D02*
X120710984Y11394137D01*
X121636270Y12597008D02*
X121636270Y13244708D01*
X122654084Y13522294D02*
X122654084Y12597008D01*
X122654084Y12597008D02*
X120710984Y12597008D01*
X120710984Y12597008D02*
X120710984Y13522294D01*
M02*
