%TF.GenerationSoftware,KiCad,Pcbnew,10.0.3*%
%TF.CreationDate,2026-06-03T09:46:17+01:00*%
%TF.ProjectId,harp timestamp generator Gen3 front panel,68617270-2074-4696-9d65-7374616d7020,rev?*%
%TF.SameCoordinates,PX4e14cb4PY74f31c8*%
%TF.FileFunction,Copper,L1,Top*%
%TF.FilePolarity,Positive*%
%FSLAX46Y46*%
G04 Gerber Fmt 4.6, Leading zero omitted, Abs format (unit mm)*
G04 Created by KiCad (PCBNEW 10.0.3) date 2026-06-03 09:46:17*
%MOMM*%
%LPD*%
G01*
G04 APERTURE LIST*
%TA.AperFunction,ViaPad*%
%ADD10C,4.316000*%
%TD*%
G04 APERTURE END LIST*
D10*
%TO.N,GND*%
X6048000Y5797000D03*
X6048000Y30787000D03*
X127048000Y30787000D03*
X127048000Y5797000D03*
%TD*%
%TA.AperFunction,Conductor*%
%TO.N,GND*%
G36*
X130128640Y35101415D02*
G01*
X130434643Y35085377D01*
X130441145Y35084695D01*
X130742218Y35037010D01*
X130748591Y35035654D01*
X131043011Y34956764D01*
X131049213Y34954750D01*
X131296623Y34859778D01*
X131333782Y34845514D01*
X131339758Y34842853D01*
X131397262Y34813553D01*
X131611338Y34704476D01*
X131616986Y34701215D01*
X131872622Y34535204D01*
X131877903Y34531368D01*
X131939508Y34481481D01*
X132114789Y34339541D01*
X132119650Y34335163D01*
X132335162Y34119651D01*
X132339540Y34114790D01*
X132531362Y33877910D01*
X132535207Y33872617D01*
X132701209Y33616996D01*
X132704480Y33611330D01*
X132842852Y33339759D01*
X132845513Y33333783D01*
X132954745Y33049224D01*
X132956766Y33043002D01*
X133035650Y32748605D01*
X133037011Y32742206D01*
X133084693Y32441148D01*
X133085376Y32434642D01*
X133101414Y32128641D01*
X133101500Y32125370D01*
X133101500Y29519388D01*
X133083194Y29475194D01*
X133039000Y29456888D01*
X133011049Y29463486D01*
X131151176Y30393422D01*
X131142104Y30397958D01*
X131137562Y30402500D01*
X131133019Y30402500D01*
X131128957Y30404531D01*
X131126368Y30404715D01*
X131118832Y30403492D01*
X131116438Y30402501D01*
X131113225Y30399288D01*
X131108916Y30397851D01*
X131106044Y30392107D01*
X131101500Y30387563D01*
X131101500Y30387562D01*
X131101500Y30383019D01*
X131099469Y30378957D01*
X131101500Y30372864D01*
X131101500Y20891278D01*
X131099285Y20877630D01*
X131099787Y20870572D01*
X131102490Y20864045D01*
X131106958Y20857847D01*
X131112301Y20853214D01*
X131116437Y20851500D01*
X131116438Y20851500D01*
X131122864Y20851500D01*
X131128957Y20849469D01*
X131133019Y20851500D01*
X131137562Y20851500D01*
X131137563Y20851500D01*
X131139953Y20852491D01*
X131151170Y20860576D01*
X133011050Y21790517D01*
X133058764Y21793907D01*
X133094902Y21762565D01*
X133101500Y21734614D01*
X133101500Y13769388D01*
X133083194Y13725194D01*
X133039000Y13706888D01*
X133011049Y13713486D01*
X131151176Y14643422D01*
X131142104Y14647958D01*
X131137562Y14652500D01*
X131133019Y14652500D01*
X131128957Y14654531D01*
X131126368Y14654715D01*
X131118832Y14653492D01*
X131116438Y14652501D01*
X131113225Y14649288D01*
X131108916Y14647851D01*
X131106044Y14642107D01*
X131101500Y14637563D01*
X131101500Y14637562D01*
X131101500Y14633019D01*
X131099469Y14628957D01*
X131101500Y14622864D01*
X131101500Y5141278D01*
X131099285Y5127630D01*
X131099787Y5120572D01*
X131102490Y5114045D01*
X131106958Y5107847D01*
X131112301Y5103214D01*
X131116437Y5101500D01*
X131116438Y5101500D01*
X131122864Y5101500D01*
X131128957Y5099469D01*
X131133019Y5101500D01*
X131137562Y5101500D01*
X131137563Y5101500D01*
X131139953Y5102491D01*
X131151170Y5110576D01*
X133011050Y6040517D01*
X133058764Y6043907D01*
X133094902Y6012565D01*
X133101500Y5984614D01*
X133101500Y3128631D01*
X133101414Y3125360D01*
X133085376Y2819359D01*
X133084693Y2812853D01*
X133037011Y2511795D01*
X133035650Y2505396D01*
X132956766Y2210999D01*
X132954745Y2204777D01*
X132845513Y1920218D01*
X132842852Y1914242D01*
X132704480Y1642671D01*
X132701209Y1637005D01*
X132535207Y1381384D01*
X132531362Y1376091D01*
X132339540Y1139211D01*
X132335162Y1134350D01*
X132119650Y918838D01*
X132114789Y914460D01*
X131877909Y722638D01*
X131872616Y718793D01*
X131616995Y552791D01*
X131611329Y549520D01*
X131339758Y411148D01*
X131333782Y408487D01*
X131049223Y299255D01*
X131043001Y297234D01*
X130748604Y218350D01*
X130742205Y216989D01*
X130441147Y169307D01*
X130434641Y168624D01*
X130128641Y152586D01*
X130125370Y152500D01*
X3128630Y152500D01*
X3125359Y152586D01*
X2819358Y168624D01*
X2812852Y169307D01*
X2511794Y216989D01*
X2505395Y218350D01*
X2210998Y297234D01*
X2204776Y299255D01*
X1920217Y408487D01*
X1914241Y411148D01*
X1642670Y549520D01*
X1637004Y552791D01*
X1381383Y718793D01*
X1376090Y722638D01*
X1139210Y914460D01*
X1134349Y918838D01*
X918837Y1134350D01*
X914459Y1139211D01*
X722632Y1376097D01*
X718792Y1381384D01*
X552785Y1637014D01*
X549524Y1642662D01*
X411147Y1914242D01*
X408486Y1920218D01*
X394222Y1957377D01*
X299250Y2204787D01*
X297236Y2210989D01*
X218346Y2505409D01*
X216990Y2511782D01*
X169305Y2812855D01*
X168623Y2819359D01*
X152586Y3125360D01*
X152500Y3128631D01*
X152500Y5984614D01*
X170806Y6028808D01*
X215000Y6047114D01*
X242949Y6040517D01*
X2111895Y5106043D01*
X2116438Y5101500D01*
X2120981Y5101500D01*
X2125043Y5099469D01*
X2125045Y5099470D01*
X2127631Y5099286D01*
X2135170Y5100510D01*
X2137562Y5101500D01*
X2140775Y5104714D01*
X2145084Y5106149D01*
X2147957Y5111895D01*
X2152500Y5116438D01*
X2152500Y5120981D01*
X2154531Y5125043D01*
X2152500Y5131137D01*
X2152500Y14612722D01*
X2154714Y14626369D01*
X2154530Y14628955D01*
X2154531Y14628957D01*
X2154529Y14628960D01*
X2154212Y14633429D01*
X2152500Y14637562D01*
X2147957Y14642105D01*
X2145084Y14647851D01*
X2140774Y14649288D01*
X2137562Y14652500D01*
X2131136Y14652500D01*
X2125043Y14654531D01*
X2120981Y14652500D01*
X2116438Y14652500D01*
X2116437Y14652500D01*
X2114044Y14651509D01*
X2102825Y14643423D01*
X242951Y13713486D01*
X195236Y13710095D01*
X159098Y13741437D01*
X152500Y13769388D01*
X152500Y21734614D01*
X170806Y21778808D01*
X215000Y21797114D01*
X242949Y21790517D01*
X2111895Y20856043D01*
X2116438Y20851500D01*
X2120981Y20851500D01*
X2125043Y20849469D01*
X2125045Y20849470D01*
X2127631Y20849286D01*
X2135170Y20850510D01*
X2137562Y20851500D01*
X2140775Y20854714D01*
X2145084Y20856149D01*
X2147957Y20861895D01*
X2152500Y20866438D01*
X2152500Y20870981D01*
X2154531Y20875043D01*
X2152500Y20881137D01*
X2152500Y22286210D01*
X13984500Y22286210D01*
X13984500Y22237562D01*
X13984500Y13235285D01*
X13984500Y13227000D01*
X13984500Y13167790D01*
X14010851Y13052340D01*
X14040993Y12989750D01*
X14062229Y12945651D01*
X14062234Y12945644D01*
X14136063Y12853066D01*
X14136065Y12853064D01*
X14227495Y12780151D01*
X14228648Y12779231D01*
X14335340Y12727851D01*
X14450790Y12701500D01*
X35569209Y12701500D01*
X35569210Y12701500D01*
X35684660Y12727851D01*
X35791352Y12779231D01*
X35883935Y12853065D01*
X35957769Y12945648D01*
X36009149Y13052340D01*
X36035500Y13167790D01*
X36035500Y13227000D01*
X36035500Y13235285D01*
X36035500Y17286687D01*
X45806500Y17286687D01*
X45806500Y16967313D01*
X45810004Y16931739D01*
X45837802Y16649485D01*
X45900107Y16336255D01*
X45900111Y16336240D01*
X45992820Y16030619D01*
X45992822Y16030614D01*
X45992824Y16030608D01*
X46115038Y15735558D01*
X46265587Y15453901D01*
X46265587Y15453900D01*
X46265590Y15453895D01*
X46265591Y15453894D01*
X46443025Y15188344D01*
X46645634Y14941465D01*
X46871465Y14715634D01*
X47118344Y14513025D01*
X47383894Y14335591D01*
X47383896Y14335590D01*
X47383899Y14335588D01*
X47490894Y14278398D01*
X47665556Y14185039D01*
X47960607Y14062825D01*
X47960606Y14062825D01*
X47960609Y14062824D01*
X47960619Y14062820D01*
X48266240Y13970111D01*
X48266249Y13970110D01*
X48266254Y13970108D01*
X48349837Y13953483D01*
X48579477Y13907804D01*
X48579482Y13907804D01*
X48579485Y13907803D01*
X48579483Y13907803D01*
X48741386Y13891858D01*
X48897313Y13876500D01*
X48897317Y13876500D01*
X49216683Y13876500D01*
X49216687Y13876500D01*
X49423295Y13896850D01*
X49534515Y13907803D01*
X49534517Y13907804D01*
X49534523Y13907804D01*
X49847760Y13970111D01*
X50153381Y14062820D01*
X50448444Y14185039D01*
X50730106Y14335591D01*
X50995656Y14513025D01*
X51242535Y14715634D01*
X51468366Y14941465D01*
X51670975Y15188344D01*
X51848409Y15453894D01*
X51998961Y15735556D01*
X52121180Y16030619D01*
X52213889Y16336240D01*
X52276196Y16649477D01*
X52307500Y16967313D01*
X52307500Y17286687D01*
X52305686Y17305109D01*
X77431500Y17305109D01*
X77431500Y16948891D01*
X77441587Y16846476D01*
X77466414Y16594395D01*
X77535907Y16245028D01*
X77535911Y16245013D01*
X77639316Y15904133D01*
X77639318Y15904128D01*
X77639320Y15904122D01*
X77775634Y15575032D01*
X77943551Y15260879D01*
X77943554Y15260874D01*
X77943555Y15260873D01*
X78141459Y14964688D01*
X78141462Y14964684D01*
X78141463Y14964683D01*
X78141465Y14964680D01*
X78160518Y14941464D01*
X78367442Y14689327D01*
X78619327Y14437442D01*
X78894688Y14211459D01*
X79190873Y14013555D01*
X79190875Y14013554D01*
X79190878Y14013552D01*
X79272149Y13970112D01*
X79505030Y13845635D01*
X79834121Y13709321D01*
X79834120Y13709321D01*
X79834123Y13709320D01*
X79834133Y13709316D01*
X80175013Y13605911D01*
X80175022Y13605910D01*
X80175027Y13605908D01*
X80268255Y13587364D01*
X80524387Y13536416D01*
X80524392Y13536416D01*
X80524395Y13536415D01*
X80524393Y13536415D01*
X80704971Y13518630D01*
X80878891Y13501500D01*
X80878895Y13501500D01*
X81235105Y13501500D01*
X81235109Y13501500D01*
X81465559Y13524198D01*
X81589605Y13536415D01*
X81589607Y13536416D01*
X81589613Y13536416D01*
X81938987Y13605911D01*
X82279867Y13709316D01*
X82608970Y13845635D01*
X82923127Y14013555D01*
X83219312Y14211459D01*
X83494673Y14437442D01*
X83746558Y14689327D01*
X83972541Y14964688D01*
X84170445Y15260873D01*
X84338365Y15575030D01*
X84474684Y15904133D01*
X84578089Y16245013D01*
X84647584Y16594387D01*
X84680811Y16931739D01*
X98646500Y16931739D01*
X98646500Y16702262D01*
X98676452Y16474760D01*
X98676452Y16474758D01*
X98735840Y16253119D01*
X98735842Y16253113D01*
X98739198Y16245012D01*
X98823653Y16041118D01*
X98823656Y16041112D01*
X98938389Y15842388D01*
X99078081Y15660339D01*
X99240339Y15498081D01*
X99422388Y15358389D01*
X99621112Y15243656D01*
X99833113Y15155842D01*
X100054762Y15096452D01*
X100282266Y15066500D01*
X100282272Y15066500D01*
X100511728Y15066500D01*
X100511734Y15066500D01*
X100739238Y15096452D01*
X100960887Y15155842D01*
X101172888Y15243656D01*
X101371612Y15358389D01*
X101553661Y15498081D01*
X101715919Y15660339D01*
X101855611Y15842388D01*
X101970344Y16041112D01*
X102058158Y16253113D01*
X102117548Y16474762D01*
X102147500Y16702266D01*
X102147500Y16931734D01*
X102147499Y16931739D01*
X103976500Y16931739D01*
X103976500Y16702262D01*
X104006452Y16474760D01*
X104006452Y16474758D01*
X104065840Y16253119D01*
X104065842Y16253113D01*
X104069198Y16245012D01*
X104153653Y16041118D01*
X104153656Y16041112D01*
X104268389Y15842388D01*
X104408081Y15660339D01*
X104570339Y15498081D01*
X104752388Y15358389D01*
X104951112Y15243656D01*
X105163113Y15155842D01*
X105384762Y15096452D01*
X105612266Y15066500D01*
X105612272Y15066500D01*
X105841728Y15066500D01*
X105841734Y15066500D01*
X106069238Y15096452D01*
X106290887Y15155842D01*
X106502888Y15243656D01*
X106701612Y15358389D01*
X106883661Y15498081D01*
X107045919Y15660339D01*
X107185611Y15842388D01*
X107300344Y16041112D01*
X107388158Y16253113D01*
X107447548Y16474762D01*
X107477500Y16702266D01*
X107477500Y16931734D01*
X107477499Y16931739D01*
X109306500Y16931739D01*
X109306500Y16702262D01*
X109336452Y16474760D01*
X109336452Y16474758D01*
X109395840Y16253119D01*
X109395842Y16253113D01*
X109399198Y16245012D01*
X109483653Y16041118D01*
X109483656Y16041112D01*
X109598389Y15842388D01*
X109738081Y15660339D01*
X109900339Y15498081D01*
X110082388Y15358389D01*
X110281112Y15243656D01*
X110493113Y15155842D01*
X110714762Y15096452D01*
X110942266Y15066500D01*
X110942272Y15066500D01*
X111171728Y15066500D01*
X111171734Y15066500D01*
X111399238Y15096452D01*
X111620887Y15155842D01*
X111832888Y15243656D01*
X112031612Y15358389D01*
X112213661Y15498081D01*
X112375919Y15660339D01*
X112515611Y15842388D01*
X112630344Y16041112D01*
X112718158Y16253113D01*
X112777548Y16474762D01*
X112807500Y16702266D01*
X112807500Y16931734D01*
X112807499Y16931739D01*
X114640500Y16931739D01*
X114640500Y16702262D01*
X114670452Y16474760D01*
X114670452Y16474758D01*
X114729840Y16253119D01*
X114729842Y16253113D01*
X114733198Y16245012D01*
X114817653Y16041118D01*
X114817656Y16041112D01*
X114932389Y15842388D01*
X115072081Y15660339D01*
X115234339Y15498081D01*
X115416388Y15358389D01*
X115615112Y15243656D01*
X115827113Y15155842D01*
X116048762Y15096452D01*
X116276266Y15066500D01*
X116276272Y15066500D01*
X116505728Y15066500D01*
X116505734Y15066500D01*
X116733238Y15096452D01*
X116954887Y15155842D01*
X117166888Y15243656D01*
X117365612Y15358389D01*
X117547661Y15498081D01*
X117709919Y15660339D01*
X117849611Y15842388D01*
X117964344Y16041112D01*
X118052158Y16253113D01*
X118111548Y16474762D01*
X118141500Y16702266D01*
X118141500Y16931734D01*
X118141499Y16931739D01*
X119974500Y16931739D01*
X119974500Y16702262D01*
X120004452Y16474760D01*
X120004452Y16474758D01*
X120063840Y16253119D01*
X120063842Y16253113D01*
X120067198Y16245012D01*
X120151653Y16041118D01*
X120151656Y16041112D01*
X120266389Y15842388D01*
X120406081Y15660339D01*
X120568339Y15498081D01*
X120750388Y15358389D01*
X120949112Y15243656D01*
X121161113Y15155842D01*
X121382762Y15096452D01*
X121610266Y15066500D01*
X121610272Y15066500D01*
X121839728Y15066500D01*
X121839734Y15066500D01*
X122067238Y15096452D01*
X122288887Y15155842D01*
X122500888Y15243656D01*
X122699612Y15358389D01*
X122881661Y15498081D01*
X123043919Y15660339D01*
X123183611Y15842388D01*
X123298344Y16041112D01*
X123386158Y16253113D01*
X123445548Y16474762D01*
X123475500Y16702266D01*
X123475500Y16931734D01*
X123445548Y17159238D01*
X123386158Y17380887D01*
X123298344Y17592888D01*
X123183611Y17791612D01*
X123043919Y17973661D01*
X122881661Y18135919D01*
X122699612Y18275611D01*
X122683316Y18285020D01*
X122500894Y18390341D01*
X122500882Y18390347D01*
X122391763Y18435546D01*
X122288887Y18478158D01*
X122288883Y18478159D01*
X122288881Y18478160D01*
X122288882Y18478160D01*
X122067241Y18537548D01*
X121839738Y18567500D01*
X121839734Y18567500D01*
X121610266Y18567500D01*
X121610261Y18567500D01*
X121382759Y18537548D01*
X121382757Y18537548D01*
X121161118Y18478160D01*
X120949117Y18390347D01*
X120949105Y18390341D01*
X120750394Y18275615D01*
X120750391Y18275613D01*
X120750388Y18275611D01*
X120682337Y18223393D01*
X120568337Y18135918D01*
X120406082Y17973663D01*
X120340486Y17888177D01*
X120266389Y17791612D01*
X120266387Y17791609D01*
X120266385Y17791606D01*
X120151659Y17592895D01*
X120151653Y17592883D01*
X120063840Y17380882D01*
X120004452Y17159243D01*
X120004452Y17159241D01*
X119974500Y16931739D01*
X118141499Y16931739D01*
X118111548Y17159238D01*
X118052158Y17380887D01*
X117964344Y17592888D01*
X117849611Y17791612D01*
X117709919Y17973661D01*
X117547661Y18135919D01*
X117365612Y18275611D01*
X117349316Y18285020D01*
X117166894Y18390341D01*
X117166882Y18390347D01*
X117057763Y18435546D01*
X116954887Y18478158D01*
X116954883Y18478159D01*
X116954881Y18478160D01*
X116954882Y18478160D01*
X116733241Y18537548D01*
X116505738Y18567500D01*
X116505734Y18567500D01*
X116276266Y18567500D01*
X116276261Y18567500D01*
X116048759Y18537548D01*
X116048757Y18537548D01*
X115827118Y18478160D01*
X115615117Y18390347D01*
X115615105Y18390341D01*
X115416394Y18275615D01*
X115416391Y18275613D01*
X115416388Y18275611D01*
X115348337Y18223393D01*
X115234337Y18135918D01*
X115072082Y17973663D01*
X115006486Y17888177D01*
X114932389Y17791612D01*
X114932387Y17791609D01*
X114932385Y17791606D01*
X114817659Y17592895D01*
X114817653Y17592883D01*
X114729840Y17380882D01*
X114670452Y17159243D01*
X114670452Y17159241D01*
X114640500Y16931739D01*
X112807499Y16931739D01*
X112777548Y17159238D01*
X112718158Y17380887D01*
X112630344Y17592888D01*
X112515611Y17791612D01*
X112375919Y17973661D01*
X112213661Y18135919D01*
X112031612Y18275611D01*
X112015316Y18285020D01*
X111832894Y18390341D01*
X111832882Y18390347D01*
X111723763Y18435546D01*
X111620887Y18478158D01*
X111620883Y18478159D01*
X111620881Y18478160D01*
X111620882Y18478160D01*
X111399241Y18537548D01*
X111171738Y18567500D01*
X111171734Y18567500D01*
X110942266Y18567500D01*
X110942261Y18567500D01*
X110714759Y18537548D01*
X110714757Y18537548D01*
X110493118Y18478160D01*
X110281117Y18390347D01*
X110281105Y18390341D01*
X110082394Y18275615D01*
X110082391Y18275613D01*
X110082388Y18275611D01*
X110014337Y18223393D01*
X109900337Y18135918D01*
X109738082Y17973663D01*
X109672486Y17888177D01*
X109598389Y17791612D01*
X109598387Y17791609D01*
X109598385Y17791606D01*
X109483659Y17592895D01*
X109483653Y17592883D01*
X109395840Y17380882D01*
X109336452Y17159243D01*
X109336452Y17159241D01*
X109306500Y16931739D01*
X107477499Y16931739D01*
X107447548Y17159238D01*
X107388158Y17380887D01*
X107300344Y17592888D01*
X107185611Y17791612D01*
X107045919Y17973661D01*
X106883661Y18135919D01*
X106701612Y18275611D01*
X106685316Y18285020D01*
X106502894Y18390341D01*
X106502882Y18390347D01*
X106393763Y18435546D01*
X106290887Y18478158D01*
X106290883Y18478159D01*
X106290881Y18478160D01*
X106290882Y18478160D01*
X106069241Y18537548D01*
X105841738Y18567500D01*
X105841734Y18567500D01*
X105612266Y18567500D01*
X105612261Y18567500D01*
X105384759Y18537548D01*
X105384757Y18537548D01*
X105163118Y18478160D01*
X104951117Y18390347D01*
X104951105Y18390341D01*
X104752394Y18275615D01*
X104752391Y18275613D01*
X104752388Y18275611D01*
X104684337Y18223393D01*
X104570337Y18135918D01*
X104408082Y17973663D01*
X104342486Y17888177D01*
X104268389Y17791612D01*
X104268387Y17791609D01*
X104268385Y17791606D01*
X104153659Y17592895D01*
X104153653Y17592883D01*
X104065840Y17380882D01*
X104006452Y17159243D01*
X104006452Y17159241D01*
X103976500Y16931739D01*
X102147499Y16931739D01*
X102117548Y17159238D01*
X102058158Y17380887D01*
X101970344Y17592888D01*
X101855611Y17791612D01*
X101715919Y17973661D01*
X101553661Y18135919D01*
X101371612Y18275611D01*
X101355316Y18285020D01*
X101172894Y18390341D01*
X101172882Y18390347D01*
X101063763Y18435546D01*
X100960887Y18478158D01*
X100960883Y18478159D01*
X100960881Y18478160D01*
X100960882Y18478160D01*
X100739241Y18537548D01*
X100511738Y18567500D01*
X100511734Y18567500D01*
X100282266Y18567500D01*
X100282261Y18567500D01*
X100054759Y18537548D01*
X100054757Y18537548D01*
X99833118Y18478160D01*
X99621117Y18390347D01*
X99621105Y18390341D01*
X99422394Y18275615D01*
X99422391Y18275613D01*
X99422388Y18275611D01*
X99354337Y18223393D01*
X99240337Y18135918D01*
X99078082Y17973663D01*
X99012486Y17888177D01*
X98938389Y17791612D01*
X98938387Y17791609D01*
X98938385Y17791606D01*
X98823659Y17592895D01*
X98823653Y17592883D01*
X98735840Y17380882D01*
X98676452Y17159243D01*
X98676452Y17159241D01*
X98646500Y16931739D01*
X84680811Y16931739D01*
X84682500Y16948891D01*
X84682500Y17305109D01*
X84662975Y17503343D01*
X84647585Y17659606D01*
X84578092Y18008973D01*
X84578090Y18008978D01*
X84578089Y18008987D01*
X84474684Y18349867D01*
X84338365Y18678970D01*
X84170445Y18993127D01*
X83972541Y19289312D01*
X83953486Y19312530D01*
X83768148Y19538366D01*
X83746558Y19564673D01*
X83494673Y19816558D01*
X83494667Y19816563D01*
X83219320Y20042535D01*
X83219317Y20042537D01*
X83219316Y20042538D01*
X83219312Y20042541D01*
X82923127Y20240445D01*
X82923126Y20240446D01*
X82923121Y20240449D01*
X82608968Y20408366D01*
X82279878Y20544680D01*
X82279879Y20544680D01*
X82279870Y20544683D01*
X82279867Y20544684D01*
X82094915Y20600789D01*
X81938988Y20648089D01*
X81938972Y20648093D01*
X81589604Y20717586D01*
X81589606Y20717586D01*
X81317041Y20744431D01*
X81235109Y20752500D01*
X80878891Y20752500D01*
X80796958Y20744431D01*
X80524394Y20717586D01*
X80175027Y20648093D01*
X80175011Y20648089D01*
X79961032Y20583179D01*
X79834133Y20544684D01*
X79834129Y20544683D01*
X79834121Y20544680D01*
X79505031Y20408366D01*
X79190878Y20240449D01*
X78894682Y20042537D01*
X78894679Y20042535D01*
X78619332Y19816563D01*
X78619325Y19816557D01*
X78367443Y19564675D01*
X78367437Y19564668D01*
X78141465Y19289321D01*
X78141463Y19289318D01*
X77943551Y18993122D01*
X77775634Y18678969D01*
X77639320Y18349879D01*
X77535911Y18008989D01*
X77535907Y18008973D01*
X77466414Y17659606D01*
X77439569Y17387042D01*
X77431500Y17305109D01*
X52305686Y17305109D01*
X52277342Y17592883D01*
X52276197Y17604516D01*
X52238981Y17791612D01*
X52213889Y17917760D01*
X52121180Y18223381D01*
X51998961Y18518444D01*
X51848409Y18800106D01*
X51670975Y19065656D01*
X51468366Y19312535D01*
X51242535Y19538366D01*
X51210477Y19564675D01*
X50995656Y19740975D01*
X50730100Y19918413D01*
X50450090Y20068081D01*
X50448444Y20068961D01*
X50448442Y20068962D01*
X50153392Y20191176D01*
X50153393Y20191176D01*
X50153384Y20191179D01*
X50153381Y20191180D01*
X49987558Y20241482D01*
X49847761Y20283889D01*
X49847745Y20283893D01*
X49534514Y20346198D01*
X49534516Y20346198D01*
X49290143Y20370266D01*
X49216687Y20377500D01*
X48897313Y20377500D01*
X48823856Y20370266D01*
X48579484Y20346198D01*
X48266254Y20283893D01*
X48266238Y20283889D01*
X48123037Y20240449D01*
X47960619Y20191180D01*
X47960615Y20191179D01*
X47960607Y20191176D01*
X47665557Y20068962D01*
X47383900Y19918413D01*
X47383899Y19918413D01*
X47118343Y19740975D01*
X46871470Y19538371D01*
X46871463Y19538365D01*
X46645635Y19312537D01*
X46645629Y19312530D01*
X46443025Y19065657D01*
X46265587Y18800101D01*
X46265587Y18800100D01*
X46115038Y18518443D01*
X45992824Y18223393D01*
X45992821Y18223385D01*
X45992820Y18223381D01*
X45958306Y18109606D01*
X45900111Y17917762D01*
X45900107Y17917746D01*
X45837802Y17604516D01*
X45815778Y17380887D01*
X45806500Y17286687D01*
X36035500Y17286687D01*
X36035500Y21501739D01*
X98646500Y21501739D01*
X98646500Y21272262D01*
X98676452Y21044760D01*
X98676452Y21044758D01*
X98735840Y20823119D01*
X98823653Y20611118D01*
X98823656Y20611112D01*
X98938389Y20412388D01*
X99078081Y20230339D01*
X99240339Y20068081D01*
X99422388Y19928389D01*
X99621112Y19813656D01*
X99833113Y19725842D01*
X100054762Y19666452D01*
X100282266Y19636500D01*
X100282272Y19636500D01*
X100511728Y19636500D01*
X100511734Y19636500D01*
X100739238Y19666452D01*
X100960887Y19725842D01*
X101172888Y19813656D01*
X101371612Y19928389D01*
X101553661Y20068081D01*
X101715919Y20230339D01*
X101855611Y20412388D01*
X101970344Y20611112D01*
X102058158Y20823113D01*
X102117548Y21044762D01*
X102147500Y21272266D01*
X102147500Y21501734D01*
X102147499Y21501739D01*
X103976500Y21501739D01*
X103976500Y21272262D01*
X104006452Y21044760D01*
X104006452Y21044758D01*
X104065840Y20823119D01*
X104153653Y20611118D01*
X104153656Y20611112D01*
X104268389Y20412388D01*
X104408081Y20230339D01*
X104570339Y20068081D01*
X104752388Y19928389D01*
X104951112Y19813656D01*
X105163113Y19725842D01*
X105384762Y19666452D01*
X105612266Y19636500D01*
X105612272Y19636500D01*
X105841728Y19636500D01*
X105841734Y19636500D01*
X106069238Y19666452D01*
X106290887Y19725842D01*
X106502888Y19813656D01*
X106701612Y19928389D01*
X106883661Y20068081D01*
X107045919Y20230339D01*
X107185611Y20412388D01*
X107300344Y20611112D01*
X107388158Y20823113D01*
X107447548Y21044762D01*
X107477500Y21272266D01*
X107477500Y21501734D01*
X107477499Y21501739D01*
X109306500Y21501739D01*
X109306500Y21272262D01*
X109336452Y21044760D01*
X109336452Y21044758D01*
X109395840Y20823119D01*
X109483653Y20611118D01*
X109483656Y20611112D01*
X109598389Y20412388D01*
X109738081Y20230339D01*
X109900339Y20068081D01*
X110082388Y19928389D01*
X110281112Y19813656D01*
X110493113Y19725842D01*
X110714762Y19666452D01*
X110942266Y19636500D01*
X110942272Y19636500D01*
X111171728Y19636500D01*
X111171734Y19636500D01*
X111399238Y19666452D01*
X111620887Y19725842D01*
X111832888Y19813656D01*
X112031612Y19928389D01*
X112213661Y20068081D01*
X112375919Y20230339D01*
X112515611Y20412388D01*
X112630344Y20611112D01*
X112718158Y20823113D01*
X112777548Y21044762D01*
X112807500Y21272266D01*
X112807500Y21501734D01*
X112807499Y21501739D01*
X114640500Y21501739D01*
X114640500Y21272262D01*
X114670452Y21044760D01*
X114670452Y21044758D01*
X114729840Y20823119D01*
X114817653Y20611118D01*
X114817656Y20611112D01*
X114932389Y20412388D01*
X115072081Y20230339D01*
X115234339Y20068081D01*
X115416388Y19928389D01*
X115615112Y19813656D01*
X115827113Y19725842D01*
X116048762Y19666452D01*
X116276266Y19636500D01*
X116276272Y19636500D01*
X116505728Y19636500D01*
X116505734Y19636500D01*
X116733238Y19666452D01*
X116954887Y19725842D01*
X117166888Y19813656D01*
X117365612Y19928389D01*
X117547661Y20068081D01*
X117709919Y20230339D01*
X117849611Y20412388D01*
X117964344Y20611112D01*
X118052158Y20823113D01*
X118111548Y21044762D01*
X118141500Y21272266D01*
X118141500Y21501734D01*
X118141499Y21501739D01*
X119974500Y21501739D01*
X119974500Y21272262D01*
X120004452Y21044760D01*
X120004452Y21044758D01*
X120063840Y20823119D01*
X120151653Y20611118D01*
X120151656Y20611112D01*
X120266389Y20412388D01*
X120406081Y20230339D01*
X120568339Y20068081D01*
X120750388Y19928389D01*
X120949112Y19813656D01*
X121161113Y19725842D01*
X121382762Y19666452D01*
X121610266Y19636500D01*
X121610272Y19636500D01*
X121839728Y19636500D01*
X121839734Y19636500D01*
X122067238Y19666452D01*
X122288887Y19725842D01*
X122500888Y19813656D01*
X122699612Y19928389D01*
X122881661Y20068081D01*
X123043919Y20230339D01*
X123183611Y20412388D01*
X123298344Y20611112D01*
X123386158Y20823113D01*
X123445548Y21044762D01*
X123475500Y21272266D01*
X123475500Y21501734D01*
X123445548Y21729238D01*
X123386158Y21950887D01*
X123298344Y22162888D01*
X123183611Y22361612D01*
X123043919Y22543661D01*
X122881661Y22705919D01*
X122699612Y22845611D01*
X122683316Y22855020D01*
X122500894Y22960341D01*
X122500882Y22960347D01*
X122391763Y23005546D01*
X122288887Y23048158D01*
X122288883Y23048159D01*
X122288881Y23048160D01*
X122288882Y23048160D01*
X122067241Y23107548D01*
X121839738Y23137500D01*
X121839734Y23137500D01*
X121610266Y23137500D01*
X121610261Y23137500D01*
X121382759Y23107548D01*
X121382757Y23107548D01*
X121161118Y23048160D01*
X120949117Y22960347D01*
X120949105Y22960341D01*
X120750394Y22845615D01*
X120750391Y22845613D01*
X120750388Y22845611D01*
X120653823Y22771514D01*
X120568337Y22705918D01*
X120406082Y22543663D01*
X120345146Y22464250D01*
X120266389Y22361612D01*
X120266387Y22361609D01*
X120266385Y22361606D01*
X120151659Y22162895D01*
X120151653Y22162883D01*
X120063840Y21950882D01*
X120004452Y21729243D01*
X120004452Y21729241D01*
X119974500Y21501739D01*
X118141499Y21501739D01*
X118111548Y21729238D01*
X118052158Y21950887D01*
X117964344Y22162888D01*
X117849611Y22361612D01*
X117709919Y22543661D01*
X117547661Y22705919D01*
X117365612Y22845611D01*
X117349316Y22855020D01*
X117166894Y22960341D01*
X117166882Y22960347D01*
X117057763Y23005546D01*
X116954887Y23048158D01*
X116954883Y23048159D01*
X116954881Y23048160D01*
X116954882Y23048160D01*
X116733241Y23107548D01*
X116505738Y23137500D01*
X116505734Y23137500D01*
X116276266Y23137500D01*
X116276261Y23137500D01*
X116048759Y23107548D01*
X116048757Y23107548D01*
X115827118Y23048160D01*
X115615117Y22960347D01*
X115615105Y22960341D01*
X115416394Y22845615D01*
X115416391Y22845613D01*
X115416388Y22845611D01*
X115319823Y22771514D01*
X115234337Y22705918D01*
X115072082Y22543663D01*
X115011146Y22464250D01*
X114932389Y22361612D01*
X114932387Y22361609D01*
X114932385Y22361606D01*
X114817659Y22162895D01*
X114817653Y22162883D01*
X114729840Y21950882D01*
X114670452Y21729243D01*
X114670452Y21729241D01*
X114640500Y21501739D01*
X112807499Y21501739D01*
X112777548Y21729238D01*
X112718158Y21950887D01*
X112630344Y22162888D01*
X112515611Y22361612D01*
X112375919Y22543661D01*
X112213661Y22705919D01*
X112031612Y22845611D01*
X112015316Y22855020D01*
X111832894Y22960341D01*
X111832882Y22960347D01*
X111723763Y23005546D01*
X111620887Y23048158D01*
X111620883Y23048159D01*
X111620881Y23048160D01*
X111620882Y23048160D01*
X111399241Y23107548D01*
X111171738Y23137500D01*
X111171734Y23137500D01*
X110942266Y23137500D01*
X110942261Y23137500D01*
X110714759Y23107548D01*
X110714757Y23107548D01*
X110493118Y23048160D01*
X110281117Y22960347D01*
X110281105Y22960341D01*
X110082394Y22845615D01*
X110082391Y22845613D01*
X110082388Y22845611D01*
X109985823Y22771514D01*
X109900337Y22705918D01*
X109738082Y22543663D01*
X109677146Y22464250D01*
X109598389Y22361612D01*
X109598387Y22361609D01*
X109598385Y22361606D01*
X109483659Y22162895D01*
X109483653Y22162883D01*
X109395840Y21950882D01*
X109336452Y21729243D01*
X109336452Y21729241D01*
X109306500Y21501739D01*
X107477499Y21501739D01*
X107447548Y21729238D01*
X107388158Y21950887D01*
X107300344Y22162888D01*
X107185611Y22361612D01*
X107045919Y22543661D01*
X106883661Y22705919D01*
X106701612Y22845611D01*
X106685316Y22855020D01*
X106502894Y22960341D01*
X106502882Y22960347D01*
X106393763Y23005546D01*
X106290887Y23048158D01*
X106290883Y23048159D01*
X106290881Y23048160D01*
X106290882Y23048160D01*
X106069241Y23107548D01*
X105841738Y23137500D01*
X105841734Y23137500D01*
X105612266Y23137500D01*
X105612261Y23137500D01*
X105384759Y23107548D01*
X105384757Y23107548D01*
X105163118Y23048160D01*
X104951117Y22960347D01*
X104951105Y22960341D01*
X104752394Y22845615D01*
X104752391Y22845613D01*
X104752388Y22845611D01*
X104655823Y22771514D01*
X104570337Y22705918D01*
X104408082Y22543663D01*
X104347146Y22464250D01*
X104268389Y22361612D01*
X104268387Y22361609D01*
X104268385Y22361606D01*
X104153659Y22162895D01*
X104153653Y22162883D01*
X104065840Y21950882D01*
X104006452Y21729243D01*
X104006452Y21729241D01*
X103976500Y21501739D01*
X102147499Y21501739D01*
X102117548Y21729238D01*
X102058158Y21950887D01*
X101970344Y22162888D01*
X101855611Y22361612D01*
X101715919Y22543661D01*
X101553661Y22705919D01*
X101371612Y22845611D01*
X101355316Y22855020D01*
X101172894Y22960341D01*
X101172882Y22960347D01*
X101063763Y23005546D01*
X100960887Y23048158D01*
X100960883Y23048159D01*
X100960881Y23048160D01*
X100960882Y23048160D01*
X100739241Y23107548D01*
X100511738Y23137500D01*
X100511734Y23137500D01*
X100282266Y23137500D01*
X100282261Y23137500D01*
X100054759Y23107548D01*
X100054757Y23107548D01*
X99833118Y23048160D01*
X99621117Y22960347D01*
X99621105Y22960341D01*
X99422394Y22845615D01*
X99422391Y22845613D01*
X99422388Y22845611D01*
X99325823Y22771514D01*
X99240337Y22705918D01*
X99078082Y22543663D01*
X99017146Y22464250D01*
X98938389Y22361612D01*
X98938387Y22361609D01*
X98938385Y22361606D01*
X98823659Y22162895D01*
X98823653Y22162883D01*
X98735840Y21950882D01*
X98676452Y21729243D01*
X98676452Y21729241D01*
X98646500Y21501739D01*
X36035500Y21501739D01*
X36035500Y22237562D01*
X36035500Y22286210D01*
X36009149Y22401660D01*
X35957769Y22508352D01*
X35956849Y22509505D01*
X35883936Y22600935D01*
X35883934Y22600937D01*
X35791356Y22674766D01*
X35791349Y22674771D01*
X35726670Y22705918D01*
X35684660Y22726149D01*
X35569210Y22752500D01*
X35520562Y22752500D01*
X14518285Y22752500D01*
X14510000Y22752500D01*
X14450790Y22752500D01*
X14335343Y22726150D01*
X14335341Y22726150D01*
X14335340Y22726149D01*
X14303317Y22710728D01*
X14228650Y22674771D01*
X14228643Y22674766D01*
X14136065Y22600937D01*
X14136063Y22600935D01*
X14062234Y22508357D01*
X14062229Y22508350D01*
X14026272Y22433683D01*
X14010851Y22401660D01*
X13984500Y22286210D01*
X2152500Y22286210D01*
X2152500Y30372864D01*
X2154531Y30378957D01*
X2152500Y30383019D01*
X2152500Y30387562D01*
X2147957Y30392105D01*
X2145084Y30397851D01*
X2140774Y30399288D01*
X2137562Y30402500D01*
X2131136Y30402500D01*
X2125043Y30404531D01*
X2120981Y30402500D01*
X2116438Y30402500D01*
X2116437Y30402500D01*
X2114044Y30401509D01*
X2102825Y30393423D01*
X242951Y29463486D01*
X195236Y29460095D01*
X159098Y29491437D01*
X152500Y29519388D01*
X152500Y32125370D01*
X152586Y32128641D01*
X168623Y32434642D01*
X169306Y32441148D01*
X216991Y32742223D01*
X218345Y32748588D01*
X297237Y33043018D01*
X299248Y33049209D01*
X408488Y33333788D01*
X411147Y33339759D01*
X549529Y33611348D01*
X552779Y33616979D01*
X718802Y33872632D01*
X722625Y33877895D01*
X914468Y34114801D01*
X918827Y34119641D01*
X1134359Y34335173D01*
X1139199Y34339532D01*
X1376105Y34531375D01*
X1381368Y34535198D01*
X1637021Y34701221D01*
X1642652Y34704471D01*
X1914246Y34842856D01*
X1920212Y34845512D01*
X2204791Y34954752D01*
X2210982Y34956763D01*
X2505412Y35035655D01*
X2511777Y35037009D01*
X2812856Y35084695D01*
X2819354Y35085377D01*
X3125359Y35101415D01*
X3128630Y35101500D01*
X3135285Y35101500D01*
X130118715Y35101500D01*
X130125370Y35101500D01*
X130128640Y35101415D01*
G37*
%TD.AperFunction*%
%TD*%
M02*
