%TF.GenerationSoftware,KiCad,Pcbnew,10.0.3*%
%TF.CreationDate,2026-06-19T09:26:12+01:00*%
%TF.ProjectId,harp timestamp generator Gen3,68617270-2074-4696-9d65-7374616d7020,rev?*%
%TF.SameCoordinates,PX52e14f4PY89dcfe4*%
%TF.FileFunction,Soldermask,Bot*%
%TF.FilePolarity,Negative*%
%FSLAX46Y46*%
G04 Gerber Fmt 4.6, Leading zero omitted, Abs format (unit mm)*
G04 Created by KiCad (PCBNEW 10.0.3) date 2026-06-19 09:26:12*
%MOMM*%
%LPD*%
G01*
G04 APERTURE LIST*
G04 Aperture macros list*
%AMRoundRect*
0 Rectangle with rounded corners*
0 $1 Rounding radius*
0 $2 $3 $4 $5 $6 $7 $8 $9 X,Y pos of 4 corners*
0 Add a 4 corners polygon primitive as box body*
4,1,4,$2,$3,$4,$5,$6,$7,$8,$9,$2,$3,0*
0 Add four circle primitives for the rounded corners*
1,1,$1+$1,$2,$3*
1,1,$1+$1,$4,$5*
1,1,$1+$1,$6,$7*
1,1,$1+$1,$8,$9*
0 Add four rect primitives between the rounded corners*
20,1,$1+$1,$2,$3,$4,$5,0*
20,1,$1+$1,$4,$5,$6,$7,0*
20,1,$1+$1,$6,$7,$8,$9,0*
20,1,$1+$1,$8,$9,$2,$3,0*%
%AMOutline5P*
0 Free polygon, 5 corners , with rotation*
0 The origin of the aperture is its center*
0 number of corners: always 5*
0 $1 to $10 corner X, Y*
0 $11 Rotation angle, in degrees counterclockwise*
0 create outline with 5 corners*
4,1,5,$1,$2,$3,$4,$5,$6,$7,$8,$9,$10,$1,$2,$11*%
%AMOutline6P*
0 Free polygon, 6 corners , with rotation*
0 The origin of the aperture is its center*
0 number of corners: always 6*
0 $1 to $12 corner X, Y*
0 $13 Rotation angle, in degrees counterclockwise*
0 create outline with 6 corners*
4,1,6,$1,$2,$3,$4,$5,$6,$7,$8,$9,$10,$11,$12,$1,$2,$13*%
%AMOutline7P*
0 Free polygon, 7 corners , with rotation*
0 The origin of the aperture is its center*
0 number of corners: always 7*
0 $1 to $14 corner X, Y*
0 $15 Rotation angle, in degrees counterclockwise*
0 create outline with 7 corners*
4,1,7,$1,$2,$3,$4,$5,$6,$7,$8,$9,$10,$11,$12,$13,$14,$1,$2,$15*%
%AMOutline8P*
0 Free polygon, 8 corners , with rotation*
0 The origin of the aperture is its center*
0 number of corners: always 8*
0 $1 to $16 corner X, Y*
0 $17 Rotation angle, in degrees counterclockwise*
0 create outline with 8 corners*
4,1,8,$1,$2,$3,$4,$5,$6,$7,$8,$9,$10,$11,$12,$13,$14,$15,$16,$1,$2,$17*%
G04 Aperture macros list end*
%ADD10Outline8P,-0.762000X0.315631X-0.315631X0.762000X0.315631X0.762000X0.762000X0.315631X0.762000X-0.315631X0.315631X-0.762000X-0.315631X-0.762000X-0.762000X-0.315631X90.000000*%
%ADD11C,2.500000*%
%ADD12C,1.600000*%
%ADD13R,1.700000X1.700000*%
%ADD14C,1.700000*%
%ADD15C,0.650000*%
%ADD16O,1.000000X2.100000*%
%ADD17O,1.000000X1.800000*%
%ADD18C,10.000000*%
%ADD19RoundRect,0.250000X-0.600000X0.600000X-0.600000X-0.600000X0.600000X-0.600000X0.600000X0.600000X0*%
%ADD20C,1.219200*%
%ADD21Outline8P,-0.609600X0.252505X-0.252505X0.609600X0.252505X0.609600X0.609600X0.252505X0.609600X-0.252505X0.252505X-0.609600X-0.252505X-0.609600X-0.609600X-0.252505X90.000000*%
%ADD22C,1.524000*%
%ADD23Outline8P,-1.390650X0.576026X-0.576026X1.390650X0.576026X1.390650X1.390650X0.576026X1.390650X-0.576026X0.576026X-1.390650X-0.576026X-1.390650X-1.390650X-0.576026X90.000000*%
G04 APERTURE END LIST*
D10*
%TO.C,LED4*%
X111355000Y8128000D03*
X111355000Y13208000D03*
X111355000Y5588000D03*
X111355000Y10668000D03*
%TD*%
D11*
%TO.C,BAT_TP0*%
X64765000Y3258600D03*
%TD*%
D10*
%TO.C,LED2*%
X100695000Y8128000D03*
X100695000Y13208000D03*
X100695000Y5588000D03*
X100695000Y10668000D03*
%TD*%
D12*
%TO.C,CLKIN0*%
X86118600Y75413400D03*
X86118600Y68413400D03*
%TD*%
D11*
%TO.C,+3V3_TP0*%
X89091000Y55057000D03*
%TD*%
D13*
%TO.C,PDI0*%
X6693900Y32260100D03*
D14*
X9233900Y32260100D03*
X6693900Y29720100D03*
X9233900Y29720100D03*
X6693900Y27180100D03*
X9233900Y27180100D03*
%TD*%
D15*
%TO.C,USB0*%
X115223238Y74363310D03*
X109443238Y74363310D03*
D16*
X116653238Y73863310D03*
D17*
X116653238Y78043310D03*
D16*
X108013238Y73863310D03*
D17*
X108013238Y78043310D03*
%TD*%
D18*
%TO.C,*%
X105165000Y44465000D03*
%TD*%
D12*
%TO.C,CLKOUT1*%
X61118600Y75413400D03*
X61118600Y68413400D03*
%TD*%
%TO.C,CLKOUT0*%
X73618600Y75413400D03*
X73618600Y68413400D03*
%TD*%
%TO.C,CLKOUT5*%
X11118600Y75413400D03*
X11118600Y68413400D03*
%TD*%
D19*
%TO.C,SV1*%
X25125841Y9952245D03*
D14*
X25125841Y7412245D03*
X22585841Y9952245D03*
X22585841Y7412245D03*
X20045841Y9952245D03*
X20045841Y7412245D03*
X17505841Y9952245D03*
X17505841Y7412245D03*
X14965841Y9952245D03*
X14965841Y7412245D03*
%TD*%
D12*
%TO.C,CLKOUT4*%
X23618600Y75413400D03*
X23618600Y68413400D03*
%TD*%
D20*
%TO.C,C39*%
X94970600Y52959000D03*
D21*
X94970600Y55499000D03*
%TD*%
D22*
%TO.C,X1*%
X63325000Y10913000D03*
X65865000Y10913000D03*
%TD*%
D11*
%TO.C,GND_TP0*%
X18333000Y42773000D03*
%TD*%
D23*
%TO.C,BATEN0*%
X73485000Y3167400D03*
X78565000Y3167400D03*
X71326000Y15867400D03*
X76025000Y15867400D03*
X80724000Y15867400D03*
%TD*%
D12*
%TO.C,CLKOUT3*%
X36118600Y75413400D03*
X36118600Y68413400D03*
%TD*%
D10*
%TO.C,LED1*%
X95365000Y8128000D03*
X95365000Y13208000D03*
X95365000Y5588000D03*
X95365000Y10668000D03*
%TD*%
%TO.C,LED5*%
X116685000Y8128000D03*
X116685000Y13208000D03*
X116685000Y5588000D03*
X116685000Y10668000D03*
%TD*%
D12*
%TO.C,CLKOUT2*%
X48618600Y75413400D03*
X48618600Y68413400D03*
%TD*%
D10*
%TO.C,LED3*%
X106025000Y8128000D03*
X106025000Y13208000D03*
X106025000Y5588000D03*
X106025000Y10668000D03*
%TD*%
D11*
%TO.C,+5V_TP0*%
X95205000Y62973000D03*
%TD*%
%TO.C,GND_TP1*%
X105737000Y36273000D03*
%TD*%
M02*
