%TF.GenerationSoftware,KiCad,Pcbnew,10.0.3*%
%TF.CreationDate,2026-06-19T09:27:32+01:00*%
%TF.ProjectId,harp timestamp generator Gen3,68617270-2074-4696-9d65-7374616d7020,rev?*%
%TF.SameCoordinates,PX52e14f4PY89dcfe4*%
%TF.FileFunction,Plated,1,4,PTH,Mixed*%
%TF.FilePolarity,Positive*%
%FSLAX46Y46*%
G04 Gerber Fmt 4.6, Leading zero omitted, Abs format (unit mm)*
G04 Created by KiCad (PCBNEW 10.0.3) date 2026-06-19 09:27:32*
%MOMM*%
%LPD*%
G01*
G04 APERTURE LIST*
%TA.AperFunction,ViaDrill*%
%ADD10C,0.200000*%
%TD*%
G04 aperture for slot hole*
%TA.AperFunction,ComponentDrill*%
%ADD11C,0.600000*%
%TD*%
%TA.AperFunction,ComponentDrill*%
%ADD12C,0.812800*%
%TD*%
%TA.AperFunction,ComponentDrill*%
%ADD13C,1.000000*%
%TD*%
%TA.AperFunction,ComponentDrill*%
%ADD14C,1.016000*%
%TD*%
%TA.AperFunction,ComponentDrill*%
%ADD15C,1.200000*%
%TD*%
%TA.AperFunction,ComponentDrill*%
%ADD16C,1.854200*%
%TD*%
G04 APERTURE END LIST*
D10*
X2565000Y43365000D03*
X2565000Y37365000D03*
X2565000Y31365000D03*
X2565000Y25365000D03*
X2565000Y19365000D03*
X2565000Y13365000D03*
X2565000Y6965000D03*
X2765000Y49365000D03*
X3165000Y1765000D03*
X3365000Y53165000D03*
X6365000Y1165000D03*
X7965000Y71965000D03*
X8365000Y35765000D03*
X8565000Y62165000D03*
X9165000Y16765000D03*
X9165000Y10765000D03*
X9165000Y4365000D03*
X9365000Y38165000D03*
X9665000Y78165000D03*
X9665000Y65165000D03*
X9765000Y43565000D03*
X10065000Y51565000D03*
X10865000Y71565000D03*
X12365000Y1165000D03*
X13765000Y54165000D03*
X13865000Y68765000D03*
X14065000Y77565000D03*
X14365000Y72165000D03*
X14565000Y50765000D03*
X14865000Y61265000D03*
X15165000Y53265000D03*
X15365000Y25165000D03*
X15365000Y19165000D03*
X15365000Y13165000D03*
X15765000Y46565000D03*
X15765000Y40565000D03*
X15765000Y34565000D03*
X18365000Y1165000D03*
X20865000Y70965000D03*
X21365000Y63165000D03*
X21765000Y27765000D03*
X21765000Y21765000D03*
X21765000Y15765000D03*
X22065000Y77965000D03*
X22365000Y65365000D03*
X22565000Y52965000D03*
X23465000Y72165000D03*
X24365000Y1165000D03*
X25165000Y53565000D03*
X25165000Y24165000D03*
X25365000Y50765000D03*
X26265000Y77765000D03*
X26265000Y68365000D03*
X26465000Y7465000D03*
X26565000Y42465000D03*
X26765000Y72365000D03*
X26765000Y53965000D03*
X26765000Y45965000D03*
X26765000Y44765000D03*
X27093900Y47360100D03*
X27165000Y61165000D03*
X27480200Y15965000D03*
X27480200Y4576587D03*
X27880200Y22865000D03*
X28865000Y24965000D03*
X29365000Y23165000D03*
X29765000Y38165000D03*
X29765000Y19165000D03*
X30165000Y47365000D03*
X30365000Y14165000D03*
X30565000Y6765000D03*
X30565000Y1165000D03*
X31365000Y31765000D03*
X31465000Y26065000D03*
X31765000Y43765000D03*
X32465000Y38197000D03*
X32765000Y24165000D03*
X33165000Y20965000D03*
X33365000Y37365000D03*
X33365000Y27565000D03*
X33365000Y24965000D03*
X33665000Y72165000D03*
X33865000Y62165000D03*
X34165000Y16965000D03*
X34165000Y9577800D03*
X34465000Y77965000D03*
X34765000Y51165000D03*
X34865000Y65165000D03*
X35165000Y30165000D03*
X35265000Y26565000D03*
X35365000Y31965000D03*
X35565000Y28165000D03*
X35571600Y53165000D03*
X35765000Y33965000D03*
X36065000Y70765000D03*
X36065000Y25865000D03*
X36165000Y29765000D03*
X36297400Y5747800D03*
X36365000Y1165000D03*
X37165000Y50965000D03*
X37165000Y12777800D03*
X37265000Y41465000D03*
X37565000Y21965000D03*
X37965000Y53565000D03*
X38165000Y18565000D03*
X38390600Y14666600D03*
X38765000Y50965000D03*
X39065000Y67965000D03*
X39358600Y25219000D03*
X39365000Y72165000D03*
X39365000Y42165000D03*
X39365000Y34865000D03*
X39465000Y77965000D03*
X39470000Y54070000D03*
X39533000Y19403400D03*
X39765000Y29565000D03*
X39865000Y61365000D03*
X39865800Y7530200D03*
X39926600Y10177800D03*
X39965000Y11977800D03*
X39994578Y17663421D03*
X40157400Y23901400D03*
X40165000Y30865000D03*
X40565000Y45965000D03*
X40817800Y17246600D03*
X40970200Y23495000D03*
X41393900Y14360100D03*
X41765000Y18365000D03*
X41793900Y31660100D03*
X42019000Y23165000D03*
X42165000Y38197000D03*
X42565000Y35165000D03*
X42565000Y19365000D03*
X42765000Y26565000D03*
X43165000Y16565000D03*
X43365000Y31471600D03*
X43365000Y23165000D03*
X44365000Y30171600D03*
X44401000Y41593000D03*
X44565000Y11777800D03*
X44765000Y28365000D03*
X44965000Y36865000D03*
X45015800Y23212600D03*
X45365000Y13377800D03*
X45465000Y72165000D03*
X45565000Y51165000D03*
X45965000Y38197000D03*
X45965000Y15365000D03*
X46265000Y62165000D03*
X46265000Y44665000D03*
X46465000Y50765000D03*
X47065000Y78165000D03*
X47165000Y24977800D03*
X47465000Y65165000D03*
X48171600Y53065000D03*
X48177800Y10031800D03*
X48365000Y37565000D03*
X48579400Y22152200D03*
X48665000Y70765000D03*
X48765000Y46165000D03*
X49165000Y7565000D03*
X49260200Y3165000D03*
X49565000Y14965000D03*
X50565000Y39565000D03*
X50765000Y53365000D03*
X50865000Y29765000D03*
X51384200Y22123400D03*
X51665000Y77565000D03*
X51665000Y68165000D03*
X51965000Y72165000D03*
X51965000Y28165000D03*
X52180600Y21333800D03*
X52365000Y61265000D03*
X52365000Y54165000D03*
X52565000Y37565000D03*
X52565000Y14765000D03*
X53009800Y22123400D03*
X53765000Y42365000D03*
X53765000Y38165000D03*
X53965000Y46165000D03*
X54054600Y49933000D03*
X54365000Y28165000D03*
X54365000Y16965000D03*
X55448200Y23342600D03*
X55854600Y24155400D03*
X56848200Y19765000D03*
X56965000Y39565000D03*
X57465000Y28665000D03*
X57865000Y72565000D03*
X58193900Y45860100D03*
X58365000Y54165000D03*
X58665000Y62165000D03*
X58665000Y26465000D03*
X59565000Y38365000D03*
X59665000Y78165000D03*
X59665000Y65165000D03*
X59765000Y34565000D03*
X59765000Y20565000D03*
X60365000Y16965000D03*
X60465000Y53065000D03*
X60565000Y37565000D03*
X60765000Y26465000D03*
X60865000Y50965000D03*
X60965000Y43765000D03*
X61265000Y70565000D03*
X61460200Y1165000D03*
X62265000Y53365000D03*
X62265000Y28365000D03*
X63165000Y33565000D03*
X63600600Y5599800D03*
X63865000Y68565000D03*
X64065000Y77765000D03*
X64365000Y54165000D03*
X64565000Y72565000D03*
X64565000Y41065000D03*
X64565000Y28065000D03*
X64865000Y61265000D03*
X65965000Y44565000D03*
X66165000Y20565000D03*
X66165000Y16965000D03*
X67565000Y28565000D03*
X68365000Y37565000D03*
X68565000Y39165000D03*
X70165000Y54165000D03*
X70565000Y44965000D03*
X70665000Y70565000D03*
X71265000Y62365000D03*
X71265000Y26465000D03*
X71565000Y42365000D03*
X71865000Y77365000D03*
X72465000Y65565000D03*
X72565000Y27165000D03*
X72571600Y53065000D03*
X73265000Y72165000D03*
X73265000Y28765000D03*
X73765000Y9965000D03*
X75165000Y53565000D03*
X75558600Y41758600D03*
X75565000Y46365000D03*
X75565000Y40765000D03*
X75765000Y49165000D03*
X75765000Y43365000D03*
X76565000Y47365000D03*
X76665000Y68365000D03*
X76965000Y37965000D03*
X76965000Y20565000D03*
X77165000Y72165000D03*
X77265000Y77365000D03*
X77365000Y54165000D03*
X77365000Y28165000D03*
X77465000Y61265000D03*
X77565000Y47365000D03*
X77765000Y38965000D03*
X77765000Y6965000D03*
X77965000Y40565000D03*
X78565000Y37765000D03*
X79265000Y29065000D03*
X79493900Y52165000D03*
X79560200Y18265000D03*
X79711000Y43419000D03*
X79765000Y49165000D03*
X79865000Y46165000D03*
X80273800Y20031000D03*
X80365000Y52165000D03*
X80565000Y56965000D03*
X80565000Y50065000D03*
X81217400Y38365000D03*
X81365000Y33565000D03*
X81764800Y63358400D03*
X81765000Y53465000D03*
X81971400Y36865000D03*
X83156600Y24733200D03*
X83165000Y72365000D03*
X83165000Y64765000D03*
X83165000Y57665600D03*
X83165000Y47365000D03*
X83565000Y62965000D03*
X83955400Y12549000D03*
X83965000Y42465000D03*
X84165000Y56365000D03*
X84165000Y53965000D03*
X84565000Y77965000D03*
X84593900Y45860100D03*
X84637800Y19958000D03*
X84817400Y36565000D03*
X84965000Y6965000D03*
X85965000Y33765000D03*
X86741000Y26035000D03*
X87494600Y44243400D03*
X87765000Y37265000D03*
X88065000Y18165000D03*
X88570000Y1181000D03*
X88620600Y19676200D03*
X88765000Y50365000D03*
X88965800Y10722600D03*
X90627200Y15621000D03*
X90765000Y12365000D03*
X90957400Y26619200D03*
X91165000Y77765000D03*
X91165000Y57365000D03*
X91399800Y53527000D03*
X91965000Y6965000D03*
X92365000Y33765000D03*
X92365800Y18431000D03*
X93365000Y56365000D03*
X94065000Y51265000D03*
X94065000Y45465000D03*
X94165000Y74365000D03*
X94190000Y1181000D03*
X94365000Y33765000D03*
X94723000Y27232000D03*
X95972200Y43045000D03*
X96041000Y59187000D03*
X96144200Y71687800D03*
X96187400Y57520600D03*
X96829800Y19558000D03*
X96907800Y50335000D03*
X97365000Y77765000D03*
X97663000Y28448000D03*
X97784000Y6937000D03*
X98065000Y54865000D03*
X98365000Y45965000D03*
X98393900Y15621000D03*
X99365000Y1165000D03*
X100265000Y37565000D03*
X100565000Y33765000D03*
X100865000Y53765000D03*
X100893800Y19685000D03*
X101308600Y49543000D03*
X101765000Y53765000D03*
X101885800Y62734600D03*
X102341400Y69709800D03*
X102965000Y6965000D03*
X103251000Y29057600D03*
X103317800Y67166600D03*
X104165000Y74165000D03*
X104241800Y50965000D03*
X105059400Y19685000D03*
X105454600Y64027000D03*
X105902000Y1181000D03*
X106165000Y77765000D03*
X106451400Y15417800D03*
X106654600Y59613800D03*
X107037000Y55357800D03*
X107193900Y68060100D03*
X107561000Y28718000D03*
X107696000Y3937000D03*
X107765000Y33765000D03*
X108293900Y71160100D03*
X108331000Y25146000D03*
X108565000Y6765000D03*
X109165000Y19765000D03*
X109197800Y62566600D03*
X109665000Y48765000D03*
X110165000Y51565000D03*
X110165000Y37165000D03*
X110893900Y64460100D03*
X111065000Y35765000D03*
X111125000Y59105800D03*
X111239434Y71185758D03*
X111365000Y34665000D03*
X111479000Y30834000D03*
X111893900Y70460100D03*
X112691931Y33816468D03*
X112693900Y69260100D03*
X112750600Y63576200D03*
X112765000Y35065000D03*
X113165000Y19965000D03*
X113665000Y54838600D03*
X113693900Y70460100D03*
X113884200Y57769000D03*
X113965000Y6965000D03*
X113965000Y1165000D03*
X114165000Y33565000D03*
X114427000Y53594000D03*
X114525400Y62134600D03*
X114539000Y29765000D03*
X114706600Y51492200D03*
X114833800Y47561800D03*
X114933400Y41131400D03*
X115193900Y70160100D03*
X115193900Y3560100D03*
X115993900Y70960100D03*
X116335000Y30769000D03*
X116693800Y64446200D03*
X117165000Y19565000D03*
X117525800Y75609400D03*
X117729000Y59105800D03*
X117979800Y57473800D03*
X118493900Y67560100D03*
X119765000Y56365000D03*
X120558000Y69180000D03*
X120593900Y77760100D03*
X120758000Y62576000D03*
X120758000Y51054000D03*
X120758000Y44142000D03*
X120758000Y1251000D03*
X120885000Y58062600D03*
X120958000Y37338000D03*
X120958000Y32004000D03*
X120958000Y26289000D03*
X120958000Y19104000D03*
X120958000Y12700000D03*
X120958000Y7366000D03*
%TO.C,USB0*%
D11*
X108013238Y78443310D02*
X108013238Y77643310D01*
X108013238Y74413310D02*
X108013238Y73313310D01*
X116653238Y78443310D02*
X116653238Y77643310D01*
X116653238Y74413310D02*
X116653238Y73313310D01*
D12*
%TO.C,C39*%
X94970600Y55499000D03*
X94970600Y52959000D03*
D13*
%TO.C,PDI0*%
X6693900Y32260100D03*
X6693900Y29720100D03*
X6693900Y27180100D03*
X9233900Y32260100D03*
X9233900Y29720100D03*
X9233900Y27180100D03*
%TO.C,SV1*%
X14965841Y9952245D03*
X14965841Y7412245D03*
X17505841Y9952245D03*
X17505841Y7412245D03*
X20045841Y9952245D03*
X20045841Y7412245D03*
X22585841Y9952245D03*
X22585841Y7412245D03*
X25125841Y9952245D03*
X25125841Y7412245D03*
D14*
%TO.C,X1*%
X63325000Y10913000D03*
X65865000Y10913000D03*
%TO.C,LED1*%
X95365000Y13208000D03*
X95365000Y10668000D03*
X95365000Y8128000D03*
X95365000Y5588000D03*
%TO.C,LED2*%
X100695000Y13208000D03*
X100695000Y10668000D03*
X100695000Y8128000D03*
X100695000Y5588000D03*
%TO.C,LED3*%
X106025000Y13208000D03*
X106025000Y10668000D03*
X106025000Y8128000D03*
X106025000Y5588000D03*
%TO.C,LED4*%
X111355000Y13208000D03*
X111355000Y10668000D03*
X111355000Y8128000D03*
X111355000Y5588000D03*
%TO.C,LED5*%
X116685000Y13208000D03*
X116685000Y10668000D03*
X116685000Y8128000D03*
X116685000Y5588000D03*
D15*
%TO.C,GND_TP0*%
X18333000Y42773000D03*
%TO.C,BAT_TP0*%
X64765000Y3258600D03*
%TO.C,+3V3_TP0*%
X89091000Y55057000D03*
%TO.C,+5V_TP0*%
X95205000Y62973000D03*
%TO.C,GND_TP1*%
X105737000Y36273000D03*
D16*
%TO.C,BATEN0*%
X71326000Y15867400D03*
X73485000Y3167400D03*
X76025000Y15867400D03*
X78565000Y3167400D03*
X80724000Y15867400D03*
M02*
