%TF.GenerationSoftware,KiCad,Pcbnew,10.0.3*%
%TF.CreationDate,2026-06-19T11:51:50+01:00*%
%TF.ProjectId,harp timestamp generator Gen3,68617270-2074-4696-9d65-7374616d7020,rev?*%
%TF.SameCoordinates,PX52e14f4PY89dcfe4*%
%TF.FileFunction,Soldermask,Top*%
%TF.FilePolarity,Negative*%
%FSLAX46Y46*%
G04 Gerber Fmt 4.6, Leading zero omitted, Abs format (unit mm)*
G04 Created by KiCad (PCBNEW 10.0.3) date 2026-06-19 11:51:50*
%MOMM*%
%LPD*%
G01*
G04 APERTURE LIST*
G04 Aperture macros list*
%AMRoundRect*
0 Rectangle with rounded corners*
0 $1 Rounding radius*
0 $2 $3 $4 $5 $6 $7 $8 $9 X,Y pos of 4 corners*
0 Add a 4 corners polygon primitive as box body*
4,1,4,$2,$3,$4,$5,$6,$7,$8,$9,$2,$3,0*
0 Add four circle primitives for the rounded corners*
1,1,$1+$1,$2,$3*
1,1,$1+$1,$4,$5*
1,1,$1+$1,$6,$7*
1,1,$1+$1,$8,$9*
0 Add four rect primitives between the rounded corners*
20,1,$1+$1,$2,$3,$4,$5,0*
20,1,$1+$1,$4,$5,$6,$7,0*
20,1,$1+$1,$6,$7,$8,$9,0*
20,1,$1+$1,$8,$9,$2,$3,0*%
%AMOutline5P*
0 Free polygon, 5 corners , with rotation*
0 The origin of the aperture is its center*
0 number of corners: always 5*
0 $1 to $10 corner X, Y*
0 $11 Rotation angle, in degrees counterclockwise*
0 create outline with 5 corners*
4,1,5,$1,$2,$3,$4,$5,$6,$7,$8,$9,$10,$1,$2,$11*%
%AMOutline6P*
0 Free polygon, 6 corners , with rotation*
0 The origin of the aperture is its center*
0 number of corners: always 6*
0 $1 to $12 corner X, Y*
0 $13 Rotation angle, in degrees counterclockwise*
0 create outline with 6 corners*
4,1,6,$1,$2,$3,$4,$5,$6,$7,$8,$9,$10,$11,$12,$1,$2,$13*%
%AMOutline7P*
0 Free polygon, 7 corners , with rotation*
0 The origin of the aperture is its center*
0 number of corners: always 7*
0 $1 to $14 corner X, Y*
0 $15 Rotation angle, in degrees counterclockwise*
0 create outline with 7 corners*
4,1,7,$1,$2,$3,$4,$5,$6,$7,$8,$9,$10,$11,$12,$13,$14,$1,$2,$15*%
%AMOutline8P*
0 Free polygon, 8 corners , with rotation*
0 The origin of the aperture is its center*
0 number of corners: always 8*
0 $1 to $16 corner X, Y*
0 $17 Rotation angle, in degrees counterclockwise*
0 create outline with 8 corners*
4,1,8,$1,$2,$3,$4,$5,$6,$7,$8,$9,$10,$11,$12,$13,$14,$15,$16,$1,$2,$17*%
G04 Aperture macros list end*
%ADD10RoundRect,0.140000X0.170000X-0.140000X0.170000X0.140000X-0.170000X0.140000X-0.170000X-0.140000X0*%
%ADD11RoundRect,0.150000X-0.150000X0.587500X-0.150000X-0.587500X0.150000X-0.587500X0.150000X0.587500X0*%
%ADD12RoundRect,0.140000X-0.140000X-0.170000X0.140000X-0.170000X0.140000X0.170000X-0.140000X0.170000X0*%
%ADD13R,1.550000X1.100000*%
%ADD14R,0.700000X1.700000*%
%ADD15RoundRect,0.135000X-0.135000X-0.185000X0.135000X-0.185000X0.135000X0.185000X-0.135000X0.185000X0*%
%ADD16RoundRect,0.140000X0.140000X0.170000X-0.140000X0.170000X-0.140000X-0.170000X0.140000X-0.170000X0*%
%ADD17RoundRect,0.135000X-0.185000X0.135000X-0.185000X-0.135000X0.185000X-0.135000X0.185000X0.135000X0*%
%ADD18RoundRect,0.150000X-0.587500X-0.150000X0.587500X-0.150000X0.587500X0.150000X-0.587500X0.150000X0*%
%ADD19Outline8P,-0.762000X0.315631X-0.315631X0.762000X0.315631X0.762000X0.762000X0.315631X0.762000X-0.315631X0.315631X-0.762000X-0.315631X-0.762000X-0.762000X-0.315631X90.000000*%
%ADD20C,2.500000*%
%ADD21RoundRect,0.112500X-0.350000X-0.112500X0.350000X-0.112500X0.350000X0.112500X-0.350000X0.112500X0*%
%ADD22RoundRect,0.135000X0.135000X0.185000X-0.135000X0.185000X-0.135000X-0.185000X0.135000X-0.185000X0*%
%ADD23RoundRect,0.135000X0.185000X-0.135000X0.185000X0.135000X-0.185000X0.135000X-0.185000X-0.135000X0*%
%ADD24RoundRect,0.100000X-0.100000X0.637500X-0.100000X-0.637500X0.100000X-0.637500X0.100000X0.637500X0*%
%ADD25RoundRect,0.200000X-0.200000X-0.275000X0.200000X-0.275000X0.200000X0.275000X-0.200000X0.275000X0*%
%ADD26C,1.600000*%
%ADD27R,2.550000X2.400000*%
%ADD28R,2.750000X2.900000*%
%ADD29RoundRect,0.225000X0.250000X-0.225000X0.250000X0.225000X-0.250000X0.225000X-0.250000X-0.225000X0*%
%ADD30RoundRect,0.140000X-0.170000X0.140000X-0.170000X-0.140000X0.170000X-0.140000X0.170000X0.140000X0*%
%ADD31RoundRect,0.150000X0.150000X-0.512500X0.150000X0.512500X-0.150000X0.512500X-0.150000X-0.512500X0*%
%ADD32R,1.700000X1.700000*%
%ADD33C,1.700000*%
%ADD34RoundRect,0.200000X0.200000X0.275000X-0.200000X0.275000X-0.200000X-0.275000X0.200000X-0.275000X0*%
%ADD35C,0.650000*%
%ADD36RoundRect,0.150000X0.150000X0.425000X-0.150000X0.425000X-0.150000X-0.425000X0.150000X-0.425000X0*%
%ADD37RoundRect,0.075000X0.075000X0.500000X-0.075000X0.500000X-0.075000X-0.500000X0.075000X-0.500000X0*%
%ADD38O,1.000000X2.100000*%
%ADD39O,1.000000X1.800000*%
%ADD40C,10.000000*%
%ADD41RoundRect,0.150000X0.150000X-0.825000X0.150000X0.825000X-0.150000X0.825000X-0.150000X-0.825000X0*%
%ADD42RoundRect,0.137500X0.137500X-0.600000X0.137500X0.600000X-0.137500X0.600000X-0.137500X-0.600000X0*%
%ADD43RoundRect,0.137500X0.600000X-0.137500X0.600000X0.137500X-0.600000X0.137500X-0.600000X-0.137500X0*%
%ADD44RoundRect,0.250000X0.362500X1.425000X-0.362500X1.425000X-0.362500X-1.425000X0.362500X-1.425000X0*%
%ADD45RoundRect,0.250000X-0.600000X0.600000X-0.600000X-0.600000X0.600000X-0.600000X0.600000X0.600000X0*%
%ADD46RoundRect,0.250000X-0.450000X0.262500X-0.450000X-0.262500X0.450000X-0.262500X0.450000X0.262500X0*%
%ADD47R,0.783900X1.127200*%
%ADD48C,1.219200*%
%ADD49Outline8P,-0.609600X0.252505X-0.252505X0.609600X0.252505X0.609600X0.609600X0.252505X0.609600X-0.252505X0.252505X-0.609600X-0.252505X-0.609600X-0.609600X-0.252505X90.000000*%
%ADD50C,1.524000*%
%ADD51RoundRect,0.150000X0.150000X-0.587500X0.150000X0.587500X-0.150000X0.587500X-0.150000X-0.587500X0*%
%ADD52Outline8P,-1.390650X0.576026X-0.576026X1.390650X0.576026X1.390650X1.390650X0.576026X1.390650X-0.576026X0.576026X-1.390650X-0.576026X-1.390650X-1.390650X-0.576026X90.000000*%
%ADD53RoundRect,0.087500X-0.425000X-0.087500X0.425000X-0.087500X0.425000X0.087500X-0.425000X0.087500X0*%
%ADD54RoundRect,0.150000X0.512500X0.150000X-0.512500X0.150000X-0.512500X-0.150000X0.512500X-0.150000X0*%
%ADD55RoundRect,0.150000X0.587500X0.150000X-0.587500X0.150000X-0.587500X-0.150000X0.587500X-0.150000X0*%
%ADD56RoundRect,0.150000X-0.150000X0.512500X-0.150000X-0.512500X0.150000X-0.512500X0.150000X0.512500X0*%
%ADD57RoundRect,0.100000X0.850000X0.100000X-0.850000X0.100000X-0.850000X-0.100000X0.850000X-0.100000X0*%
%ADD58R,0.900000X1.100000*%
%ADD59RoundRect,0.150000X-0.512500X-0.150000X0.512500X-0.150000X0.512500X0.150000X-0.512500X0.150000X0*%
G04 APERTURE END LIST*
D10*
%TO.C,C28*%
X40865000Y38385000D03*
X40865000Y39345000D03*
%TD*%
D11*
%TO.C,T1*%
X83512600Y21028900D03*
X81612600Y21028900D03*
X82562600Y19153900D03*
%TD*%
D12*
%TO.C,C22*%
X46085000Y16565000D03*
X47045000Y16565000D03*
%TD*%
D13*
%TO.C,BUTTON0*%
X39150000Y1397000D03*
X48900000Y1397000D03*
X39150000Y5207000D03*
X48900000Y5207000D03*
D14*
X42125000Y7152000D03*
X44665000Y7152000D03*
X47205000Y7152000D03*
%TD*%
D15*
%TO.C,R40*%
X86159800Y16840200D03*
X87179800Y16840200D03*
%TD*%
D16*
%TO.C,C35*%
X45245000Y49565000D03*
X44285000Y49565000D03*
%TD*%
D17*
%TO.C,R19*%
X89465000Y37175000D03*
X89465000Y36155000D03*
%TD*%
D18*
%TO.C,Q3*%
X64427500Y36315000D03*
X64427500Y34415000D03*
X66302500Y35365000D03*
%TD*%
D10*
%TO.C,C19*%
X19865000Y60985000D03*
X19865000Y61945000D03*
%TD*%
D19*
%TO.C,LED4*%
X111355000Y8128000D03*
X111355000Y13208000D03*
X111355000Y5588000D03*
X111355000Y10668000D03*
%TD*%
D20*
%TO.C,BAT_TP0*%
X64765000Y3258600D03*
%TD*%
D15*
%TO.C,R13*%
X87755000Y45765000D03*
X88775000Y45765000D03*
%TD*%
D21*
%TO.C,Q1*%
X66077500Y47015000D03*
X66077500Y45715000D03*
X67852500Y46365000D03*
%TD*%
D15*
%TO.C,R30*%
X110615000Y23342600D03*
X111635000Y23342600D03*
%TD*%
%TO.C,R29*%
X102415800Y23342600D03*
X103435800Y23342600D03*
%TD*%
D22*
%TO.C,R48*%
X50935800Y16530600D03*
X49915800Y16530600D03*
%TD*%
D23*
%TO.C,R8*%
X116893900Y68650100D03*
X116893900Y69670100D03*
%TD*%
D17*
%TO.C,R7*%
X63665000Y46875000D03*
X63665000Y45855000D03*
%TD*%
D10*
%TO.C,C26*%
X69865000Y60985000D03*
X69865000Y61945000D03*
%TD*%
D15*
%TO.C,R21*%
X82095800Y23342600D03*
X83115800Y23342600D03*
%TD*%
D24*
%TO.C,IC4*%
X78740000Y50027500D03*
X78090000Y50027500D03*
X77440000Y50027500D03*
X76790000Y50027500D03*
X76790000Y44302500D03*
X77440000Y44302500D03*
X78090000Y44302500D03*
X78740000Y44302500D03*
%TD*%
D15*
%TO.C,R31*%
X118743000Y23342600D03*
X119763000Y23342600D03*
%TD*%
D16*
%TO.C,C20*%
X9845000Y53065000D03*
X8885000Y53065000D03*
%TD*%
D25*
%TO.C,R11*%
X28040000Y42465000D03*
X29690000Y42465000D03*
%TD*%
D19*
%TO.C,LED2*%
X100695000Y8128000D03*
X100695000Y13208000D03*
X100695000Y5588000D03*
X100695000Y10668000D03*
%TD*%
D23*
%TO.C,R14*%
X61365000Y34855000D03*
X61365000Y35875000D03*
%TD*%
%TO.C,R18*%
X119202200Y57884600D03*
X119202200Y58904600D03*
%TD*%
D26*
%TO.C,CLKIN0*%
X86118600Y75413400D03*
X86118600Y68413400D03*
D27*
X82443600Y76513400D03*
D28*
X82543600Y67213400D03*
D27*
X89793600Y74613400D03*
%TD*%
D29*
%TO.C,C23*%
X102407400Y70983200D03*
X102407400Y72533200D03*
%TD*%
D30*
%TO.C,C41*%
X76765000Y41645000D03*
X76765000Y40685000D03*
%TD*%
D16*
%TO.C,C37*%
X29345000Y48465000D03*
X28385000Y48465000D03*
%TD*%
D20*
%TO.C,+3V3_TP0*%
X89091000Y55057000D03*
%TD*%
D15*
%TO.C,R41*%
X94287800Y16840200D03*
X95307800Y16840200D03*
%TD*%
D16*
%TO.C,C38*%
X27845000Y21365000D03*
X26885000Y21365000D03*
%TD*%
D10*
%TO.C,C3*%
X106654600Y52749000D03*
X106654600Y53709000D03*
%TD*%
D12*
%TO.C,C36*%
X37385000Y49565000D03*
X38345000Y49565000D03*
%TD*%
D11*
%TO.C,T2*%
X87619800Y21028900D03*
X85719800Y21028900D03*
X86669800Y19153900D03*
%TD*%
D31*
%TO.C,IC19*%
X37143900Y43222600D03*
X38093900Y43222600D03*
X39043900Y43222600D03*
X39043900Y45497600D03*
X37143900Y45497600D03*
%TD*%
D32*
%TO.C,PDI0*%
X6693900Y32260100D03*
D33*
X9233900Y32260100D03*
X6693900Y29720100D03*
X9233900Y29720100D03*
X6693900Y27180100D03*
X9233900Y27180100D03*
%TD*%
D34*
%TO.C,R12*%
X28190000Y14365000D03*
X26540000Y14365000D03*
%TD*%
D31*
%TO.C,IC10*%
X34147000Y11048300D03*
X35097000Y11048300D03*
X36047000Y11048300D03*
X36047000Y13323300D03*
X34147000Y13323300D03*
%TD*%
D35*
%TO.C,USB0*%
X115223238Y74363310D03*
X109443238Y74363310D03*
D36*
X115533238Y73288310D03*
X114733238Y73288310D03*
D37*
X113583238Y73288310D03*
X112583238Y73288310D03*
X112083238Y73288310D03*
X111083238Y73288310D03*
D36*
X109933238Y73288310D03*
X109133238Y73288310D03*
X109133238Y73288310D03*
X109933238Y73288310D03*
D37*
X110583238Y73288310D03*
X111583238Y73288310D03*
X113083238Y73288310D03*
X114083238Y73288310D03*
D36*
X114733238Y73288310D03*
X115533238Y73288310D03*
D38*
X116653238Y73863310D03*
D39*
X116653238Y78043310D03*
D38*
X108013238Y73863310D03*
D39*
X108013238Y78043310D03*
%TD*%
D40*
%TO.C,*%
X105165000Y44465000D03*
%TD*%
D29*
%TO.C,C10*%
X99987400Y59184800D03*
X99987400Y60734800D03*
%TD*%
D11*
%TO.C,T10*%
X120203000Y21028900D03*
X118303000Y21028900D03*
X119253000Y19153900D03*
%TD*%
D26*
%TO.C,CLKOUT1*%
X61118600Y75413400D03*
X61118600Y68413400D03*
D27*
X57443600Y76513400D03*
D28*
X57543600Y67213400D03*
D27*
X64793600Y74613400D03*
%TD*%
D41*
%TO.C,IC12*%
X72660000Y55890000D03*
X73930000Y55890000D03*
X75200000Y55890000D03*
X76470000Y55890000D03*
X76470000Y60840000D03*
X75200000Y60840000D03*
X73930000Y60840000D03*
X72660000Y60840000D03*
%TD*%
D26*
%TO.C,CLKOUT0*%
X73618600Y75413400D03*
X73618600Y68413400D03*
D27*
X69943600Y76513400D03*
D28*
X70043600Y67213400D03*
D27*
X77293600Y74613400D03*
%TD*%
D15*
%TO.C,R16*%
X35249000Y8634600D03*
X36269000Y8634600D03*
%TD*%
D42*
%TO.C,IC6*%
X39365000Y21702500D03*
X40165000Y21702500D03*
X40965000Y21702500D03*
X41765000Y21702500D03*
X42565000Y21702500D03*
X43365000Y21702500D03*
X44165000Y21702500D03*
X44965000Y21702500D03*
X45765000Y21702500D03*
X46565000Y21702500D03*
X47365000Y21702500D03*
D43*
X49027500Y23365000D03*
X49027500Y24165000D03*
X49027500Y24965000D03*
X49027500Y25765000D03*
X49027500Y26565000D03*
X49027500Y27365000D03*
X49027500Y28165000D03*
X49027500Y28965000D03*
X49027500Y29765000D03*
X49027500Y30565000D03*
X49027500Y31365000D03*
D42*
X47365000Y33027500D03*
X46565000Y33027500D03*
X45765000Y33027500D03*
X44965000Y33027500D03*
X44165000Y33027500D03*
X43365000Y33027500D03*
X42565000Y33027500D03*
X41765000Y33027500D03*
X40965000Y33027500D03*
X40165000Y33027500D03*
X39365000Y33027500D03*
D43*
X37702500Y31365000D03*
X37702500Y30565000D03*
X37702500Y29765000D03*
X37702500Y28965000D03*
X37702500Y28165000D03*
X37702500Y27365000D03*
X37702500Y26565000D03*
X37702500Y25765000D03*
X37702500Y24965000D03*
X37702500Y24165000D03*
X37702500Y23365000D03*
%TD*%
D26*
%TO.C,CLKOUT5*%
X11118600Y75413400D03*
X11118600Y68413400D03*
D27*
X7443600Y76513400D03*
D28*
X7543600Y67213400D03*
D27*
X14793600Y74613400D03*
%TD*%
D30*
%TO.C,C4*%
X109893900Y65940100D03*
X109893900Y64980100D03*
%TD*%
D44*
%TO.C,R15*%
X77327500Y34965000D03*
X71402500Y34965000D03*
%TD*%
D45*
%TO.C,SV1*%
X25125841Y9952245D03*
D33*
X25125841Y7412245D03*
X22585841Y9952245D03*
X22585841Y7412245D03*
X20045841Y9952245D03*
X20045841Y7412245D03*
X17505841Y9952245D03*
X17505841Y7412245D03*
X14965841Y9952245D03*
X14965841Y7412245D03*
%TD*%
D16*
%TO.C,C25*%
X71145000Y53065000D03*
X70185000Y53065000D03*
%TD*%
D46*
%TO.C,L1*%
X103816200Y54328700D03*
X103816200Y52503700D03*
%TD*%
D17*
%TO.C,R50*%
X6680200Y23039800D03*
X6680200Y22019800D03*
%TD*%
D26*
%TO.C,CLKOUT4*%
X23618600Y75413400D03*
X23618600Y68413400D03*
D27*
X19943600Y76513400D03*
D28*
X20043600Y67213400D03*
D27*
X27293600Y74613400D03*
%TD*%
D10*
%TO.C,C15*%
X44865000Y60985000D03*
X44865000Y61945000D03*
%TD*%
D15*
%TO.C,R44*%
X110615000Y16840200D03*
X111635000Y16840200D03*
%TD*%
D23*
%TO.C,R54*%
X42795000Y43455000D03*
X42795000Y44475000D03*
%TD*%
D47*
%TO.C,D1*%
X81565000Y45886500D03*
X81565000Y42443500D03*
%TD*%
D15*
%TO.C,R34*%
X90223800Y16840200D03*
X91243800Y16840200D03*
%TD*%
D10*
%TO.C,C33*%
X83665000Y59685000D03*
X83665000Y60645000D03*
%TD*%
D30*
%TO.C,C62*%
X46965000Y12157800D03*
X46965000Y11197800D03*
%TD*%
D48*
%TO.C,C39*%
X94970600Y52959000D03*
D49*
X94970600Y55499000D03*
%TD*%
D16*
%TO.C,C29*%
X31145000Y25065000D03*
X30185000Y25065000D03*
%TD*%
D22*
%TO.C,R4*%
X68875000Y42365000D03*
X67855000Y42365000D03*
%TD*%
D16*
%TO.C,C14*%
X46745000Y53065000D03*
X45785000Y53065000D03*
%TD*%
D12*
%TO.C,C9*%
X119382600Y55245000D03*
X120342600Y55245000D03*
%TD*%
D30*
%TO.C,C42*%
X79565000Y41645000D03*
X79565000Y40685000D03*
%TD*%
D12*
%TO.C,C30*%
X34385000Y15523600D03*
X35345000Y15523600D03*
%TD*%
D50*
%TO.C,X1*%
X63325000Y10913000D03*
X65865000Y10913000D03*
%TD*%
D15*
%TO.C,R37*%
X114679000Y16840200D03*
X115699000Y16840200D03*
%TD*%
D11*
%TO.C,T7*%
X108011000Y21028900D03*
X106111000Y21028900D03*
X107061000Y19153900D03*
%TD*%
D23*
%TO.C,R6*%
X57365000Y45855000D03*
X57365000Y46875000D03*
%TD*%
D29*
%TO.C,C24*%
X94175800Y70983200D03*
X94175800Y72533200D03*
%TD*%
D22*
%TO.C,R2*%
X94395800Y67825400D03*
X93375800Y67825400D03*
%TD*%
D20*
%TO.C,GND_TP0*%
X18333000Y42773000D03*
%TD*%
D51*
%TO.C,Q2*%
X59415000Y45427500D03*
X61315000Y45427500D03*
X60365000Y47302500D03*
%TD*%
D15*
%TO.C,R24*%
X106551000Y23342600D03*
X107571000Y23342600D03*
%TD*%
D52*
%TO.C,BATEN0*%
X73485000Y3167400D03*
X78565000Y3167400D03*
X71326000Y15867400D03*
X76025000Y15867400D03*
X80724000Y15867400D03*
%TD*%
D17*
%TO.C,R32*%
X110293900Y69670100D03*
X110293900Y68650100D03*
%TD*%
D15*
%TO.C,R22*%
X90223800Y23342600D03*
X91243800Y23342600D03*
%TD*%
D30*
%TO.C,C5*%
X106654600Y58366600D03*
X106654600Y57406600D03*
%TD*%
D41*
%TO.C,IC16*%
X22460000Y55890000D03*
X23730000Y55890000D03*
X25000000Y55890000D03*
X26270000Y55890000D03*
X26270000Y60840000D03*
X25000000Y60840000D03*
X23730000Y60840000D03*
X22460000Y60840000D03*
%TD*%
D22*
%TO.C,R5*%
X64875000Y42365000D03*
X63855000Y42365000D03*
%TD*%
D53*
%TO.C,IC9*%
X41527500Y13327800D03*
X41527500Y12677800D03*
X41527500Y12027800D03*
X43202500Y12027800D03*
X43202500Y13327800D03*
%TD*%
D41*
%TO.C,IC15*%
X35060000Y55890000D03*
X36330000Y55890000D03*
X37600000Y55890000D03*
X38870000Y55890000D03*
X38870000Y60840000D03*
X37600000Y60840000D03*
X36330000Y60840000D03*
X35060000Y60840000D03*
%TD*%
D10*
%TO.C,C17*%
X32465000Y60985000D03*
X32465000Y61945000D03*
%TD*%
D15*
%TO.C,R28*%
X94287800Y23342600D03*
X95307800Y23342600D03*
%TD*%
D11*
%TO.C,T5*%
X99811800Y21028900D03*
X97911800Y21028900D03*
X98861800Y19153900D03*
%TD*%
D41*
%TO.C,IC14*%
X47660000Y55890000D03*
X48930000Y55890000D03*
X50200000Y55890000D03*
X51470000Y55890000D03*
X51470000Y60840000D03*
X50200000Y60840000D03*
X48930000Y60840000D03*
X47660000Y60840000D03*
%TD*%
D26*
%TO.C,CLKOUT3*%
X36118600Y75413400D03*
X36118600Y68413400D03*
D27*
X32443600Y76513400D03*
D28*
X32543600Y67213400D03*
D27*
X39793600Y74613400D03*
%TD*%
D16*
%TO.C,C32*%
X29445000Y32565000D03*
X28485000Y32565000D03*
%TD*%
D10*
%TO.C,C2*%
X119493900Y73580100D03*
X119493900Y74540100D03*
%TD*%
D15*
%TO.C,R25*%
X114679000Y23342600D03*
X115699000Y23342600D03*
%TD*%
%TO.C,R35*%
X98351800Y16840200D03*
X99371800Y16840200D03*
%TD*%
D31*
%TO.C,IC18*%
X45367000Y43455500D03*
X46317000Y43455500D03*
X47267000Y43455500D03*
X47267000Y45730500D03*
X45367000Y45730500D03*
%TD*%
D11*
%TO.C,T6*%
X103875800Y21028900D03*
X101975800Y21028900D03*
X102925800Y19153900D03*
%TD*%
D54*
%TO.C,IC11*%
X99364500Y70737800D03*
X99364500Y71687800D03*
X99364500Y72637800D03*
X97089500Y72637800D03*
X97089500Y70737800D03*
%TD*%
D19*
%TO.C,LED1*%
X95365000Y8128000D03*
X95365000Y13208000D03*
X95365000Y5588000D03*
X95365000Y10668000D03*
%TD*%
D47*
%TO.C,D2*%
X73965000Y45886500D03*
X73965000Y42443500D03*
%TD*%
D30*
%TO.C,C6*%
X115593900Y65940100D03*
X115593900Y64980100D03*
%TD*%
D22*
%TO.C,R_I_MAX0*%
X74875000Y50165000D03*
X73855000Y50165000D03*
%TD*%
D19*
%TO.C,LED5*%
X116685000Y8128000D03*
X116685000Y13208000D03*
X116685000Y5588000D03*
X116685000Y10668000D03*
%TD*%
D26*
%TO.C,CLKOUT2*%
X48618600Y75413400D03*
X48618600Y68413400D03*
D27*
X44943600Y76513400D03*
D28*
X45043600Y67213400D03*
D27*
X52293600Y74613400D03*
%TD*%
D53*
%TO.C,IC8*%
X26527500Y18515000D03*
X26527500Y17865000D03*
X26527500Y17215000D03*
X28202500Y17215000D03*
X28202500Y18515000D03*
%TD*%
D11*
%TO.C,T4*%
X95747800Y21028900D03*
X93847800Y21028900D03*
X94797800Y19153900D03*
%TD*%
D15*
%TO.C,R45*%
X118743000Y16840200D03*
X119763000Y16840200D03*
%TD*%
D19*
%TO.C,LED3*%
X106025000Y8128000D03*
X106025000Y13208000D03*
X106025000Y5588000D03*
X106025000Y10668000D03*
%TD*%
D16*
%TO.C,C31*%
X42845000Y15365000D03*
X41885000Y15365000D03*
%TD*%
D17*
%TO.C,R17*%
X96065000Y41475000D03*
X96065000Y40455000D03*
%TD*%
D25*
%TO.C,F1*%
X55740000Y38365000D03*
X57390000Y38365000D03*
%TD*%
D22*
%TO.C,R33*%
X87179800Y12627000D03*
X86159800Y12627000D03*
%TD*%
D25*
%TO.C,R10*%
X41540000Y9490600D03*
X43190000Y9490600D03*
%TD*%
D55*
%TO.C,Q5*%
X93402500Y40015000D03*
X93402500Y41915000D03*
X91527500Y40965000D03*
%TD*%
D29*
%TO.C,C8*%
X103816200Y58737200D03*
X103816200Y60287200D03*
%TD*%
D17*
%TO.C,R1*%
X119493900Y77270100D03*
X119493900Y76250100D03*
%TD*%
D56*
%TO.C,IC2*%
X113700600Y67864900D03*
X112750600Y67864900D03*
X111800600Y67864900D03*
X111800600Y65589900D03*
X112750600Y65589900D03*
X113700600Y65589900D03*
%TD*%
D20*
%TO.C,+5V_TP0*%
X95205000Y62973000D03*
%TD*%
D23*
%TO.C,R55*%
X34811000Y43855000D03*
X34811000Y44875000D03*
%TD*%
D12*
%TO.C,C27*%
X54585000Y29365000D03*
X55545000Y29365000D03*
%TD*%
D11*
%TO.C,T3*%
X91683800Y21028900D03*
X89783800Y21028900D03*
X90733800Y19153900D03*
%TD*%
D23*
%TO.C,R9*%
X49355400Y11117000D03*
X49355400Y12137000D03*
%TD*%
D30*
%TO.C,C40*%
X9525000Y23009800D03*
X9525000Y22049800D03*
%TD*%
D22*
%TO.C,R26*%
X83275000Y50165000D03*
X82255000Y50165000D03*
%TD*%
D16*
%TO.C,C1*%
X58945000Y53065000D03*
X57985000Y53065000D03*
%TD*%
D15*
%TO.C,R36*%
X106551000Y16840200D03*
X107571000Y16840200D03*
%TD*%
D57*
%TO.C,IC3*%
X116250600Y53255200D03*
X116250600Y53905200D03*
X116250600Y54555200D03*
X116250600Y55205200D03*
X116250600Y55855200D03*
X116250600Y56505200D03*
X116250600Y57155200D03*
X116250600Y57805200D03*
X116250600Y58455200D03*
X116250600Y59105200D03*
X116250600Y59755200D03*
X116250600Y60405200D03*
X116250600Y61055200D03*
X116250600Y61705200D03*
X109250600Y61705200D03*
X109250600Y61055200D03*
X109250600Y60405200D03*
X109250600Y59755200D03*
X109250600Y59105200D03*
X109250600Y58455200D03*
X109250600Y57805200D03*
X109250600Y57155200D03*
X109250600Y56505200D03*
X109250600Y55855200D03*
X109250600Y55205200D03*
X109250600Y54555200D03*
X109250600Y53905200D03*
X109250600Y53255200D03*
%TD*%
D10*
%TO.C,C21*%
X7465000Y60985000D03*
X7465000Y61945000D03*
%TD*%
D29*
%TO.C,C11*%
X88065800Y59384800D03*
X88065800Y60934800D03*
%TD*%
D15*
%TO.C,R20*%
X76255000Y52660100D03*
X77275000Y52660100D03*
%TD*%
D54*
%TO.C,IC5*%
X92860900Y59209800D03*
X92860900Y60159800D03*
X92860900Y61109800D03*
X90585900Y61109800D03*
X90585900Y59209800D03*
%TD*%
D17*
%TO.C,R3*%
X93059000Y65554200D03*
X93059000Y64534200D03*
%TD*%
D41*
%TO.C,IC17*%
X10060000Y55890000D03*
X11330000Y55890000D03*
X12600000Y55890000D03*
X13870000Y55890000D03*
X13870000Y60840000D03*
X12600000Y60840000D03*
X11330000Y60840000D03*
X10060000Y60840000D03*
%TD*%
D10*
%TO.C,C34*%
X97165000Y59485000D03*
X97165000Y60445000D03*
%TD*%
%TO.C,C13*%
X57265000Y60985000D03*
X57265000Y61945000D03*
%TD*%
D16*
%TO.C,C16*%
X34145000Y53065000D03*
X33185000Y53065000D03*
%TD*%
D58*
%TO.C,OSC1*%
X29685318Y27310100D03*
X31785318Y27310100D03*
X31785318Y29310100D03*
X29685318Y29310100D03*
%TD*%
D16*
%TO.C,C18*%
X21045000Y53065000D03*
X20085000Y53065000D03*
%TD*%
D11*
%TO.C,T9*%
X116139000Y21028900D03*
X114239000Y21028900D03*
X115189000Y19153900D03*
%TD*%
D10*
%TO.C,C7*%
X106654600Y61064200D03*
X106654600Y62024200D03*
%TD*%
D21*
%TO.C,Q4*%
X91577500Y37315000D03*
X91577500Y36015000D03*
X93352500Y36665000D03*
%TD*%
D11*
%TO.C,T8*%
X112075000Y21028900D03*
X110175000Y21028900D03*
X111125000Y19153900D03*
%TD*%
D22*
%TO.C,R27*%
X87179800Y23342600D03*
X86159800Y23342600D03*
%TD*%
D41*
%TO.C,IC13*%
X60060000Y55890000D03*
X61330000Y55890000D03*
X62600000Y55890000D03*
X63870000Y55890000D03*
X63870000Y60840000D03*
X62600000Y60840000D03*
X61330000Y60840000D03*
X60060000Y60840000D03*
%TD*%
D20*
%TO.C,GND_TP1*%
X105737000Y36273000D03*
%TD*%
D15*
%TO.C,R23*%
X98351800Y23342600D03*
X99371800Y23342600D03*
%TD*%
%TO.C,R42*%
X102415800Y16840200D03*
X103435800Y16840200D03*
%TD*%
D10*
%TO.C,C12*%
X85727400Y59679800D03*
X85727400Y60639800D03*
%TD*%
D53*
%TO.C,IC7*%
X28027500Y46515000D03*
X28027500Y45865000D03*
X28027500Y45215000D03*
X29702500Y45215000D03*
X29702500Y46515000D03*
%TD*%
D59*
%TO.C,IC1*%
X86427500Y42915000D03*
X86427500Y41965000D03*
X86427500Y41015000D03*
X88702500Y41015000D03*
X88702500Y42915000D03*
%TD*%
M02*
